<svg width="36" height="36" viewBox="0 0 36 36" fill="none" xmlns="http://www.w3.org/2000/svg">
<path d="M32.5834 24.9124V7.31031C32.5834 5.56031 31.1542 4.26239 29.4188 4.40822H29.3313C26.2688 4.67072 21.6167 6.23114 19.0209 7.86447L18.773 8.02489C18.3501 8.28739 17.6501 8.28739 17.2272 8.02489L16.8626 7.80614C14.2667 6.18739 9.62925 4.64156 6.56675 4.39364C4.83133 4.24781 3.41675 5.56031 3.41675 7.29572V24.9124C3.41675 26.3124 4.55425 27.6249 5.95425 27.7999L6.37716 27.8582C9.54175 28.2811 14.4272 29.8853 17.2272 31.4166L17.2855 31.4457C17.6792 31.6645 18.3063 31.6645 18.6855 31.4457C21.4855 29.8999 26.3855 28.2811 29.5647 27.8582L30.0459 27.7999C31.4459 27.6249 32.5834 26.3124 32.5834 24.9124Z" stroke="#2EC5CE" stroke-width="1.5" stroke-linecap="round" stroke-linejoin="round"/>
<path d="M18 8.50635V30.3813" stroke="#2EC5CE" stroke-width="1.5" stroke-linecap="round" stroke-linejoin="round"/>
<path d="M11.802 12.8813H8.52075" stroke="#2EC5CE" stroke-width="1.5" stroke-linecap="round" stroke-linejoin="round"/>
<path d="M12.8958 17.2563H8.52075" stroke="#2EC5CE" stroke-width="1.5" stroke-linecap="round" stroke-linejoin="round"/>
</svg>
