<svg width="36" height="36" viewBox="0 0 36 36" fill="none" xmlns="http://www.w3.org/2000/svg">
<path d="M32.5833 24.9124V7.31031C32.5833 5.56031 31.1541 4.26239 29.4187 4.40822H29.3312C26.2687 4.67072 21.6166 6.23114 19.0208 7.86447L18.7729 8.02489C18.35 8.28739 17.65 8.28739 17.227 8.02489L16.8625 7.80614C14.2666 6.18739 9.62913 4.64156 6.56663 4.39364C4.83121 4.24781 3.41663 5.56031 3.41663 7.29572V24.9124C3.41663 26.3124 4.55413 27.6249 5.95413 27.7999L6.37704 27.8582C9.54163 28.2811 14.427 29.8853 17.227 31.4166L17.2854 31.4457C17.6791 31.6645 18.3062 31.6645 18.6854 31.4457C21.4854 29.8999 26.3854 28.2811 29.5645 27.8582L30.0458 27.7999C31.4458 27.6249 32.5833 26.3124 32.5833 24.9124Z" stroke="#2EC5CE" stroke-width="1.5" stroke-linecap="round" stroke-linejoin="round"/>
<path d="M18 8.50635V30.3813" stroke="#2EC5CE" stroke-width="1.5" stroke-linecap="round" stroke-linejoin="round"/>
<path d="M11.8021 12.8813H8.52087" stroke="#2EC5CE" stroke-width="1.5" stroke-linecap="round" stroke-linejoin="round"/>
<path d="M12.8959 17.2563H8.52087" stroke="#2EC5CE" stroke-width="1.5" stroke-linecap="round" stroke-linejoin="round"/>
</svg>
