<svg width="40" height="40" viewBox="0 0 40 40" fill="none" xmlns="http://www.w3.org/2000/svg">
<path d="M21.6412 5.24502L31.2287 9.50252C33.9912 10.7213 33.9912 12.7363 31.2287 13.955L21.6412 18.2125C20.5525 18.7 18.765 18.7 17.6762 18.2125L8.08872 13.955C5.32622 12.7363 5.32622 10.7213 8.08872 9.50252L17.6762 5.24502C18.765 4.75752 20.5525 4.75752 21.6412 5.24502Z" stroke="#288FED" stroke-width="1.5" stroke-linecap="round" stroke-linejoin="round"/>
<path d="M5.375 18.375C5.375 19.74 6.39875 21.3162 7.65 21.8687L18.6837 26.7762C19.5287 27.15 20.4875 27.15 21.3163 26.7762L32.35 21.8687C33.6013 21.3162 34.625 19.74 34.625 18.375" stroke="#288FED" stroke-width="1.5" stroke-linecap="round" stroke-linejoin="round"/>
<path d="M5.375 26.5C5.375 28.0113 6.26875 29.3762 7.65 29.9937L18.6837 34.9013C19.5287 35.275 20.4875 35.275 21.3163 34.9013L32.35 29.9937C33.7313 29.3762 34.625 28.0113 34.625 26.5" stroke="#288FED" stroke-width="1.5" stroke-linecap="round" stroke-linejoin="round"/>
</svg>
