<svg width="38" height="38" viewBox="0 0 38 38" fill="none" xmlns="http://www.w3.org/2000/svg">
<path d="M28.4684 17.0842V23.4175C28.4684 23.8292 28.4526 24.225 28.4051 24.605C28.0409 28.88 25.5234 31.0016 20.8843 31.0016H20.2509C19.8551 31.0016 19.4751 31.1917 19.2376 31.5083L17.3376 34.0417C16.4984 35.1658 15.1367 35.1658 14.2976 34.0417L12.3976 31.5083C12.1917 31.2392 11.7326 31.0016 11.3843 31.0016H10.7509C5.70009 31.0016 3.16675 29.7508 3.16675 23.4175V17.0842C3.16675 12.445 5.30426 9.92751 9.56343 9.56335C9.94343 9.51585 10.3393 9.5 10.7509 9.5H20.8843C25.9351 9.5 28.4684 12.0333 28.4684 17.0842Z" stroke="#F18200" stroke-width="1.5" stroke-miterlimit="10" stroke-linecap="round" stroke-linejoin="round"/>
<path d="M34.8016 10.7509V17.0843C34.8016 21.7393 32.6641 24.2409 28.4049 24.6051C28.4524 24.2251 28.4682 23.8293 28.4682 23.4176V17.0843C28.4682 12.0334 25.9349 9.50008 20.8841 9.50008H10.7507C10.3391 9.50008 9.94323 9.51593 9.56323 9.56343C9.9274 5.30426 12.4449 3.16675 17.0841 3.16675H27.2174C32.2682 3.16675 34.8016 5.70009 34.8016 10.7509Z" stroke="#F18200" stroke-width="1.5" stroke-miterlimit="10" stroke-linecap="round" stroke-linejoin="round"/>
<path d="M21.3678 20.9792H21.382" stroke="#F18200" stroke-width="2" stroke-linecap="round" stroke-linejoin="round"/>
<path d="M15.8263 20.9792H15.8405" stroke="#F18200" stroke-width="2" stroke-linecap="round" stroke-linejoin="round"/>
<path d="M10.2845 20.9792H10.2988" stroke="#F18200" stroke-width="2" stroke-linecap="round" stroke-linejoin="round"/>
</svg>
