<svg width="19" height="19" viewBox="0 0 19 19" fill="none" xmlns="http://www.w3.org/2000/svg">
    <path d="M2.409 12.338c-.642-.69-.963-1.035-.948-1.45.015-.413.36-.734 1.05-1.376L8.38 4.055c.384-.357.576-.535.818-.6.243-.063.498-.002 1.008.119l3.215.765c.629.15.943.225 1.15.447.205.221.257.54.36 1.178l.53 3.262c.085.518.127.776.046 1.013-.082.238-.274.416-.657.773L8.98 16.468c-.69.642-1.036.963-1.45.948-.414-.015-.735-.36-1.377-1.05L2.41 12.338z" stroke="#9499A9"/>
    <circle cx="11.24" cy="7.882" r=".792" transform="rotate(-42.92 11.24 7.882)" fill="#9499A9" stroke="#9499A9"/>
</svg>
