<svg width="40" height="40" viewBox="0 0 40 40" fill="none" xmlns="http://www.w3.org/2000/svg">
<path d="M19.1225 22.8833C21.6444 22.8833 23.6888 20.7865 23.6888 18.1999C23.6888 15.6134 21.6444 13.5166 19.1225 13.5166C16.6007 13.5166 14.5563 15.6134 14.5563 18.1999C14.5563 20.7865 16.6007 22.8833 19.1225 22.8833Z" stroke="#CB3036" stroke-width="1.5" stroke-linecap="round" stroke-linejoin="round"/>
<path d="M27.5562 33.6665C27.5562 29.7832 23.7862 26.6165 19.1225 26.6165C14.4587 26.6165 10.6887 29.7665 10.6887 33.6665" stroke="#CB3036" stroke-width="1.5" stroke-linecap="round" stroke-linejoin="round"/>
<path d="M34.625 20.8333C34.625 29.5833 27.7188 36.6667 19.1875 36.6667C10.6562 36.6667 3.75 29.5833 3.75 20.8333C3.75 12.0833 10.6562 5 19.1875 5C21.3162 5 23.3475 5.43332 25.2 6.23332C24.9888 6.89998 24.875 7.6 24.875 8.33333C24.875 9.58333 25.2163 10.7667 25.8175 11.7667C26.1425 12.3333 26.565 12.85 27.0525 13.2833C28.19 14.35 29.7013 15 31.375 15C32.09 15 32.7725 14.8833 33.4062 14.65C34.1862 16.55 34.625 18.65 34.625 20.8333Z" stroke="#CB3036" stroke-width="1.5" stroke-linecap="round" stroke-linejoin="round"/>
<path d="M37.875 8.33341C37.875 8.86675 37.81 9.3834 37.68 9.8834C37.5337 10.5501 37.2737 11.2001 36.9325 11.7667C36.1525 13.1167 34.9013 14.1667 33.4062 14.65C32.7725 14.8834 32.09 15.0001 31.375 15.0001C29.7013 15.0001 28.19 14.35 27.0525 13.2834C26.565 12.85 26.1425 12.3334 25.8175 11.7667C25.2163 10.7667 24.875 9.58341 24.875 8.33341C24.875 7.60008 24.9888 6.90006 25.2 6.2334C25.5088 5.26673 26.0288 4.40012 26.7113 3.68345C27.8975 2.43345 29.555 1.66675 31.375 1.66675C33.2925 1.66675 35.0313 2.51678 36.2013 3.88344C37.2413 5.06678 37.875 6.63341 37.875 8.33341Z" stroke="#CB3036" stroke-width="1.5" stroke-miterlimit="10" stroke-linecap="round" stroke-linejoin="round"/>
<path d="M33.7962 8.30005H28.9537" stroke="#CB3036" stroke-width="1.5" stroke-miterlimit="10" stroke-linecap="round" stroke-linejoin="round"/>
<path d="M31.375 5.8667V10.85" stroke="#CB3036" stroke-width="1.5" stroke-miterlimit="10" stroke-linecap="round" stroke-linejoin="round"/>
</svg>
