<svg width="305" height="128" viewBox="0 0 305 128" fill="none" xmlns="http://www.w3.org/2000/svg">
<path fill-rule="evenodd" clip-rule="evenodd" d="M46 55C51.523 55 56 59.477 56 65C56 70.523 51.523 75 46 75C40.477 75 36 70.523 36 65C36 59.477 40.477 55 46 55Z" fill="#C3CFD6"/>
<path fill-rule="evenodd" clip-rule="evenodd" d="M140 108C134.477 108 130 112.477 130 118C130 123.522 134.477 128 140 128C145.523 128 150 123.522 150 118C150 112.477 145.523 108 140 108Z" fill="#C3CFD6"/>
<path fill-rule="evenodd" clip-rule="evenodd" d="M184 57C179.581 57 176 60.5819 176 64.9997C176 69.4181 179.581 73 184 73C188.419 73 192 69.4181 192 64.9997C192 60.5819 188.419 57 184 57Z" stroke="#C3CFD6" stroke-width="2"/>
<path fill-rule="evenodd" clip-rule="evenodd" d="M227 2C222.581 2 219 5.58189 219 9.99965C219 14.4181 222.581 18 227 18C231.419 18 235 14.4181 235 9.99965C235 5.58189 231.419 2 227 2Z" stroke="#C3CFD6" stroke-width="2"/>
<path fill-rule="evenodd" clip-rule="evenodd" d="M9 57C13.4186 57 17 60.5819 17 64.9997C17 69.4181 13.4186 73 9 73C4.58138 73 1 69.4181 1 64.9997C1 60.5819 4.58138 57 9 57Z" stroke="#C3CFD6" stroke-width="2"/>
<path fill-rule="evenodd" clip-rule="evenodd" d="M48 110C43.5814 110 40 113.582 40 118C40 122.419 43.5814 126 48 126C52.4186 126 56 122.419 56 118C56 113.582 52.4186 110 48 110Z" stroke="#C3CFD6" stroke-width="2"/>
<path fill-rule="evenodd" clip-rule="evenodd" d="M279.5 108H186.102C180.523 108 176 112.477 176 118C176 123.522 180.523 128 186.102 128H279.5C285.079 128 289.602 123.522 289.602 118C289.602 112.477 285.079 108 279.5 108Z" fill="#E0E8EC"/>
<path fill-rule="evenodd" clip-rule="evenodd" d="M340.898 55H229.102C223.523 55 219 59.477 219 65C219 70.5224 223.523 75 229.102 75H340.898C346.477 75 351 70.5224 351 65C351 59.477 346.477 55 340.898 55Z" fill="#E0E8EC"/>
<path fill-rule="evenodd" clip-rule="evenodd" d="M84.091 55H100.91C106.482 55 111 59.477 111 65C111 70.5224 106.482 75 100.91 75H84.091C78.5177 75 74 70.5224 74 65C74 59.477 78.5177 55 84.091 55Z" fill="#E0E8EC"/>
<path fill-rule="evenodd" clip-rule="evenodd" d="M97.7999 108H84.2001C78.5666 108 74 112.477 74 118C74 123.522 78.5666 128 84.2001 128H97.7999C103.433 128 108 123.522 108 118C108 112.477 103.433 108 97.7999 108Z" fill="#E0E8EC"/>
<path fill-rule="evenodd" clip-rule="evenodd" d="M183 0C177.477 0 173 4.477 173 10C173 15.5224 177.477 20 183 20C188.523 20 193 15.5224 193 10C193 4.477 188.523 0 183 0Z" fill="#C3CFD6"/>
<path fill-rule="evenodd" clip-rule="evenodd" d="M139.3 0H84.2001C78.5666 0 74 4.47697 74 10C74 15.5224 78.5666 20 84.2001 20H139.3C144.933 20 149.5 15.5224 149.5 10C149.5 4.47697 144.933 0 139.3 0Z" fill="#E0E8EC"/>
</svg>
