<svg width="472" height="399" viewBox="0 0 472 399" fill="none" xmlns="http://www.w3.org/2000/svg">
    <path
        d="M469.675.032a1.785 1.785 0 0 1 1.646 1.1 1.774 1.774 0 0 1-.386 1.939 1.786 1.786 0 0 1-2.742-.27 1.78 1.78 0 0 1 1.482-2.768zM418.529 1.796a1.781 1.781 0 0 0 3.563 0 1.781 1.781 0 0 0-3.563 0zM469.675 49.327a1.784 1.784 0 0 1 1.646 1.098 1.775 1.775 0 0 1-.386 1.94 1.787 1.787 0 0 1-2.742-.27 1.78 1.78 0 0 1 1.482-2.768z"
        fill="#B7C1C1" />
    <path
        d="M469.675.032a1.785 1.785 0 0 1 1.646 1.1 1.774 1.774 0 0 1-.386 1.939 1.786 1.786 0 0 1-2.742-.27 1.78 1.78 0 0 1 1.482-2.768zM418.529 1.796a1.781 1.781 0 0 0 3.563 0 1.781 1.781 0 0 0-3.563 0zM469.675 98.638a1.785 1.785 0 0 1 1.646 1.098 1.776 1.776 0 0 1-.386 1.94 1.788 1.788 0 0 1-1.942.386 1.782 1.782 0 0 1-1.1-1.645 1.779 1.779 0 0 1 1.782-1.78zM469.675 49.327a1.784 1.784 0 0 1 1.646 1.098 1.775 1.775 0 0 1-.386 1.94 1.787 1.787 0 0 1-2.742-.27 1.78 1.78 0 0 1 1.482-2.768zM420.295 98.638a1.783 1.783 0 0 1 1.657 1.088 1.78 1.78 0 0 1-2.32 2.337 1.774 1.774 0 0 1-1.104-1.646 1.778 1.778 0 0 1 1.767-1.78zM469.675 147.963a1.783 1.783 0 0 1 1.746 2.133 1.779 1.779 0 0 1-1.408 1.394 1.785 1.785 0 0 1-1.827-.77 1.775 1.775 0 0 1-.293-.992 1.759 1.759 0 0 1 .523-1.253 1.76 1.76 0 0 1 1.259-.512z"
        fill="#B7C1C1" />
    <path
        d="M469.675 98.638a1.785 1.785 0 0 1 1.646 1.098 1.776 1.776 0 0 1-.386 1.94 1.788 1.788 0 0 1-1.942.386 1.782 1.782 0 0 1-1.1-1.645 1.779 1.779 0 0 1 1.782-1.78zM420.295 98.638a1.783 1.783 0 0 1 1.657 1.088 1.78 1.78 0 0 1-2.32 2.337 1.774 1.774 0 0 1-1.104-1.646 1.778 1.778 0 0 1 1.767-1.78zM418.529 149.742a1.781 1.781 0 1 0 3.564-.002 1.781 1.781 0 0 0-3.564.002zM469.675 197.273a1.785 1.785 0 0 1 1.747 2.127 1.775 1.775 0 0 1-1.4 1.398 1.778 1.778 0 0 1-1.829-.756 1.781 1.781 0 0 1 1.482-2.769zM469.675 147.963a1.783 1.783 0 0 1 1.746 2.133 1.779 1.779 0 0 1-1.408 1.394 1.785 1.785 0 0 1-1.827-.77 1.775 1.775 0 0 1-.293-.992 1.759 1.759 0 0 1 .523-1.253 1.76 1.76 0 0 1 1.259-.512z"
        fill="#B7C1C1" />
    <path
        d="M418.529 149.742a1.781 1.781 0 1 0 3.564-.002 1.781 1.781 0 0 0-3.564.002zM420.295 197.273a1.782 1.782 0 0 1 1.28 3.033 1.783 1.783 0 0 1-3.047-1.253 1.779 1.779 0 0 1 1.767-1.78zM469.675 246.584a1.781 1.781 0 0 1 1.26 3.038 1.78 1.78 0 0 1-1.942.386 1.782 1.782 0 0 1-1.1-1.644 1.781 1.781 0 0 1 1.782-1.78zM469.675 197.273a1.785 1.785 0 0 1 1.747 2.127 1.775 1.775 0 0 1-1.4 1.398 1.778 1.778 0 0 1-1.829-.756 1.781 1.781 0 0 1 1.482-2.769z"
        fill="#B7C1C1" />
    <path
        d="M420.295 197.273a1.782 1.782 0 0 1 1.28 3.033 1.783 1.783 0 0 1-3.047-1.253 1.779 1.779 0 0 1 1.767-1.78zM418.529 248.364a1.78 1.78 0 0 0 1.781 1.779 1.78 1.78 0 1 0-1.781-1.779zM469.675 295.894a1.781 1.781 0 0 1 1.26 3.038 1.78 1.78 0 0 1-1.942.386 1.786 1.786 0 0 1-.8-.655 1.781 1.781 0 0 1 1.482-2.769zM469.675 246.584a1.781 1.781 0 0 1 1.26 3.038 1.78 1.78 0 0 1-1.942.386 1.782 1.782 0 0 1-1.1-1.644 1.781 1.781 0 0 1 1.782-1.78z"
        fill="#B7C1C1" />
    <path
        d="M418.529 248.364a1.78 1.78 0 0 0 1.781 1.779 1.78 1.78 0 1 0-1.781-1.779zM418.528 297.69a1.781 1.781 0 1 0 3.562-.002 1.781 1.781 0 0 0-3.562.002zM469.675 345.235a1.785 1.785 0 0 1 1.747 2.127 1.777 1.777 0 0 1-2.429 1.297 1.774 1.774 0 0 1-1.1-1.644 1.769 1.769 0 0 1 .522-1.258 1.771 1.771 0 0 1 1.26-.522zM469.675 295.894a1.781 1.781 0 0 1 1.26 3.038 1.78 1.78 0 0 1-1.942.386 1.786 1.786 0 0 1-.8-.655 1.781 1.781 0 0 1 1.482-2.769z"
        fill="#B7C1C1" />
    <path
        d="M418.528 297.69a1.781 1.781 0 1 0 3.562-.002 1.781 1.781 0 0 0-3.562.002zM418.528 347a1.78 1.78 0 0 0 1.782 1.779 1.78 1.78 0 1 0 0-3.559c-.984 0-1.782.797-1.782 1.78zM469.675 394.531a1.781 1.781 0 0 1 1.26 3.038 1.78 1.78 0 0 1-1.942.386 1.782 1.782 0 0 1-.964-2.325 1.787 1.787 0 0 1 .964-.964c.216-.089.448-.135.682-.135zM469.675 345.235a1.785 1.785 0 0 1 1.747 2.127 1.777 1.777 0 0 1-2.429 1.297 1.774 1.774 0 0 1-1.1-1.644 1.769 1.769 0 0 1 .522-1.258 1.771 1.771 0 0 1 1.26-.522z"
        fill="#B7C1C1" />
    <path
        d="M418.528 347a1.78 1.78 0 0 0 1.782 1.779 1.78 1.78 0 1 0 0-3.559c-.984 0-1.782.797-1.782 1.78zM418.528 396.31a1.78 1.78 0 0 0 1.782 1.779 1.78 1.78 0 1 0 0-3.559c-.984 0-1.782.797-1.782 1.78zM469.675 394.531a1.781 1.781 0 0 1 1.26 3.038 1.78 1.78 0 0 1-1.942.386 1.782 1.782 0 0 1-.964-2.325 1.787 1.787 0 0 1 .964-.964c.216-.089.448-.135.682-.135z"
        fill="#B7C1C1" />
    <path
        d="M418.528 396.31a1.78 1.78 0 0 0 1.782 1.779 1.78 1.78 0 1 0 0-3.559c-.984 0-1.782.797-1.782 1.78zM418.529 1.796a1.781 1.781 0 0 0 3.563 0 1.781 1.781 0 0 0-3.563 0zM369.149 1.796a1.781 1.781 0 0 0 3.563 0 1.781 1.781 0 0 0-3.563 0z"
        fill="#B7C1C1" />
    <path
        d="M418.529 1.796a1.781 1.781 0 0 0 3.563 0 1.781 1.781 0 0 0-3.563 0zM369.149 1.796a1.781 1.781 0 0 0 3.563 0 1.781 1.781 0 0 0-3.563 0zM369.149 51.107a1.781 1.781 0 0 0 3.563 0 1.781 1.781 0 0 0-3.563 0zM420.295 98.638a1.783 1.783 0 0 1 1.657 1.088 1.78 1.78 0 0 1-2.32 2.337 1.774 1.774 0 0 1-1.104-1.646 1.777 1.777 0 0 1 .512-1.257 1.779 1.779 0 0 1 1.255-.522z"
        fill="#B7C1C1" />
    <path
        d="M369.149 51.107a1.781 1.781 0 0 0 3.563 0 1.781 1.781 0 0 0-3.563 0zM370.93 98.638a1.783 1.783 0 0 1 1.748 2.127 1.783 1.783 0 0 1-3.229.641 1.778 1.778 0 0 1 1.481-2.768zM418.529 149.742a1.781 1.781 0 1 0 3.564-.002 1.781 1.781 0 0 0-3.564.002zM420.295 98.638a1.783 1.783 0 0 1 1.657 1.088 1.78 1.78 0 0 1-2.32 2.337 1.774 1.774 0 0 1-1.104-1.646 1.777 1.777 0 0 1 .512-1.257 1.779 1.779 0 0 1 1.255-.522z"
        fill="#B7C1C1" />
    <path
        d="M370.93 98.638a1.783 1.783 0 0 1 1.748 2.127 1.783 1.783 0 0 1-3.229.641 1.778 1.778 0 0 1 1.481-2.768zM369.149 149.742a1.781 1.781 0 1 0 3.564-.002 1.781 1.781 0 0 0-3.564.002zM420.295 197.273a1.782 1.782 0 0 1 1.28 3.033 1.783 1.783 0 1 1-1.96-2.897c.216-.09.447-.136.68-.136zM418.529 149.742a1.781 1.781 0 1 0 3.564-.002 1.781 1.781 0 0 0-3.564.002z"
        fill="#B7C1C1" />
    <path
        d="M369.149 149.742a1.781 1.781 0 1 0 3.564-.002 1.781 1.781 0 0 0-3.564.002zM370.93 197.273a1.787 1.787 0 0 1 1.646 1.099 1.774 1.774 0 0 1-.386 1.939 1.776 1.776 0 0 1-2.741-.269 1.778 1.778 0 0 1 .222-2.248 1.784 1.784 0 0 1 1.259-.521zM418.529 248.364a1.78 1.78 0 0 0 1.781 1.779 1.78 1.78 0 1 0-1.781-1.779zM420.295 197.273a1.782 1.782 0 0 1 1.28 3.033 1.783 1.783 0 1 1-1.96-2.897c.216-.09.447-.136.68-.136z"
        fill="#B7C1C1" />
    <path
        d="M370.93 197.273a1.787 1.787 0 0 1 1.646 1.099 1.774 1.774 0 0 1-.386 1.939 1.776 1.776 0 0 1-2.741-.269 1.778 1.778 0 0 1 .222-2.248 1.784 1.784 0 0 1 1.259-.521zM369.149 248.364a1.78 1.78 0 0 0 1.781 1.779 1.78 1.78 0 1 0-1.781-1.779zM418.528 297.69a1.781 1.781 0 1 0 3.562-.002 1.781 1.781 0 0 0-3.562.002zM418.529 248.364a1.78 1.78 0 0 0 1.781 1.779 1.78 1.78 0 1 0-1.781-1.779z"
        fill="#B7C1C1" />
    <path
        d="M369.149 248.364a1.78 1.78 0 0 0 1.781 1.779 1.78 1.78 0 1 0-1.781-1.779zM369.149 297.69a1.781 1.781 0 1 0 3.564-.002 1.781 1.781 0 0 0-3.564.002zM418.528 347a1.78 1.78 0 0 0 1.782 1.779 1.78 1.78 0 1 0 0-3.559c-.984 0-1.782.797-1.782 1.78zM418.528 297.69a1.781 1.781 0 1 0 3.562-.002 1.781 1.781 0 0 0-3.562.002z"
        fill="#B7C1C1" />
    <path
        d="M369.149 297.69a1.781 1.781 0 1 0 3.564-.002 1.781 1.781 0 0 0-3.564.002zM369.149 347a1.78 1.78 0 0 0 1.781 1.779 1.78 1.78 0 1 0-1.781-1.779zM418.528 396.31a1.78 1.78 0 0 0 1.782 1.779 1.78 1.78 0 1 0 0-3.559c-.984 0-1.782.797-1.782 1.78zM418.528 347a1.78 1.78 0 0 0 1.782 1.779 1.78 1.78 0 1 0 0-3.559c-.984 0-1.782.797-1.782 1.78z"
        fill="#B7C1C1" />
    <path
        d="M369.149 347a1.78 1.78 0 0 0 1.781 1.779 1.78 1.78 0 1 0-1.781-1.779zM369.149 396.31a1.78 1.78 0 0 0 1.781 1.779 1.78 1.78 0 1 0-1.781-1.779zM418.528 396.31a1.78 1.78 0 0 0 1.782 1.779 1.78 1.78 0 1 0 0-3.559c-.984 0-1.782.797-1.782 1.78z"
        fill="#B7C1C1" />
    <path
        d="M369.149 396.31a1.78 1.78 0 0 0 1.781 1.779 1.78 1.78 0 1 0-1.781-1.779zM369.149 1.796a1.781 1.781 0 0 0 3.563 0 1.781 1.781 0 0 0-3.563 0zM319.784 1.796a1.781 1.781 0 0 0 3.564 0 1.781 1.781 0 0 0-3.564 0zM369.149 51.107a1.781 1.781 0 0 0 3.563 0 1.781 1.781 0 0 0-3.563 0z"
        fill="#B7C1C1" />
    <path
        d="M369.149 1.796a1.781 1.781 0 0 0 3.563 0 1.781 1.781 0 0 0-3.563 0zM319.784 1.796a1.781 1.781 0 0 0 3.564 0 1.781 1.781 0 0 0-3.564 0zM319.784 51.107a1.781 1.781 0 0 0 3.564 0 1.781 1.781 0 0 0-3.564 0zM370.93 98.638a1.783 1.783 0 0 1 1.748 2.127 1.783 1.783 0 0 1-3.229.641 1.778 1.778 0 0 1 1.481-2.768zM369.149 51.107a1.781 1.781 0 0 0 3.563 0 1.781 1.781 0 0 0-3.563 0zM418.931 51.107a1.781 1.781 0 0 0 3.563 0 1.781 1.781 0 0 0-3.563 0z"
        fill="#B7C1C1" />
    <path d="M418.931 51.107a1.781 1.781 0 0 0 3.563 0 1.781 1.781 0 0 0-3.563 0z" fill="#B7C1C1" />
    <path d="M418.931 51.107a1.781 1.781 0 0 0 3.563 0 1.781 1.781 0 0 0-3.563 0z" fill="#B7C1C1" />
    <path
        d="M418.931 51.107a1.781 1.781 0 0 0 3.563 0 1.781 1.781 0 0 0-3.563 0zM319.784 51.107a1.781 1.781 0 0 0 3.564 0 1.781 1.781 0 0 0-3.564 0zM321.596 98.638a1.783 1.783 0 0 1 1.748 2.127 1.783 1.783 0 0 1-3.229.641 1.778 1.778 0 0 1 1.481-2.768zM369.149 149.742a1.781 1.781 0 1 0 3.564-.002 1.781 1.781 0 0 0-3.564.002zM370.93 98.638a1.783 1.783 0 0 1 1.748 2.127 1.783 1.783 0 0 1-3.229.641 1.778 1.778 0 0 1 1.481-2.768z"
        fill="#B7C1C1" />
    <path
        d="M321.596 98.638a1.783 1.783 0 0 1 1.748 2.127 1.783 1.783 0 0 1-3.229.641 1.778 1.778 0 0 1 1.481-2.768zM319.784 149.742a1.781 1.781 0 1 0 3.562-.002 1.781 1.781 0 0 0-3.562.002zM370.93 197.273a1.787 1.787 0 0 1 1.646 1.099 1.774 1.774 0 0 1-.386 1.939 1.776 1.776 0 0 1-2.741-.269 1.778 1.778 0 0 1 .222-2.248 1.784 1.784 0 0 1 1.259-.521zM369.149 149.742a1.781 1.781 0 1 0 3.564-.002 1.781 1.781 0 0 0-3.564.002z"
        fill="#B7C1C1" />
    <path
        d="M319.784 149.742a1.781 1.781 0 1 0 3.562-.002 1.781 1.781 0 0 0-3.562.002zM321.596 197.273a1.787 1.787 0 0 1 1.646 1.099 1.782 1.782 0 0 1-.386 1.939 1.777 1.777 0 0 1-1.942.386 1.778 1.778 0 0 1-.578-2.903 1.788 1.788 0 0 1 1.26-.521zM369.149 248.364a1.78 1.78 0 0 0 1.781 1.779 1.78 1.78 0 1 0-1.781-1.779zM370.93 197.273a1.787 1.787 0 0 1 1.646 1.099 1.774 1.774 0 0 1-.386 1.939 1.776 1.776 0 0 1-2.741-.269 1.778 1.778 0 0 1 .222-2.248 1.784 1.784 0 0 1 1.259-.521z"
        fill="#B7C1C1" />
    <path
        d="M321.596 197.273a1.787 1.787 0 0 1 1.646 1.099 1.782 1.782 0 0 1-.386 1.939 1.777 1.777 0 0 1-1.942.386 1.778 1.778 0 0 1-.578-2.903 1.788 1.788 0 0 1 1.26-.521zM319.784 248.364a1.78 1.78 0 0 0 1.782 1.779 1.78 1.78 0 1 0 0-3.559c-.984 0-1.782.797-1.782 1.78zM369.149 297.69a1.781 1.781 0 1 0 3.564-.002 1.781 1.781 0 0 0-3.564.002zM369.149 248.364a1.78 1.78 0 0 0 1.781 1.779 1.78 1.78 0 1 0-1.781-1.779z"
        fill="#B7C1C1" />
    <path
        d="M319.784 248.364a1.78 1.78 0 0 0 1.782 1.779 1.78 1.78 0 1 0 0-3.559c-.984 0-1.782.797-1.782 1.78zM319.784 297.69a1.781 1.781 0 1 0 3.562-.002 1.781 1.781 0 0 0-3.562.002zM369.149 347a1.78 1.78 0 0 0 1.781 1.779 1.78 1.78 0 1 0-1.781-1.779zM369.149 297.69a1.781 1.781 0 1 0 3.564-.002 1.781 1.781 0 0 0-3.564.002z"
        fill="#B7C1C1" />
    <path
        d="M319.784 297.69a1.781 1.781 0 1 0 3.562-.002 1.781 1.781 0 0 0-3.562.002zM319.784 347a1.78 1.78 0 0 0 1.782 1.779 1.78 1.78 0 1 0 0-3.559c-.984 0-1.782.797-1.782 1.78zM369.149 396.31a1.78 1.78 0 0 0 1.781 1.779 1.78 1.78 0 1 0-1.781-1.779zM369.149 347a1.78 1.78 0 0 0 1.781 1.779 1.78 1.78 0 1 0-1.781-1.779z"
        fill="#B7C1C1" />
    <path
        d="M319.784 347a1.78 1.78 0 0 0 1.782 1.779 1.78 1.78 0 1 0 0-3.559c-.984 0-1.782.797-1.782 1.78zM319.784 396.31a1.78 1.78 0 0 0 1.782 1.779 1.78 1.78 0 1 0 0-3.559c-.984 0-1.782.797-1.782 1.78zM369.149 396.31a1.78 1.78 0 0 0 1.781 1.779 1.78 1.78 0 1 0-1.781-1.779z"
        fill="#B7C1C1" />
    <path
        d="M319.784 396.31a1.78 1.78 0 0 0 1.782 1.779 1.78 1.78 0 1 0 0-3.559c-.984 0-1.782.797-1.782 1.78zM319.784 1.796a1.781 1.781 0 0 0 3.564 0 1.781 1.781 0 0 0-3.564 0zM270.42 1.796a1.781 1.781 0 0 0 3.563 0 1.78 1.78 0 0 0-3.563 0zM319.784 51.107a1.781 1.781 0 0 0 3.564 0 1.781 1.781 0 0 0-3.564 0z"
        fill="#B7C1C1" />
    <path
        d="M319.784 1.796a1.781 1.781 0 0 0 3.564 0 1.781 1.781 0 0 0-3.564 0zM270.42 1.796a1.781 1.781 0 0 0 3.563 0 1.78 1.78 0 0 0-3.563 0zM270.42 51.107a1.781 1.781 0 0 0 3.563 0 1.78 1.78 0 0 0-3.563 0zM321.596 98.638a1.783 1.783 0 0 1 1.748 2.127 1.783 1.783 0 0 1-3.229.641 1.778 1.778 0 0 1 1.481-2.768zM319.784 51.107a1.781 1.781 0 0 0 3.564 0 1.781 1.781 0 0 0-3.564 0z"
        fill="#B7C1C1" />
    <path
        d="M270.42 51.107a1.781 1.781 0 0 0 3.563 0 1.78 1.78 0 0 0-3.563 0zM272.202 98.638a1.782 1.782 0 0 1 1.747 2.127 1.783 1.783 0 0 1-3.229.641 1.778 1.778 0 0 1 1.482-2.768zM319.784 149.742a1.781 1.781 0 1 0 3.562-.002 1.781 1.781 0 0 0-3.562.002zM321.596 98.638a1.783 1.783 0 0 1 1.748 2.127 1.783 1.783 0 0 1-3.229.641 1.778 1.778 0 0 1 1.481-2.768z"
        fill="#B7C1C1" />
    <path
        d="M272.202 98.638a1.782 1.782 0 0 1 1.747 2.127 1.783 1.783 0 0 1-3.229.641 1.778 1.778 0 0 1 1.482-2.768zM270.42 149.742a1.781 1.781 0 1 0 3.562-.002 1.781 1.781 0 0 0-3.562.002zM321.596 197.273a1.787 1.787 0 0 1 1.646 1.099 1.782 1.782 0 0 1-.386 1.939 1.777 1.777 0 0 1-1.942.386 1.778 1.778 0 0 1-.578-2.903 1.788 1.788 0 0 1 1.26-.521zM319.784 149.742a1.781 1.781 0 1 0 3.562-.002 1.781 1.781 0 0 0-3.562.002z"
        fill="#B7C1C1" />
    <path
        d="M270.42 149.742a1.781 1.781 0 1 0 3.562-.002 1.781 1.781 0 0 0-3.562.002zM272.202 197.273a1.786 1.786 0 0 1 1.645 1.099 1.774 1.774 0 0 1-.386 1.939 1.776 1.776 0 0 1-2.741-.269 1.778 1.778 0 0 1 .222-2.248 1.785 1.785 0 0 1 1.26-.521zM319.784 248.364a1.78 1.78 0 0 0 1.782 1.779 1.78 1.78 0 1 0 0-3.559c-.984 0-1.782.797-1.782 1.78zM321.596 197.273a1.787 1.787 0 0 1 1.646 1.099 1.782 1.782 0 0 1-.386 1.939 1.777 1.777 0 0 1-1.942.386 1.778 1.778 0 0 1-.578-2.903 1.788 1.788 0 0 1 1.26-.521z"
        fill="#B7C1C1" />
    <path
        d="M272.202 197.273a1.786 1.786 0 0 1 1.645 1.099 1.774 1.774 0 0 1-.386 1.939 1.776 1.776 0 0 1-2.741-.269 1.778 1.778 0 0 1 .222-2.248 1.785 1.785 0 0 1 1.26-.521zM270.42 248.364a1.78 1.78 0 0 0 1.782 1.779 1.78 1.78 0 1 0 0-3.559c-.984 0-1.782.797-1.782 1.78zM319.784 297.69a1.781 1.781 0 1 0 3.562-.002 1.781 1.781 0 0 0-3.562.002zM319.784 248.364a1.78 1.78 0 0 0 1.782 1.779 1.78 1.78 0 1 0 0-3.559c-.984 0-1.782.797-1.782 1.78z"
        fill="#B7C1C1" />
    <path
        d="M270.42 248.364a1.78 1.78 0 0 0 1.782 1.779 1.78 1.78 0 1 0 0-3.559c-.984 0-1.782.797-1.782 1.78zM270.42 297.69a1.781 1.781 0 1 0 3.562-.002 1.781 1.781 0 0 0-3.562.002zM319.784 347a1.78 1.78 0 0 0 1.782 1.779 1.78 1.78 0 1 0 0-3.559c-.984 0-1.782.797-1.782 1.78zM319.784 297.69a1.781 1.781 0 1 0 3.562-.002 1.781 1.781 0 0 0-3.562.002z"
        fill="#B7C1C1" />
    <path
        d="M270.42 297.69a1.781 1.781 0 1 0 3.562-.002 1.781 1.781 0 0 0-3.562.002zM270.42 347a1.78 1.78 0 0 0 1.782 1.779 1.78 1.78 0 1 0 0-3.559c-.984 0-1.782.797-1.782 1.78zM319.784 396.31a1.78 1.78 0 0 0 1.782 1.779 1.78 1.78 0 1 0 0-3.559c-.984 0-1.782.797-1.782 1.78zM319.784 347a1.78 1.78 0 0 0 1.782 1.779 1.78 1.78 0 1 0 0-3.559c-.984 0-1.782.797-1.782 1.78z"
        fill="#B7C1C1" />
    <path
        d="M270.42 347a1.78 1.78 0 0 0 1.782 1.779 1.78 1.78 0 1 0 0-3.559c-.984 0-1.782.797-1.782 1.78zM270.42 396.31a1.78 1.78 0 0 0 1.782 1.779 1.78 1.78 0 1 0 0-3.559c-.984 0-1.782.797-1.782 1.78zM319.784 396.31a1.78 1.78 0 0 0 1.782 1.779 1.78 1.78 0 1 0 0-3.559c-.984 0-1.782.797-1.782 1.78z"
        fill="#B7C1C1" />
    <path
        d="M270.42 396.31a1.78 1.78 0 0 0 1.782 1.779 1.78 1.78 0 1 0 0-3.559c-.984 0-1.782.797-1.782 1.78zM270.42 1.796a1.781 1.781 0 0 0 3.563 0 1.78 1.78 0 0 0-3.563 0zM222.821.032a1.785 1.785 0 0 1 1.646 1.1 1.774 1.774 0 0 1-.386 1.939 1.783 1.783 0 0 1-3.042-1.259 1.78 1.78 0 0 1 1.782-1.78zM270.42 51.107a1.781 1.781 0 0 0 3.563 0 1.78 1.78 0 0 0-3.563 0z"
        fill="#B7C1C1" />
    <path
        d="M270.42 1.796a1.781 1.781 0 0 0 3.563 0 1.78 1.78 0 0 0-3.563 0zM222.821.032a1.785 1.785 0 0 1 1.646 1.1 1.774 1.774 0 0 1-.386 1.939 1.783 1.783 0 0 1-3.042-1.259 1.78 1.78 0 0 1 1.782-1.78zM222.821 49.327a1.785 1.785 0 0 1 1.646 1.099 1.775 1.775 0 0 1-.386 1.94 1.783 1.783 0 0 1-3.042-1.26 1.78 1.78 0 0 1 1.782-1.78zM272.202 98.638a1.782 1.782 0 0 1 1.747 2.127 1.783 1.783 0 0 1-3.229.641 1.778 1.778 0 0 1 1.482-2.768zM270.42 51.107a1.781 1.781 0 0 0 3.563 0 1.78 1.78 0 0 0-3.563 0z"
        fill="#B7C1C1" />
    <path
        d="M222.821 49.327a1.785 1.785 0 0 1 1.646 1.099 1.775 1.775 0 0 1-.386 1.94 1.783 1.783 0 0 1-3.042-1.26 1.78 1.78 0 0 1 1.782-1.78zM222.821 98.638a1.785 1.785 0 0 1 1.646 1.098 1.776 1.776 0 0 1-.386 1.94 1.785 1.785 0 0 1-2.741-.27 1.779 1.779 0 0 1 1.481-2.768zM270.42 149.742a1.781 1.781 0 1 0 3.562-.002 1.781 1.781 0 0 0-3.562.002zM272.202 98.638a1.782 1.782 0 0 1 1.747 2.127 1.783 1.783 0 0 1-3.229.641 1.778 1.778 0 0 1 1.482-2.768z"
        fill="#B7C1C1" />
    <path
        d="M222.821 98.638a1.785 1.785 0 0 1 1.646 1.098 1.776 1.776 0 0 1-.386 1.94 1.785 1.785 0 0 1-2.741-.27 1.779 1.779 0 0 1 1.481-2.768zM222.821 147.962a1.781 1.781 0 0 1 1.254 3.044 1.78 1.78 0 0 1-3.035-1.279c0-.233.046-.464.135-.679a1.778 1.778 0 0 1 .965-.956c.217-.087.448-.132.681-.13zM272.202 197.273a1.786 1.786 0 0 1 1.645 1.099 1.774 1.774 0 0 1-.386 1.939 1.776 1.776 0 0 1-2.741-.269 1.778 1.778 0 0 1 .222-2.248 1.785 1.785 0 0 1 1.26-.521zM270.42 149.742a1.781 1.781 0 1 0 3.562-.002 1.781 1.781 0 0 0-3.562.002z"
        fill="#B7C1C1" />
    <path
        d="M222.821 147.962a1.781 1.781 0 0 1 1.254 3.044 1.78 1.78 0 0 1-3.035-1.279c0-.233.046-.464.135-.679a1.778 1.778 0 0 1 .965-.956c.217-.087.448-.132.681-.13zM222.821 197.273a1.785 1.785 0 0 1 1.747 2.127 1.775 1.775 0 0 1-1.399 1.398 1.78 1.78 0 1 1-.348-3.525zM270.42 248.364a1.78 1.78 0 0 0 1.782 1.779 1.78 1.78 0 1 0 0-3.559c-.984 0-1.782.797-1.782 1.78zM272.202 197.273a1.786 1.786 0 0 1 1.645 1.099 1.774 1.774 0 0 1-.386 1.939 1.776 1.776 0 0 1-2.741-.269 1.778 1.778 0 0 1 .222-2.248 1.785 1.785 0 0 1 1.26-.521z"
        fill="#B7C1C1" />
    <path
        d="M222.821 197.273a1.785 1.785 0 0 1 1.747 2.127 1.775 1.775 0 0 1-1.399 1.398 1.78 1.78 0 1 1-.348-3.525zM222.821 246.584a1.781 1.781 0 0 1 1.26 3.038 1.777 1.777 0 0 1-1.942.386 1.78 1.78 0 0 1 .682-3.424zM270.42 297.69a1.781 1.781 0 1 0 3.562-.002 1.781 1.781 0 0 0-3.562.002zM270.42 248.364a1.78 1.78 0 0 0 1.782 1.779 1.78 1.78 0 1 0 0-3.559c-.984 0-1.782.797-1.782 1.78z"
        fill="#B7C1C1" />
    <path
        d="M222.821 246.584a1.781 1.781 0 0 1 1.26 3.038 1.777 1.777 0 0 1-1.942.386 1.78 1.78 0 0 1 .682-3.424zM222.821 295.894a1.781 1.781 0 0 1 1.26 3.038 1.785 1.785 0 0 1-2.741-.27 1.773 1.773 0 0 1 .221-2.247 1.782 1.782 0 0 1 1.26-.521zM270.42 347a1.78 1.78 0 0 0 1.782 1.779 1.78 1.78 0 1 0 0-3.559c-.984 0-1.782.797-1.782 1.78zM270.42 297.69a1.781 1.781 0 1 0 3.562-.002 1.781 1.781 0 0 0-3.562.002z"
        fill="#B7C1C1" />
    <path
        d="M222.821 295.894a1.781 1.781 0 0 1 1.26 3.038 1.785 1.785 0 0 1-2.741-.27 1.773 1.773 0 0 1 .221-2.247 1.782 1.782 0 0 1 1.26-.521zM222.821 345.236a1.781 1.781 0 0 1 1.26 3.038 1.785 1.785 0 0 1-2.741-.27 1.779 1.779 0 0 1 1.481-2.768zM270.42 396.31a1.78 1.78 0 0 0 1.782 1.779 1.78 1.78 0 1 0 0-3.559c-.984 0-1.782.797-1.782 1.78zM270.42 347a1.78 1.78 0 0 0 1.782 1.779 1.78 1.78 0 1 0 0-3.559c-.984 0-1.782.797-1.782 1.78z"
        fill="#B7C1C1" />
    <path
        d="M222.821 345.236a1.781 1.781 0 0 1 1.26 3.038 1.785 1.785 0 0 1-2.741-.27 1.779 1.779 0 0 1 1.481-2.768zM222.821 394.53a1.781 1.781 0 0 1 1.26 3.038 1.777 1.777 0 0 1-1.942.386 1.78 1.78 0 0 1 .682-3.424zM270.42 396.31a1.78 1.78 0 0 0 1.782 1.779 1.78 1.78 0 1 0 0-3.559c-.984 0-1.782.797-1.782 1.78z"
        fill="#B7C1C1" />
    <path
        d="M222.821 394.53a1.781 1.781 0 0 1 1.26 3.038 1.777 1.777 0 0 1-1.942.386 1.78 1.78 0 0 1 .682-3.424zM222.821.032a1.785 1.785 0 0 1 1.646 1.1 1.774 1.774 0 0 1-.386 1.939 1.783 1.783 0 0 1-3.042-1.259 1.78 1.78 0 0 1 1.782-1.78zM171.675 1.796a1.781 1.781 0 0 0 3.563 0 1.781 1.781 0 0 0-3.563 0zM222.821 49.327a1.785 1.785 0 0 1 1.646 1.099 1.775 1.775 0 0 1-.386 1.94 1.783 1.783 0 0 1-3.042-1.26 1.78 1.78 0 0 1 1.782-1.78z"
        fill="#B7C1C1" />
    <path
        d="M222.821.032a1.785 1.785 0 0 1 1.646 1.1 1.774 1.774 0 0 1-.386 1.939 1.783 1.783 0 0 1-3.042-1.259 1.78 1.78 0 0 1 1.782-1.78zM171.675 1.796a1.781 1.781 0 0 0 3.563 0 1.781 1.781 0 0 0-3.563 0zM171.675 51.107a1.781 1.781 0 0 0 3.563 0 1.781 1.781 0 0 0-3.563 0zM222.821 98.638a1.785 1.785 0 0 1 1.646 1.098 1.776 1.776 0 0 1-.386 1.94 1.785 1.785 0 0 1-2.741-.27 1.779 1.779 0 0 1 1.481-2.768zM222.821 49.327a1.785 1.785 0 0 1 1.646 1.099 1.775 1.775 0 0 1-.386 1.94 1.783 1.783 0 0 1-3.042-1.26 1.78 1.78 0 0 1 1.782-1.78z"
        fill="#B7C1C1" />
    <path
        d="M171.675 51.107a1.781 1.781 0 0 0 3.563 0 1.781 1.781 0 0 0-3.563 0zM173.457 98.638a1.785 1.785 0 0 1 1.646 1.098 1.776 1.776 0 0 1-.386 1.94 1.788 1.788 0 0 1-1.942.386 1.782 1.782 0 0 1-1.1-1.645 1.779 1.779 0 0 1 1.782-1.78zM222.821 147.962a1.781 1.781 0 0 1 1.254 3.044 1.78 1.78 0 0 1-3.035-1.279c0-.233.046-.464.135-.679a1.778 1.778 0 0 1 .965-.956c.217-.087.448-.132.681-.13zM222.821 98.638a1.785 1.785 0 0 1 1.646 1.098 1.776 1.776 0 0 1-.386 1.94 1.785 1.785 0 0 1-2.741-.27 1.779 1.779 0 0 1 1.481-2.768z"
        fill="#B7C1C1" />
    <path
        d="M173.457 98.638a1.785 1.785 0 0 1 1.646 1.098 1.776 1.776 0 0 1-.386 1.94 1.788 1.788 0 0 1-1.942.386 1.782 1.782 0 0 1-1.1-1.645 1.779 1.779 0 0 1 1.782-1.78zM171.675 149.742a1.781 1.781 0 1 0 3.562-.002 1.781 1.781 0 0 0-3.562.002zM222.821 197.273a1.785 1.785 0 0 1 1.747 2.127 1.775 1.775 0 0 1-1.399 1.398 1.78 1.78 0 1 1-.348-3.525zM222.821 147.962a1.781 1.781 0 0 1 1.254 3.044 1.78 1.78 0 0 1-3.035-1.279c0-.233.046-.464.135-.679a1.778 1.778 0 0 1 .965-.956c.217-.087.448-.132.681-.13z"
        fill="#B7C1C1" />
    <path
        d="M171.675 149.742a1.781 1.781 0 1 0 3.562-.002 1.781 1.781 0 0 0-3.562.002zM173.457 197.273a1.785 1.785 0 0 1 1.747 2.127 1.782 1.782 0 1 1-3.007-1.606 1.785 1.785 0 0 1 1.26-.521zM222.821 246.584a1.781 1.781 0 0 1 1.26 3.038 1.777 1.777 0 0 1-1.942.386 1.78 1.78 0 0 1 .682-3.424zM222.821 197.273a1.785 1.785 0 0 1 1.747 2.127 1.775 1.775 0 0 1-1.399 1.398 1.78 1.78 0 1 1-.348-3.525z"
        fill="#B7C1C1" />
    <path
        d="M173.457 197.273a1.785 1.785 0 0 1 1.747 2.127 1.782 1.782 0 1 1-3.007-1.606 1.785 1.785 0 0 1 1.26-.521zM171.675 248.364a1.78 1.78 0 0 0 1.782 1.779 1.78 1.78 0 1 0 0-3.559c-.984 0-1.782.797-1.782 1.78zM222.821 295.894a1.781 1.781 0 0 1 1.26 3.038 1.785 1.785 0 0 1-2.741-.27 1.773 1.773 0 0 1 .221-2.247 1.782 1.782 0 0 1 1.26-.521zM222.821 246.584a1.781 1.781 0 0 1 1.26 3.038 1.777 1.777 0 0 1-1.942.386 1.78 1.78 0 0 1 .682-3.424z"
        fill="#B7C1C1" />
    <path
        d="M171.675 248.364a1.78 1.78 0 0 0 1.782 1.779 1.78 1.78 0 1 0 0-3.559c-.984 0-1.782.797-1.782 1.78zM171.675 297.69a1.781 1.781 0 1 0 3.562-.002 1.781 1.781 0 0 0-3.562.002zM222.821 345.236a1.781 1.781 0 0 1 1.26 3.038 1.785 1.785 0 0 1-2.741-.27 1.779 1.779 0 0 1 1.481-2.768zM222.821 295.894a1.781 1.781 0 0 1 1.26 3.038 1.785 1.785 0 0 1-2.741-.27 1.773 1.773 0 0 1 .221-2.247 1.782 1.782 0 0 1 1.26-.521z"
        fill="#B7C1C1" />
    <path
        d="M171.675 297.69a1.781 1.781 0 1 0 3.562-.002 1.781 1.781 0 0 0-3.562.002zM171.675 347a1.78 1.78 0 0 0 1.782 1.779 1.78 1.78 0 1 0 0-3.559c-.984 0-1.782.797-1.782 1.78zM222.821 394.53a1.781 1.781 0 0 1 1.26 3.038 1.777 1.777 0 0 1-1.942.386 1.78 1.78 0 0 1 .682-3.424zM222.821 345.236a1.781 1.781 0 0 1 1.26 3.038 1.785 1.785 0 0 1-2.741-.27 1.779 1.779 0 0 1 1.481-2.768z"
        fill="#B7C1C1" />
    <path
        d="M171.675 347a1.78 1.78 0 0 0 1.782 1.779 1.78 1.78 0 1 0 0-3.559c-.984 0-1.782.797-1.782 1.78zM171.675 396.31a1.78 1.78 0 0 0 1.782 1.779 1.78 1.78 0 1 0 0-3.559c-.984 0-1.782.797-1.782 1.78zM222.821 394.53a1.781 1.781 0 0 1 1.26 3.038 1.777 1.777 0 0 1-1.942.386 1.78 1.78 0 0 1 .682-3.424z"
        fill="#B7C1C1" />
    <path
        d="M171.675 396.31a1.78 1.78 0 0 0 1.782 1.779 1.78 1.78 0 1 0 0-3.559c-.984 0-1.782.797-1.782 1.78zM171.675 1.796a1.781 1.781 0 0 0 3.563 0 1.781 1.781 0 0 0-3.563 0zM124.092.032a1.785 1.785 0 0 1 1.646 1.1 1.774 1.774 0 0 1-.386 1.939 1.783 1.783 0 0 1-3.042-1.259 1.78 1.78 0 0 1 1.782-1.78zM171.675 51.107a1.781 1.781 0 0 0 3.563 0 1.781 1.781 0 0 0-3.563 0z"
        fill="#B7C1C1" />
    <path
        d="M171.675 1.796a1.781 1.781 0 0 0 3.563 0 1.781 1.781 0 0 0-3.563 0zM124.092.032a1.785 1.785 0 0 1 1.646 1.1 1.774 1.774 0 0 1-.386 1.939 1.783 1.783 0 0 1-3.042-1.259 1.78 1.78 0 0 1 1.782-1.78zM124.092 49.327a1.785 1.785 0 0 1 1.646 1.099 1.775 1.775 0 0 1-.386 1.94 1.783 1.783 0 0 1-3.042-1.26 1.78 1.78 0 0 1 1.782-1.78zM173.457 98.638a1.785 1.785 0 0 1 1.646 1.098 1.776 1.776 0 0 1-.386 1.94 1.788 1.788 0 0 1-1.942.386 1.782 1.782 0 0 1-1.1-1.645 1.779 1.779 0 0 1 1.782-1.78z"
        fill="#B7C1C1" />
    <path d="M170.108 51.107a3.348 3.348 0 0 0 3.349 3.346 3.347 3.347 0 1 0-3.349-3.346z" fill="#FFD029"
        stroke="#FFD029" stroke-width="3.133" />
    <path
        d="M124.092 49.327a1.785 1.785 0 0 1 1.646 1.099 1.775 1.775 0 0 1-.386 1.94 1.783 1.783 0 0 1-3.042-1.26 1.78 1.78 0 0 1 1.782-1.78zM124.092 98.638a1.785 1.785 0 0 1 1.646 1.098 1.776 1.776 0 0 1-.386 1.94 1.785 1.785 0 0 1-2.741-.27 1.779 1.779 0 0 1 1.481-2.768zM171.675 149.742a1.781 1.781 0 1 0 3.562-.002 1.781 1.781 0 0 0-3.562.002zM173.457 98.638a1.785 1.785 0 0 1 1.646 1.098 1.776 1.776 0 0 1-.386 1.94 1.788 1.788 0 0 1-1.942.386 1.782 1.782 0 0 1-1.1-1.645 1.779 1.779 0 0 1 1.782-1.78z"
        fill="#B7C1C1" />
    <path
        d="M124.092 98.638a1.785 1.785 0 0 1 1.646 1.098 1.776 1.776 0 0 1-.386 1.94 1.785 1.785 0 0 1-2.741-.27 1.779 1.779 0 0 1 1.481-2.768zM124.092 147.962a1.78 1.78 0 0 1 1.746 2.133 1.78 1.78 0 0 1-3.528-.368 1.777 1.777 0 0 1 .523-1.253 1.776 1.776 0 0 1 1.259-.512zM173.457 197.273a1.785 1.785 0 0 1 1.747 2.127 1.782 1.782 0 1 1-3.007-1.606 1.785 1.785 0 0 1 1.26-.521zM171.675 149.742a1.781 1.781 0 1 0 3.562-.002 1.781 1.781 0 0 0-3.562.002z"
        fill="#B7C1C1" />
    <path
        d="M124.092 147.962a1.78 1.78 0 0 1 1.746 2.133 1.78 1.78 0 0 1-3.528-.368 1.777 1.777 0 0 1 .523-1.253 1.776 1.776 0 0 1 1.259-.512zM124.092 197.273a1.785 1.785 0 0 1 1.747 2.127 1.775 1.775 0 0 1-1.399 1.398 1.78 1.78 0 1 1-.348-3.525zM171.675 248.364a1.78 1.78 0 0 0 1.782 1.779 1.78 1.78 0 1 0 0-3.559c-.984 0-1.782.797-1.782 1.78zM173.457 197.273a1.785 1.785 0 0 1 1.747 2.127 1.782 1.782 0 1 1-3.007-1.606 1.785 1.785 0 0 1 1.26-.521z"
        fill="#B7C1C1" />
    <path
        d="M124.092 197.273a1.785 1.785 0 0 1 1.747 2.127 1.775 1.775 0 0 1-1.399 1.398 1.78 1.78 0 1 1-.348-3.525zM124.092 246.584a1.781 1.781 0 0 1 1.26 3.038 1.777 1.777 0 0 1-1.942.386 1.78 1.78 0 0 1 .682-3.424zM171.675 297.69a1.781 1.781 0 1 0 3.562-.002 1.781 1.781 0 0 0-3.562.002zM171.675 248.364a1.78 1.78 0 0 0 1.782 1.779 1.78 1.78 0 1 0 0-3.559c-.984 0-1.782.797-1.782 1.78z"
        fill="#B7C1C1" />
    <path
        d="M124.092 246.584a1.781 1.781 0 0 1 1.26 3.038 1.777 1.777 0 0 1-1.942.386 1.78 1.78 0 0 1 .682-3.424zM124.092 295.894a1.781 1.781 0 0 1 1.26 3.038 1.785 1.785 0 0 1-2.741-.27 1.773 1.773 0 0 1 .221-2.247 1.78 1.78 0 0 1 1.26-.521zM171.675 347a1.78 1.78 0 0 0 1.782 1.779 1.78 1.78 0 1 0 0-3.559c-.984 0-1.782.797-1.782 1.78zM171.675 297.69a1.781 1.781 0 1 0 3.562-.002 1.781 1.781 0 0 0-3.562.002z"
        fill="#B7C1C1" />
    <path
        d="M124.092 295.894a1.781 1.781 0 0 1 1.26 3.038 1.785 1.785 0 0 1-2.741-.27 1.773 1.773 0 0 1 .221-2.247 1.78 1.78 0 0 1 1.26-.521zM124.092 345.236a1.781 1.781 0 0 1 1.26 3.038 1.785 1.785 0 0 1-2.741-.27 1.779 1.779 0 0 1 1.481-2.768zM171.675 396.31a1.78 1.78 0 0 0 1.782 1.779 1.78 1.78 0 1 0 0-3.559c-.984 0-1.782.797-1.782 1.78zM171.675 347a1.78 1.78 0 0 0 1.782 1.779 1.78 1.78 0 1 0 0-3.559c-.984 0-1.782.797-1.782 1.78z"
        fill="#B7C1C1" />
    <path
        d="M124.092 345.236a1.781 1.781 0 0 1 1.26 3.038 1.785 1.785 0 0 1-2.741-.27 1.779 1.779 0 0 1 1.481-2.768zM124.092 394.53a1.781 1.781 0 0 1 1.26 3.038 1.777 1.777 0 0 1-1.942.386 1.78 1.78 0 0 1 .682-3.424zM171.675 396.31a1.78 1.78 0 0 0 1.782 1.779 1.78 1.78 0 1 0 0-3.559c-.984 0-1.782.797-1.782 1.78z"
        fill="#B7C1C1" />
    <path
        d="M124.092 394.53a1.781 1.781 0 0 1 1.26 3.038 1.777 1.777 0 0 1-1.942.386 1.78 1.78 0 0 1 .682-3.424zM124.092.032a1.785 1.785 0 0 1 1.646 1.1 1.774 1.774 0 0 1-.386 1.939 1.783 1.783 0 0 1-3.042-1.259 1.78 1.78 0 0 1 1.782-1.78zM72.946 1.796a1.78 1.78 0 1 0 3.561-.002 1.78 1.78 0 0 0-3.561.002zM124.092 49.327a1.785 1.785 0 0 1 1.646 1.099 1.775 1.775 0 0 1-.386 1.94 1.783 1.783 0 0 1-3.042-1.26 1.78 1.78 0 0 1 1.782-1.78z"
        fill="#B7C1C1" />
    <path
        d="M124.092.032a1.785 1.785 0 0 1 1.646 1.1 1.774 1.774 0 0 1-.386 1.939 1.783 1.783 0 0 1-3.042-1.259 1.78 1.78 0 0 1 1.782-1.78zM72.946 1.796a1.78 1.78 0 1 0 3.561-.002 1.78 1.78 0 0 0-3.561.002zM72.946 51.107a1.78 1.78 0 1 0 3.561-.002 1.78 1.78 0 0 0-3.561.002zM124.092 98.638a1.785 1.785 0 0 1 1.646 1.098 1.776 1.776 0 0 1-.386 1.94 1.785 1.785 0 0 1-2.741-.27 1.779 1.779 0 0 1 1.481-2.768zM124.092 49.327a1.785 1.785 0 0 1 1.646 1.099 1.775 1.775 0 0 1-.386 1.94 1.783 1.783 0 0 1-3.042-1.26 1.78 1.78 0 0 1 1.782-1.78z"
        fill="#B7C1C1" />
    <path
        d="M72.946 51.107a1.78 1.78 0 1 0 3.561-.002 1.78 1.78 0 0 0-3.561.002zM74.712 98.638a1.783 1.783 0 0 1 1.765 2.117 1.778 1.778 0 0 1-1.396 1.407 1.785 1.785 0 0 1-1.834-.754 1.78 1.78 0 0 1-.301-.991 1.758 1.758 0 0 1 .512-1.257 1.766 1.766 0 0 1 1.254-.522zM124.092 147.962a1.78 1.78 0 0 1 1.746 2.133 1.78 1.78 0 0 1-3.528-.368 1.777 1.777 0 0 1 .523-1.253 1.776 1.776 0 0 1 1.259-.512zM124.092 98.638a1.785 1.785 0 0 1 1.646 1.098 1.776 1.776 0 0 1-.386 1.94 1.785 1.785 0 0 1-2.741-.27 1.779 1.779 0 0 1 1.481-2.768z"
        fill="#B7C1C1" />
    <path
        d="M74.712 98.638a1.783 1.783 0 0 1 1.765 2.117 1.778 1.778 0 0 1-1.396 1.407 1.785 1.785 0 0 1-1.834-.754 1.78 1.78 0 0 1-.301-.991 1.758 1.758 0 0 1 .512-1.257 1.766 1.766 0 0 1 1.254-.522zM72.946 149.742a1.78 1.78 0 1 0 3.561-.002 1.78 1.78 0 0 0-3.561.002zM124.092 197.273a1.785 1.785 0 0 1 1.747 2.127 1.775 1.775 0 0 1-1.399 1.398 1.78 1.78 0 1 1-.348-3.525zM124.092 147.962a1.78 1.78 0 0 1 1.746 2.133 1.78 1.78 0 0 1-3.528-.368 1.777 1.777 0 0 1 .523-1.253 1.776 1.776 0 0 1 1.259-.512z"
        fill="#B7C1C1" />
    <path
        d="M72.946 149.742a1.78 1.78 0 1 0 3.561-.002 1.78 1.78 0 0 0-3.561.002zM74.712 197.273a1.782 1.782 0 0 1 1.28 3.033 1.786 1.786 0 0 1-2.745-.263 1.78 1.78 0 0 1-.301-.99 1.762 1.762 0 0 1 1.086-1.644c.216-.09.447-.136.68-.136zM124.092 246.584a1.781 1.781 0 0 1 1.26 3.038 1.777 1.777 0 0 1-1.942.386 1.78 1.78 0 0 1 .682-3.424zM124.092 197.273a1.785 1.785 0 0 1 1.747 2.127 1.775 1.775 0 0 1-1.399 1.398 1.78 1.78 0 1 1-.348-3.525z"
        fill="#B7C1C1" />
    <path
        d="M74.712 197.273a1.782 1.782 0 0 1 1.28 3.033 1.786 1.786 0 0 1-2.745-.263 1.78 1.78 0 0 1-.301-.99 1.762 1.762 0 0 1 1.086-1.644c.216-.09.447-.136.68-.136zM72.946 248.364a1.78 1.78 0 0 0 1.781 1.779 1.78 1.78 0 1 0 0-3.559 1.78 1.78 0 0 0-1.781 1.78zM124.092 295.894a1.781 1.781 0 0 1 1.26 3.038 1.785 1.785 0 0 1-2.741-.27 1.773 1.773 0 0 1 .221-2.247 1.78 1.78 0 0 1 1.26-.521zM124.092 246.584a1.781 1.781 0 0 1 1.26 3.038 1.777 1.777 0 0 1-1.942.386 1.78 1.78 0 0 1 .682-3.424z"
        fill="#B7C1C1" />
    <path
        d="M72.946 248.364a1.78 1.78 0 0 0 1.781 1.779 1.78 1.78 0 1 0 0-3.559 1.78 1.78 0 0 0-1.781 1.78zM72.946 297.69a1.78 1.78 0 1 0 3.561-.002 1.78 1.78 0 0 0-3.561.002zM124.092 345.236a1.781 1.781 0 0 1 1.26 3.038 1.785 1.785 0 0 1-2.741-.27 1.779 1.779 0 0 1 1.481-2.768zM124.092 295.894a1.781 1.781 0 0 1 1.26 3.038 1.785 1.785 0 0 1-2.741-.27 1.773 1.773 0 0 1 .221-2.247 1.78 1.78 0 0 1 1.26-.521z"
        fill="#B7C1C1" />
    <path
        d="M72.946 297.69a1.78 1.78 0 1 0 3.561-.002 1.78 1.78 0 0 0-3.561.002zM72.946 347a1.78 1.78 0 0 0 1.781 1.779 1.78 1.78 0 1 0 0-3.559 1.78 1.78 0 0 0-1.781 1.78zM124.092 394.53a1.781 1.781 0 0 1 1.26 3.038 1.777 1.777 0 0 1-1.942.386 1.78 1.78 0 0 1 .682-3.424zM124.092 345.236a1.781 1.781 0 0 1 1.26 3.038 1.785 1.785 0 0 1-2.741-.27 1.779 1.779 0 0 1 1.481-2.768z"
        fill="#B7C1C1" />
    <path
        d="M72.946 347a1.78 1.78 0 0 0 1.781 1.779 1.78 1.78 0 1 0 0-3.559 1.78 1.78 0 0 0-1.781 1.78zM72.946 396.31a1.78 1.78 0 0 0 1.781 1.779 1.78 1.78 0 1 0 0-3.559 1.78 1.78 0 0 0-1.781 1.78zM124.092 394.53a1.781 1.781 0 0 1 1.26 3.038 1.777 1.777 0 0 1-1.942.386 1.78 1.78 0 0 1 .682-3.424z"
        fill="#B7C1C1" />
    <path
        d="M72.946 396.31a1.78 1.78 0 0 0 1.781 1.779 1.78 1.78 0 1 0 0-3.559 1.78 1.78 0 0 0-1.781 1.78zM72.946 1.796a1.78 1.78 0 1 0 3.561-.002 1.78 1.78 0 0 0-3.561.002zM25.348.032a1.783 1.783 0 0 1 1.747 2.127 1.779 1.779 0 0 1-1.4 1.399 1.783 1.783 0 0 1-2.13-1.746 1.779 1.779 0 0 1 1.782-1.78zM72.946 51.107a1.78 1.78 0 1 0 3.561-.002 1.78 1.78 0 0 0-3.561.002z"
        fill="#B7C1C1" />
    <path
        d="M72.946 1.796a1.78 1.78 0 1 0 3.561-.002 1.78 1.78 0 0 0-3.561.002zM25.348.032a1.783 1.783 0 0 1 1.747 2.127 1.779 1.779 0 0 1-1.4 1.399 1.783 1.783 0 0 1-2.13-1.746 1.779 1.779 0 0 1 1.782-1.78zM25.348 49.327a1.783 1.783 0 0 1 1.747 2.127 1.778 1.778 0 0 1-1.4 1.398 1.783 1.783 0 0 1-2.13-1.745 1.779 1.779 0 0 1 1.782-1.78zM74.712 98.638a1.783 1.783 0 0 1 1.765 2.117 1.778 1.778 0 0 1-1.396 1.407 1.785 1.785 0 0 1-1.834-.754 1.78 1.78 0 0 1-.301-.991 1.758 1.758 0 0 1 .512-1.257 1.766 1.766 0 0 1 1.254-.522zM72.946 51.107a1.78 1.78 0 1 0 3.561-.002 1.78 1.78 0 0 0-3.561.002z"
        fill="#B7C1C1" />
    <path
        d="M25.348 49.327a1.783 1.783 0 0 1 1.747 2.127 1.778 1.778 0 0 1-1.4 1.398 1.783 1.783 0 0 1-2.13-1.745 1.779 1.779 0 0 1 1.782-1.78zM25.348 98.638a1.783 1.783 0 0 1 1.747 2.127 1.78 1.78 0 0 1-2.43 1.297 1.782 1.782 0 0 1-1.1-1.645 1.778 1.778 0 0 1 1.782-1.78zM72.946 149.742a1.78 1.78 0 1 0 3.561-.002 1.78 1.78 0 0 0-3.561.002zM74.712 98.638a1.783 1.783 0 0 1 1.765 2.117 1.778 1.778 0 0 1-1.396 1.407 1.785 1.785 0 0 1-1.834-.754 1.78 1.78 0 0 1-.301-.991 1.758 1.758 0 0 1 .512-1.257 1.766 1.766 0 0 1 1.254-.522z"
        fill="#B7C1C1" />
    <path
        d="M25.348 98.638a1.783 1.783 0 0 1 1.747 2.127 1.78 1.78 0 0 1-2.43 1.297 1.782 1.782 0 0 1-1.1-1.645 1.778 1.778 0 0 1 1.782-1.78zM25.348 147.962a1.785 1.785 0 0 1 1.647 1.102 1.78 1.78 0 0 1-3.136 1.656 1.781 1.781 0 0 1-.293-.993 1.762 1.762 0 0 1 1.782-1.765zM74.712 197.273a1.782 1.782 0 0 1 1.28 3.033 1.786 1.786 0 0 1-2.745-.263 1.78 1.78 0 0 1-.301-.99 1.762 1.762 0 0 1 1.086-1.644c.216-.09.447-.136.68-.136zM72.946 149.742a1.78 1.78 0 1 0 3.561-.002 1.78 1.78 0 0 0-3.561.002z"
        fill="#B7C1C1" />
    <path
        d="M25.348 147.962a1.785 1.785 0 0 1 1.647 1.102 1.78 1.78 0 0 1-3.136 1.656 1.781 1.781 0 0 1-.293-.993 1.762 1.762 0 0 1 1.782-1.765zM25.348 197.273a1.78 1.78 0 1 1-.682 3.424 1.782 1.782 0 0 1-1.1-1.644 1.78 1.78 0 0 1 1.782-1.78zM72.946 248.364a1.78 1.78 0 0 0 1.781 1.779 1.78 1.78 0 1 0 0-3.559 1.78 1.78 0 0 0-1.781 1.78zM74.712 197.273a1.782 1.782 0 0 1 1.28 3.033 1.786 1.786 0 0 1-2.745-.263 1.78 1.78 0 0 1-.301-.99 1.762 1.762 0 0 1 1.086-1.644c.216-.09.447-.136.68-.136z"
        fill="#B7C1C1" />
    <path
        d="M25.348 197.273a1.78 1.78 0 1 1-.682 3.424 1.782 1.782 0 0 1-1.1-1.644 1.78 1.78 0 0 1 1.782-1.78zM25.348 246.584a1.78 1.78 0 1 1-.682 3.424 1.782 1.782 0 0 1-1.1-1.644 1.78 1.78 0 0 1 1.782-1.78zM72.946 297.69a1.78 1.78 0 1 0 3.561-.002 1.78 1.78 0 0 0-3.561.002zM72.946 248.364a1.78 1.78 0 0 0 1.781 1.779 1.78 1.78 0 1 0 0-3.559 1.78 1.78 0 0 0-1.781 1.78z"
        fill="#B7C1C1" />
    <path
        d="M25.348 246.584a1.78 1.78 0 1 1-.682 3.424 1.782 1.782 0 0 1-1.1-1.644 1.78 1.78 0 0 1 1.782-1.78zM25.347 295.894a1.785 1.785 0 0 1 1.69 1.055 1.779 1.779 0 0 1-2.295 2.374 1.781 1.781 0 0 1-1.115-1.649 1.777 1.777 0 0 1 1.72-1.78zM72.946 347a1.78 1.78 0 0 0 1.781 1.779 1.78 1.78 0 1 0 0-3.559 1.78 1.78 0 0 0-1.781 1.78zM72.946 297.69a1.78 1.78 0 1 0 3.561-.002 1.78 1.78 0 0 0-3.561.002z"
        fill="#B7C1C1" />
    <path
        d="M25.347 295.894a1.785 1.785 0 0 1 1.69 1.055 1.779 1.779 0 0 1-2.295 2.374 1.781 1.781 0 0 1-1.115-1.649 1.777 1.777 0 0 1 1.72-1.78zM25.348 345.236a1.78 1.78 0 1 1-.682 3.424 1.782 1.782 0 0 1-1.1-1.645 1.778 1.778 0 0 1 1.782-1.779zM72.946 396.31a1.78 1.78 0 0 0 1.781 1.779 1.78 1.78 0 1 0 0-3.559 1.78 1.78 0 0 0-1.781 1.78zM72.946 347a1.78 1.78 0 0 0 1.781 1.779 1.78 1.78 0 1 0 0-3.559 1.78 1.78 0 0 0-1.781 1.78z"
        fill="#B7C1C1" />
    <path
        d="M25.348 345.236a1.78 1.78 0 1 1-.682 3.424 1.782 1.782 0 0 1-1.1-1.645 1.778 1.778 0 0 1 1.782-1.779zM25.348 394.53a1.78 1.78 0 1 1-1.482 2.768 1.774 1.774 0 0 1 .222-2.247 1.786 1.786 0 0 1 1.26-.521zM72.946 396.31a1.78 1.78 0 0 0 1.781 1.779 1.78 1.78 0 1 0 0-3.559 1.78 1.78 0 0 0-1.781 1.78z"
        fill="#B7C1C1" />
    <path
        d="M25.348 394.53a1.78 1.78 0 1 1-1.482 2.768 1.774 1.774 0 0 1 .222-2.247 1.786 1.786 0 0 1 1.26-.521zM25.348.032a1.783 1.783 0 0 1 1.747 2.127 1.779 1.779 0 0 1-1.4 1.399 1.783 1.783 0 0 1-2.13-1.746 1.779 1.779 0 0 1 1.782-1.78zM25.348 49.327a1.783 1.783 0 0 1 1.747 2.127 1.778 1.778 0 0 1-1.4 1.398 1.783 1.783 0 0 1-2.13-1.745 1.779 1.779 0 0 1 1.782-1.78z"
        fill="#B7C1C1" />
    <path
        d="M25.348.032a1.783 1.783 0 0 1 1.747 2.127 1.779 1.779 0 0 1-1.4 1.399 1.783 1.783 0 0 1-2.13-1.746 1.779 1.779 0 0 1 1.782-1.78zM25.348 98.638a1.783 1.783 0 0 1 1.747 2.127 1.78 1.78 0 0 1-2.43 1.297 1.782 1.782 0 0 1-1.1-1.645 1.778 1.778 0 0 1 1.782-1.78zM25.348 49.327a1.783 1.783 0 0 1 1.747 2.127 1.778 1.778 0 0 1-1.4 1.398 1.783 1.783 0 0 1-2.13-1.745 1.779 1.779 0 0 1 1.782-1.78zM25.348 147.962a1.785 1.785 0 0 1 1.647 1.102 1.78 1.78 0 0 1-3.136 1.656 1.781 1.781 0 0 1-.293-.993 1.762 1.762 0 0 1 1.782-1.765z"
        fill="#B7C1C1" />
    <path
        d="M25.348 98.638a1.783 1.783 0 0 1 1.747 2.127 1.78 1.78 0 0 1-2.43 1.297 1.782 1.782 0 0 1-1.1-1.645 1.778 1.778 0 0 1 1.782-1.78zM25.348 197.273a1.78 1.78 0 1 1-.682 3.424 1.782 1.782 0 0 1-1.1-1.644 1.78 1.78 0 0 1 1.782-1.78zM25.348 147.962a1.785 1.785 0 0 1 1.647 1.102 1.78 1.78 0 0 1-3.136 1.656 1.781 1.781 0 0 1-.293-.993 1.762 1.762 0 0 1 1.782-1.765zM25.348 246.584a1.78 1.78 0 1 1-.682 3.424 1.782 1.782 0 0 1-1.1-1.644 1.78 1.78 0 0 1 1.782-1.78z"
        fill="#B7C1C1" />
    <path
        d="M25.348 197.273a1.78 1.78 0 1 1-.682 3.424 1.782 1.782 0 0 1-1.1-1.644 1.78 1.78 0 0 1 1.782-1.78zM25.347 295.894a1.785 1.785 0 0 1 1.69 1.055 1.779 1.779 0 0 1-2.295 2.374 1.781 1.781 0 0 1-1.115-1.649 1.777 1.777 0 0 1 1.72-1.78zM25.348 246.584a1.78 1.78 0 1 1-.682 3.424 1.782 1.782 0 0 1-1.1-1.644 1.78 1.78 0 0 1 1.782-1.78zM25.348 345.236a1.78 1.78 0 1 1-.682 3.424 1.782 1.782 0 0 1-1.1-1.645 1.778 1.778 0 0 1 1.782-1.779z"
        fill="#B7C1C1" />
    <path
        d="M25.347 295.894a1.785 1.785 0 0 1 1.69 1.055 1.779 1.779 0 0 1-2.295 2.374 1.781 1.781 0 0 1-1.115-1.649 1.777 1.777 0 0 1 1.72-1.78zM25.348 394.53a1.78 1.78 0 1 1-1.482 2.768 1.774 1.774 0 0 1 .222-2.247 1.786 1.786 0 0 1 1.26-.521zM25.348 345.236a1.78 1.78 0 1 1-.682 3.424 1.782 1.782 0 0 1-1.1-1.645 1.778 1.778 0 0 1 1.782-1.779z"
        fill="#B7C1C1" />
    <path d="M25.348 394.53a1.78 1.78 0 1 1-1.482 2.768 1.774 1.774 0 0 1 .222-2.247 1.786 1.786 0 0 1 1.26-.521z"
        fill="#B7C1C1" />
    <path d="M22.56 297.087a3.348 3.348 0 1 0 6.698-.003 3.348 3.348 0 0 0-6.699.003z" fill="#A9C7EA" stroke="#A9C7EA"
        stroke-width="3.133" />
    <path d="M318.175 347.334a3.347 3.347 0 1 0 6.694 0 3.347 3.347 0 0 0-6.694 0z" fill="#F3684C" stroke="#F3684C"
        stroke-width="3.133" />
</svg>