<svg width="414" height="128" viewBox="0 0 414 128" fill="none" xmlns="http://www.w3.org/2000/svg">
    <path fill-rule="evenodd" clip-rule="evenodd"
        d="M357 108c-5.523 0-10 4.477-10 10 0 5.522 4.477 10 10 10s10-4.478 10-10c0-5.523-4.477-10-10-10zM46 55c5.523 0 10 4.477 10 10s-4.477 10-10 10-10-4.477-10-10 4.477-10 10-10zM140 108c-5.523 0-10 4.477-10 10 0 5.522 4.477 10 10 10s10-4.478 10-10c0-5.523-4.477-10-10-10z"
        fill="#C3CFD6" />
    <path clip-rule="evenodd"
        d="M325 110a8 8 0 0 0-8 8 8 8 0 0 0 8 8 8 8 0 0 0 8-8 8 8 0 0 0-8-8zM184 57a8 8 0 0 0-8 8 8 8 0 0 0 8 8 8 8 0 0 0 8-8 8 8 0 0 0-8-8zM227 2a8 8 0 0 0-8 8 8 8 0 1 0 16 0 8 8 0 0 0-8-8zM9 57a8 8 0 1 1 0 16 8 8 0 0 1 0-16zM48 110a8 8 0 1 0 0 16 8 8 0 0 0 0-16z"
        stroke="#C3CFD6" stroke-width="2" />
    <path fill-rule="evenodd" clip-rule="evenodd"
        d="M279.5 108h-93.398c-5.579 0-10.102 4.477-10.102 10 0 5.522 4.523 10 10.102 10H279.5c5.579 0 10.102-4.478 10.102-10 0-5.523-4.523-10-10.102-10zM340.898 55H229.102C223.523 55 219 59.477 219 65c0 5.522 4.523 10 10.102 10h111.796C346.477 75 351 70.522 351 65c0-5.523-4.523-10-10.102-10zM84.091 55h16.819c5.572 0 10.09 4.477 10.09 10 0 5.522-4.518 10-10.09 10H84.091C78.518 75 74 70.522 74 65c0-5.523 4.518-10 10.091-10zM403.918 55h-20.837C377.514 55 373 59.477 373 65c0 5.522 4.514 10 10.081 10h20.837C409.486 75 414 70.522 414 65c0-5.523-4.514-10-10.082-10zM97.8 108H84.2c-5.633 0-10.2 4.477-10.2 10 0 5.522 4.567 10 10.2 10h13.6c5.633 0 10.2-4.478 10.2-10 0-5.523-4.567-10-10.2-10z"
        fill="#E0E8EC" />
    <path fill-rule="evenodd" clip-rule="evenodd"
        d="M183 0c-5.523 0-10 4.477-10 10 0 5.522 4.477 10 10 10s10-4.478 10-10c0-5.523-4.477-10-10-10z"
        fill="#C3CFD6" />
    <path fill-rule="evenodd" clip-rule="evenodd"
        d="M139.3 0H84.2C78.567 0 74 4.477 74 10c0 5.522 4.567 10 10.2 10h55.1c5.633 0 10.2-4.478 10.2-10 0-5.523-4.567-10-10.2-10z"
        fill="#E0E8EC" />
</svg>