<svg width="110" height="106" viewBox="0 0 110 106" fill="none" xmlns="http://www.w3.org/2000/svg">
<path d="M10.754 61.0706C16.413 38.3142 27.6258 18.7546 46.1957 3.42992C46.9144 2.26408 48.0727 1.42696 49.4165 1.1022C50.7604 0.777441 52.1799 0.991567 53.3639 1.69761L97.5093 28.0917C98.6916 28.8004 99.5405 29.9426 99.8698 31.2677C100.199 32.5929 99.982 33.9927 99.266 35.1601C92.1781 58.5107 81.5621 78.7729 63.8243 92.8008C63.1056 93.9667 61.9473 94.8038 60.6035 95.1286C59.2597 95.4534 57.8401 95.2392 56.6562 94.5332L12.5108 68.139C11.3285 67.4304 10.4795 66.2882 10.1502 64.963C9.82085 63.6379 10.038 62.2381 10.754 61.0706Z" fill="#FE9A22"/>
<path opacity="0.2" d="M18.6004 68.7399C17.4181 68.0312 16.5692 66.889 16.2398 65.5639C15.9105 64.2388 16.1276 62.8389 16.8436 61.6715C22.5026 38.915 33.7155 19.3554 52.2853 4.03074C52.7611 3.26761 53.4328 2.64193 54.2325 2.21702L53.3638 1.69759C52.1799 0.991572 50.7603 0.777447 49.4165 1.10219C48.0727 1.42693 46.9144 2.26402 46.1957 3.42983C27.6258 18.7545 16.413 38.3141 10.754 61.0706C10.038 62.238 9.82085 63.6379 10.1502 64.963C10.4795 66.2881 11.3285 67.4303 12.5107 68.139L56.6561 94.5331C57.4418 94.9994 58.3386 95.2524 59.2554 95.2668C60.1723 95.2811 61.0768 95.0561 61.877 94.6146L18.6004 68.7399Z" fill="black"/>
<path d="M70.372 56.0262L40.7395 38.4199C40.2687 38.1393 39.9301 37.686 39.798 37.1595C39.666 36.6329 39.7512 36.0762 40.0351 35.6116C40.319 35.147 40.7783 34.8125 41.3121 34.6816C41.8459 34.5507 42.4105 34.6341 42.8821 34.9134L72.5145 52.5198C72.9841 52.8008 73.3216 53.254 73.453 53.78C73.5844 54.306 73.499 54.8619 73.2154 55.326C72.9319 55.79 72.4734 56.1242 71.9404 56.2555C71.4074 56.3867 70.8434 56.3043 70.3719 56.0262L70.372 56.0262Z" fill="white"/>
<path d="M53.1337 32.6778L46.6146 28.8044C46.1421 28.5257 45.8013 28.0734 45.6671 27.5469C45.5329 27.0204 45.6163 26.4629 45.8989 25.997C46.1816 25.5312 46.6403 25.1951 47.1742 25.0627C47.7081 24.9304 48.2735 25.0126 48.7459 25.2913L48.7572 25.298L55.2763 29.1714C55.746 29.4524 56.0836 29.9056 56.2151 30.4317C56.3466 30.9578 56.2612 31.5138 55.9776 31.9779C55.694 32.4419 55.2355 32.7762 54.7024 32.9074C54.1693 33.0386 53.6052 32.9561 53.1337 32.6778Z" fill="white"/>
<path d="M65.6617 63.7339L36.0293 46.1275C35.558 45.8476 35.2186 45.3947 35.0858 44.8682C34.953 44.3417 35.0376 43.7848 35.3209 43.3198C35.6043 42.8547 36.0633 42.5197 36.5971 42.3882C37.1309 42.2567 37.6958 42.3395 38.1676 42.6185L38.1718 42.6211L67.8043 60.2274C68.2739 60.5085 68.6114 60.9617 68.7428 61.4877C68.8742 62.0137 68.7887 62.5696 68.5052 63.0336C68.2217 63.4976 67.7632 63.8319 67.2302 63.9631C66.6972 64.0944 66.1332 64.0119 65.6617 63.7338L65.6617 63.7339Z" fill="white"/>
<path d="M74.1345 22.8291C78.9146 22.8291 82.7896 19.008 82.7896 14.2944C82.7896 9.58087 78.9146 5.75977 74.1345 5.75977C69.3545 5.75977 65.4795 9.58087 65.4795 14.2944C65.4795 19.008 69.3545 22.8291 74.1345 22.8291Z" fill="#3F3D56"/>
<path d="M59.2156 105.746C69.4322 105.746 77.7145 97.5788 77.7145 87.5043C77.7145 77.4297 69.4322 69.2627 59.2156 69.2627C48.999 69.2627 40.7168 77.4297 40.7168 87.5043C40.7168 97.5788 48.999 105.746 59.2156 105.746Z" fill="white"/>
<path d="M59.2159 106C55.5061 106 51.8797 104.915 48.7951 102.883C45.7106 100.85 43.3065 97.9617 41.8868 94.582C40.4671 91.2023 40.0957 87.4834 40.8194 83.8955C41.5431 80.3076 43.3295 77.0119 45.9527 74.4252C48.5759 71.8385 51.918 70.0769 55.5565 69.3632C59.195 68.6495 62.9664 69.0158 66.3937 70.4157C69.8211 71.8156 72.7506 74.1863 74.8116 77.2279C76.8727 80.2696 77.9728 83.8456 77.9728 87.5037C77.9672 92.4075 75.9892 97.1089 72.4728 100.576C68.9564 104.044 64.1888 105.994 59.2159 106ZM59.2159 69.5167C55.6082 69.5167 52.0815 70.5717 49.0818 72.5481C46.0822 74.5246 43.7442 77.3338 42.3636 80.6205C40.983 83.9072 40.6218 87.5239 41.3256 91.013C42.0294 94.5022 43.7667 97.7072 46.3177 100.223C48.8688 102.738 52.119 104.451 55.6574 105.145C59.1957 105.839 62.8633 105.483 66.1964 104.122C69.5295 102.76 72.3783 100.455 74.3826 97.4969C76.3869 94.5389 77.4567 91.0613 77.4567 87.5037C77.4512 82.7349 75.5276 78.163 72.108 74.7909C68.6884 71.4189 64.052 69.5221 59.2159 69.5167Z" fill="#3F3D56"/>
<path d="M56.6923 96.9979C56.3728 96.9979 56.0578 96.9245 55.7721 96.7836C55.4863 96.6427 55.2379 96.4381 55.0463 96.1861L49.9995 89.5505C49.8371 89.3374 49.7189 89.0947 49.6516 88.8365C49.5843 88.5783 49.5693 88.3095 49.6075 88.0456C49.6456 87.7816 49.7361 87.5277 49.8738 87.2982C50.0115 87.0688 50.1937 86.8684 50.41 86.7084C50.6263 86.5484 50.8725 86.4321 51.1344 86.366C51.3963 86.2999 51.6689 86.2853 51.9366 86.3232C52.2042 86.361 52.4616 86.4505 52.6942 86.5865C52.9267 86.7224 53.1298 86.9023 53.2919 87.1157L56.5936 91.4565L65.0738 78.9134C65.2237 78.6916 65.4164 78.5012 65.6409 78.3529C65.8655 78.2046 66.1174 78.1014 66.3824 78.0492C66.6474 77.9969 66.9202 77.9966 67.1853 78.0483C67.4504 78.1001 67.7026 78.2028 67.9274 78.3506C68.1523 78.4984 68.3454 78.6884 68.4957 78.9098C68.6461 79.1312 68.7508 79.3797 68.8038 79.641C68.8568 79.9023 68.8571 80.1713 68.8046 80.4327C68.7522 80.6941 68.648 80.9428 68.4981 81.1645L58.4046 96.0942C58.222 96.3643 57.9764 96.5872 57.6885 96.7443C57.4005 96.9014 57.0785 96.9881 56.7495 96.9972C56.7305 96.9975 56.7114 96.9979 56.6923 96.9979Z" fill="#FE9A22"/>
</svg>
