<svg width="1440" height="447" viewBox="0 0 1440 447" fill="none" xmlns="http://www.w3.org/2000/svg">
<g opacity="0.08">
<path fill-rule="evenodd" clip-rule="evenodd" d="M508.084 79.5904C507.966 15.5337 461.187 -56.4999 441.204 -93.6375C401.694 -167.091 360.601 -234.921 319.888 -303.835C279.176 -372.748 238.354 -441.475 199.532 -517.133C174.325 -566.245 144.707 -621.559 127.611 -691.687C91.1929 -841.134 206.017 -818.941 235.76 -822.21C311.425 -830.561 398.213 -826.75 469.137 -904.574C511.476 -951.034 528.359 -1028.95 519.266 -1142.51C516.335 -1179.44 507.659 -1221.94 515.008 -1257.92C522.856 -1296.35 540.912 -1318.52 555.896 -1333.39C610.553 -1387.57 673.395 -1393.85 731.225 -1400.65C793.583 -1408.12 856.527 -1405.93 918.446 -1406.51C944.701 -1406.75 972.121 -1430.8 997.122 -1450.34C1029.9 -1475.95 1062.29 -1504.72 1094.79 -1532.53C1166.3 -1593.58 1239.99 -1657.88 1315.65 -1673.39C1363.03 -1683.1 1414.81 -1669.97 1451.62 -1585.47C1470.1 -1543.05 1479.77 -1479.98 1490.46 -1423.96C1503.39 -1356.28 1515.81 -1287.94 1529.58 -1221.33C1573.93 -1006.78 1637.26 -797.122 1740.04 -786.586C1755.59 -784.998 1770.86 -790.173 1786.34 -791.144C1796.19 -791.742 1804.96 -785.67 1808.63 -759.386C1817.84 -693.462 1788.89 -589.391 1777.02 -537.084C1751.03 -422.589 1721.72 -313.231 1694.26 -201.034C1676.09 -126.833 1644.65 -25.4335 1644.32 64.7204C1644.03 145.048 1685.94 203.108 1708.76 242.674C1730.14 279.719 1768.88 331.558 1771.23 406.917C1772.36 443.456 1762.91 473.738 1753.04 497.239C1735.74 538.337 1715.81 567.329 1700.25 614.218C1674.72 691.146 1653.4 796.992 1656.87 900.652C1659.27 972.48 1675.35 1019.52 1695.8 1064.48C1704.39 1083.39 1711.37 1096.76 1711.82 1127.46C1712.56 1176.2 1705.07 1227.77 1698.9 1272.96C1676.83 1434.68 1645.48 1591.06 1610.61 1737.07C1593.18 1810.04 1574.36 1882.78 1551.25 1945.03C1536.12 1985.9 1515.71 2034.54 1492.63 2034.49C1465.91 2034.49 1437.63 2009.9 1411.65 1991.52C1363.14 1957.17 1315.21 1917.45 1267.47 1876.71C1157.07 1782.45 1047.7 1680.55 939.373 1571.02C863.071 1493.73 785.149 1416.34 713.411 1313.59C699.421 1293.42 686.216 1269.89 673.974 1243.33C660.894 1215.44 644.663 1202.96 628.206 1193.66C526.058 1135.92 414.151 1180.25 311.579 1208.05C285.544 1215.09 259.509 1222.17 233.4 1227.1C210.956 1231.34 184.085 1243.5 162.271 1225.23C119.287 1189.27 156.863 1056.73 172.749 1002.72C228.681 812.572 300.844 651.692 367.73 487.45C399.532 409.233 431.576 331.222 461.648 248.578C477.308 205.611 508.186 135.745 508.084 79.5904Z" stroke="#F9F9FD"/>
<path fill-rule="evenodd" clip-rule="evenodd" d="M527.358 68.7914C510.215 1.00981 480.136 -49.0889 455.168 -96.2373C419.238 -164.112 382.179 -228.215 345.677 -294.167C311.162 -356.534 276.574 -419.61 244.611 -490.435C225.121 -533.625 200.667 -585.273 191.435 -649.152C171.409 -787.61 279.141 -766.603 305.736 -770.226C371.855 -779.188 446.816 -781.242 507.985 -854.14C546.181 -899.664 561.873 -975.158 553.726 -1079.97C550.911 -1116.23 545.837 -1147.19 552.26 -1183.26C559.688 -1225.02 576.773 -1251.05 592.436 -1269.42C641.498 -1326.99 699.492 -1339.22 752.676 -1349.39C807.619 -1359.91 864.866 -1367.32 918.042 -1359.63C939.307 -1356.56 963.783 -1373.95 984.828 -1387.28C1017.21 -1407.82 1049.26 -1431.52 1081.48 -1453.55C1146.96 -1498.36 1214.14 -1541.54 1282.26 -1546.45C1331.44 -1549.99 1382.72 -1530.76 1423.64 -1456.43C1465.1 -1381.04 1483.5 -1264.19 1506.49 -1153.11C1546.21 -961.06 1599.85 -727.559 1691.72 -686.983C1705.66 -680.821 1719.05 -684.163 1732.96 -682.651C1740.12 -681.885 1748.27 -679.458 1751.9 -661.476C1761.32 -614.795 1735.5 -529.442 1726.81 -493.684C1702.8 -394.868 1675.81 -300.889 1650.65 -203.978C1630.67 -127.028 1605.35 -41.5264 1597.62 49.6893C1588.24 160.381 1649.52 239.142 1671.07 317.081C1708.43 452.234 1637.65 529.24 1602.75 593.679C1562.68 667.66 1529.6 802.625 1565.52 917.089C1579.26 960.857 1596.17 986.943 1602.31 1044.06C1611.91 1133.39 1604.65 1235.48 1596.86 1323.78C1585.13 1456.52 1566.56 1587.83 1541.32 1707.8C1523.24 1793.69 1493.24 1928.38 1449.31 1918.28C1419.74 1911.54 1389.68 1886.91 1360.88 1865.14C1317.77 1832.55 1275.19 1795.41 1232.85 1756.83C1135.1 1668.03 1038.42 1570.11 943.648 1462.4C878.981 1388.89 698.598 1088.47 685.025 1077.75C644.556 1045.82 598.544 1051.44 556.821 1056.39C501.32 1062.96 446.098 1079.99 390.92 1095.77C364.654 1103.24 338.257 1112.37 311.852 1116.05C293.058 1118.66 268.376 1120.9 251.915 1093.06C219.783 1038.74 255.581 914.456 270.385 861.874C315.738 700.673 373.109 561.076 426.901 418.343C453.299 348.264 480.099 278.298 504.062 202.599C513.727 172.032 537.954 110.655 527.358 68.7914Z" stroke="#F9F9FD"/>
<path fill-rule="evenodd" clip-rule="evenodd" d="M551.075 34.0295C504.256 -101.609 439.635 -202.488 383.864 -315.769C355.872 -372.643 327.704 -431.068 303.561 -498.812C291.002 -534.039 275.32 -578.586 272.901 -627.69C266.434 -759.051 363.534 -741.288 392.596 -746.275C448.785 -755.95 512.262 -763.291 563.238 -830.325C594.383 -871.305 609.721 -938.564 603.899 -1026.97C601.319 -1066.19 597.301 -1099.51 603.899 -1138.02C610.586 -1177.04 624.516 -1204.57 638.622 -1225.21C679.158 -1284.57 729.533 -1303.55 775.172 -1317.69C828.712 -1334.16 882.653 -1340.59 936.562 -1336.93C983.777 -1333.77 1030.77 -1369.28 1076.87 -1392.68C1137.94 -1423.67 1200.12 -1450.73 1262.61 -1446.64C1311.97 -1443.39 1361.71 -1417.86 1403.91 -1350C1446.78 -1280.89 1472.56 -1177.45 1495.8 -1065.83C1530.93 -897.099 1574.72 -670.985 1651.79 -606.901C1663 -597.562 1673.45 -596.535 1685.01 -594.91C1690.63 -594.125 1697.88 -593.882 1700.67 -578.959C1707.37 -543.023 1682.59 -473.354 1675.68 -449.073C1653.61 -371.56 1629.69 -297.54 1607.07 -221.054C1585.96 -149.648 1562.96 -75.2358 1549.84 8.44095C1528.97 141.707 1595.7 219.631 1593.83 346.622C1592.66 425.461 1563.04 481.999 1539.58 521.111C1510.69 569.206 1469.1 600.828 1454.64 688.595C1443.87 753.968 1460.77 792.014 1473.78 841.623C1495.84 925.673 1497.34 1039.61 1495.04 1136.9C1491.95 1268.37 1479.86 1401.79 1459.28 1522.64C1449.96 1577.42 1438.53 1634.4 1421.71 1676.95C1405.96 1716.83 1391.05 1727.05 1369.99 1718.88C1305.53 1693.86 1240.45 1624.09 1178.64 1561.78C1100.97 1483.49 1024.38 1397.05 950.074 1299.79C899.406 1233.47 847.594 1163.29 803.12 1071.66C791.529 1047.77 779.659 1021.81 771.184 990.298C764.776 966.615 762.056 947.059 751.257 933.536C719.247 893.472 674.722 903.951 640.425 908.116C585.585 914.747 531.009 932.397 476.506 948.292C444.701 957.631 384.788 987.011 359.391 916.54C337.47 855.687 363.922 751.932 377.434 698.326C411.614 562.762 455.582 443.784 496.374 321.276C515.07 265.131 534.499 208.555 549.939 146.134C553.883 130.221 560.203 109.133 561.288 89.8017C562.505 67.6497 556.823 50.7462 551.075 34.0295Z" stroke="#F9F9FD"/>
<path fill-rule="evenodd" clip-rule="evenodd" d="M555.1 65.6052C511.838 -54.3242 459.717 -152.851 413.272 -265.079C392.447 -315.399 371.417 -368.186 355.549 -429.571C347.014 -462.582 337.951 -504.134 340.305 -545.164C347.058 -662.925 426.918 -652.289 459.182 -659.186C507.123 -669.318 562.198 -679.524 604.589 -743.021C632.357 -784.611 642.77 -846.034 637.586 -925.252C632.02 -1010.23 644.464 -1071.91 672.782 -1119.31C708.287 -1178.7 753.105 -1202.91 794.329 -1220.1C843.996 -1240.72 894.292 -1249.86 944.605 -1247.41C993.535 -1245.02 1040.94 -1265.92 1089.55 -1279.51C1154 -1297.51 1220.51 -1306.39 1284.23 -1269.49C1339.71 -1237.36 1389.82 -1166.55 1427.39 -1057.05C1466.62 -942.766 1486.05 -798.78 1517.91 -672.346C1537.78 -593.483 1565.49 -489.162 1602.62 -458.507C1615.01 -448.282 1637.58 -462.077 1627.69 -411.776C1622.03 -383.009 1611.45 -357.774 1603.09 -334.259C1589.59 -296.258 1575.63 -259.303 1561.9 -221.825C1532.63 -141.935 1501.28 -60.3432 1479.34 34.2582C1451.7 153.365 1492.79 245.032 1487.78 365.802C1485.09 430.795 1467.36 482.666 1448.6 523.415C1436.47 549.809 1423.19 572.67 1409.63 593.997C1395.47 616.279 1378.71 633.251 1366.37 662.056C1348.77 703.048 1356.41 751.573 1359.71 804.565C1365.51 897.694 1366.79 992.294 1363.51 1086.22C1359.49 1201.35 1350.06 1319.76 1330.22 1424.38C1322.49 1465.11 1312.71 1508.29 1298.19 1535.6C1283.66 1562.91 1268.64 1561.04 1251.99 1552.82C1202.62 1528.52 1153.35 1471.97 1106.52 1418.38C1047.9 1351.29 990.434 1276.32 935.556 1191.03C897.675 1132.15 859.67 1068.54 827.978 988.703C818.761 965.468 809.991 940.589 802.901 912.812C798.032 893.765 795.421 869.185 788.367 854.866C766.296 810.173 721.985 823.519 696.1 826.118C644.442 831.295 593.597 855.913 542.004 861.895C513.847 865.166 469.748 873.39 449.07 812.285C429.624 754.844 447.237 664.374 458.859 609.026C481.7 500.2 512.388 403.243 539.892 302.081C551.199 260.453 563.592 216.9 570.917 169.366C577.428 127.009 566.187 96.3539 555.1 65.6052Z" stroke="#F9F9FD"/>
<path fill-rule="evenodd" clip-rule="evenodd" d="M565.742 67.567C531.306 -37.9675 489.792 -131.649 455.107 -238.901C434.805 -301.71 399.842 -407.301 415.543 -495.85C432.768 -593.153 492.811 -595.803 527.518 -603.642C568.826 -612.975 617.337 -625.724 652.688 -686.48C663.869 -705.686 673.394 -731.109 677.431 -764.595C681.754 -800.432 677.028 -831.79 676.412 -867.665C675.123 -942.924 692.751 -1003.34 716.079 -1044.84C749.05 -1103.5 790.278 -1131.24 829.219 -1150.58C873.338 -1172.39 918.189 -1183.14 963.13 -1182.68C1006.08 -1182.31 1048.58 -1184.74 1091.57 -1187.53C1147.79 -1191.27 1204.81 -1185.24 1259.35 -1147.18C1313.08 -1109.66 1361.93 -1039.35 1400.3 -935.925C1437.73 -835.001 1462.98 -711.641 1485.1 -585.985C1497.65 -514.664 1518.86 -408.085 1548.8 -372.06C1562.11 -356.027 1575.17 -357.128 1561.02 -315.429C1543.19 -262.923 1519.17 -220.795 1498.52 -175.886C1468.74 -111.08 1438.21 -45.0044 1413.21 32.0466C1397.24 81.2487 1390.13 128.995 1391.23 192.7C1392.08 241.23 1395.93 289.257 1393.98 337.973C1389.42 452.318 1354.08 530.731 1322.84 603.751C1302.74 650.713 1284.39 686.532 1274.04 753.335C1261.81 832.29 1256.67 918.189 1248.49 1000.17C1239.51 1090.19 1229.14 1183.84 1209.53 1263.13C1192.08 1333.72 1170.85 1365.38 1139.08 1346.36C1089.53 1316.71 1040.69 1243.7 996.702 1176.15C951.928 1107.42 907.923 1030.14 870.821 935.678C850.789 884.666 837.117 824.768 819.328 769.966C796.952 701.166 746.332 727.223 716.248 733.046C666.309 742.715 509.172 815.062 523.671 580.736C529.723 482.929 553.557 392.663 570.987 306.354C578.212 270.535 588.667 227.549 590.301 186.503C592.081 141.8 576.094 99.3356 565.742 67.567Z" stroke="#F9F9FD"/>
<path fill-rule="evenodd" clip-rule="evenodd" d="M583.922 76.5289C557.607 -19.1067 526.114 -109.457 503.534 -212.749C488.886 -279.644 474.502 -369.023 493.398 -439.802C514.725 -519.676 561.752 -538.295 596.307 -548.473C631.909 -558.95 674.41 -567.764 703.508 -628.328C712.766 -647.62 720.397 -673.634 721.818 -704.784C723.188 -734.665 719.321 -764.545 720.603 -794.967C723.474 -863.28 739.726 -919.568 760.679 -960.391C822.662 -1081.16 914.916 -1108.02 989.701 -1111.17C1027.13 -1112.74 1065.66 -1104.51 1103.33 -1098.61C1152.22 -1090.95 1201.18 -1074.52 1247.81 -1034.91C1346.94 -950.718 1413.38 -764.003 1459.78 -531.665C1474.39 -458.533 1485.56 -379.407 1508.45 -320.636C1520.25 -290.289 1517.67 -268.495 1505.61 -240.818C1486.75 -197.567 1463.75 -164.512 1442.81 -128.412C1413.04 -77.0744 1382.63 -24.9706 1356.3 36.5267C1338.15 78.9194 1325.27 119.762 1321.36 183.332C1318.57 228.657 1319.22 274.841 1317.54 320.445C1314.35 407.079 1303.42 493.06 1284.06 564.922C1268.68 621.881 1250.37 673.649 1231.44 723.007C1206.84 787.269 1186.04 852.557 1167.35 928.826C1142.58 1029.78 1107.78 1216.01 1049.44 1166.73C985.087 1112.35 924.774 974.17 883.488 840.287C869.624 795.336 858.242 740.207 839.544 707.059C811.552 657.514 783.149 659.25 749.855 659.456C700.007 659.736 591.539 687.319 590.367 496.982C589.906 421.571 602.708 350.27 608.838 277.735C615.752 196.498 601.895 141.705 583.922 76.5289Z" stroke="#F9F9FD"/>
<path fill-rule="evenodd" clip-rule="evenodd" d="M603.523 85.0557C577.494 -39.5886 519.126 -244.405 563.519 -383.009C586.969 -456.258 628.446 -483.784 663.239 -500.188C691.239 -513.457 725.007 -518.44 746.163 -574.687C761.713 -616.043 754.81 -676.228 760.768 -727.997C768.162 -792.176 785.134 -844.691 805.989 -884.161C864.269 -994.473 945.303 -1028.33 1015.41 -1035.53C1088.22 -1042.99 1168.45 -1008.08 1236.97 -940.913C1322.4 -857.139 1386.4 -698.511 1431.16 -497.632C1439.42 -460.55 1446.92 -422.498 1454.85 -384.968C1460.18 -359.793 1468.08 -335.439 1472.28 -308.958C1479.27 -264.803 1471.03 -228.71 1457.83 -199.933C1438.83 -158.504 1415.5 -129.018 1393.84 -97.9264C1364.23 -55.3768 1333.96 -13.5923 1306.41 36.3288C1287.9 69.9206 1268.53 106.107 1261.9 164.388C1257.38 204.139 1256.44 246.24 1256.61 287.409C1256.96 375.681 1255.14 447.063 1238.97 527.908C1212.37 660.633 1171.47 779.977 1128.25 879.278C1094.34 957.211 1040.68 1078.27 991.264 1026.17C946.93 979.512 920.996 867.838 891.786 777.551C877.584 733.657 861.631 693.571 842.886 662.349C819.253 622.991 797.005 606.475 769.005 600.037C721.878 589.194 650.818 586.376 636.25 442.304C630.871 389.136 633.942 334.064 631.12 280.205C627.434 208.991 616.655 147.928 603.523 85.0557Z" stroke="#F9F9FD"/>
<path fill-rule="evenodd" clip-rule="evenodd" d="M630.589 89.6707C612.054 -46.7142 587.704 -218.597 632.471 -339.811C654.155 -398.531 684.657 -431.357 714.177 -455.888C735.319 -473.468 768.889 -478.644 781.851 -532.693C791.371 -572.469 792.689 -627.34 801.302 -669.956C813.136 -728.546 831.063 -776.804 852.096 -814.58C906.888 -913.02 978.254 -951.059 1043.34 -961.951C1184.75 -985.585 1328.64 -797.355 1404.31 -487.667C1426.87 -395.355 1455.99 -297.102 1419.53 -202.791C1379.72 -99.9044 1319.75 -51.7026 1272.24 21.4035C1254.08 49.3157 1230.95 82.8702 1220.82 133.407C1214.73 163.786 1214.31 201.899 1214.03 235.341C1213.3 320.516 1210.53 397.116 1197.09 476.593C1176.33 599.414 1143.24 712.726 1105.74 805.542C1073.03 886.477 1026.39 981.591 978.891 923.244C942.472 878.406 919.375 783.235 891.078 713.081C859.587 634.949 820.642 582.301 777.874 556.574C736.271 531.614 690.64 514.781 668.714 408.737C661.193 372.361 653.335 325.262 650.515 285C645.964 218.618 639.3 153.292 630.589 89.6707Z" stroke="#F9F9FD"/>
<path fill-rule="evenodd" clip-rule="evenodd" d="M660.768 90.6318C652.193 -47.0879 651.24 -190.691 691.08 -299.235C709.674 -349.873 733.178 -385.849 756.946 -418.444C774.433 -442.427 792.491 -462.657 805.552 -501.976C817.652 -538.381 826.85 -580.651 838.532 -618.009C853.942 -667.517 872.381 -710.373 893.14 -744.933C945.176 -831.397 1008.48 -871.837 1069.04 -885.865C1098.35 -892.683 1130.15 -896.232 1159.27 -877.647C1187.39 -859.715 1215.2 -831.36 1241.05 -798.298C1296.02 -728.084 1343.66 -625.257 1378.19 -495.251C1401.87 -406.078 1414.68 -319.371 1384.01 -228.909C1349.44 -126.94 1295.24 -70.6794 1250.56 -4.49992C1219.92 40.8899 1185.57 85.3831 1179.85 181.841C1175.29 258.593 1171.59 331.441 1159.8 403.99C1142.25 511.001 1116.44 607.937 1083.91 689.049C1054.17 762.943 1016.53 825.648 973.979 786.179C940.265 754.855 914.108 684.678 884.653 634.506C851.827 578.469 815.761 547.575 777.782 522.732C743.651 500.317 711.514 465.873 689.453 392.745C684.939 377.802 680.197 361.532 676.716 344.815C672.274 323.483 672.619 302.339 671.747 278.43C669.475 215.332 664.645 152.963 660.768 90.6318Z" stroke="#F9F9FD"/>
<path fill-rule="evenodd" clip-rule="evenodd" d="M694.043 79.3751C694.775 -51.4382 707.119 -175.067 740.926 -277.013C755.38 -320.623 772.639 -356.545 788.543 -396.507C801.348 -428.724 813.45 -458.658 828.174 -485.206C863.102 -548.069 891.489 -629.415 928.607 -685.393C978.157 -760.229 1034.92 -801.594 1091.23 -818.133C1118.73 -826.215 1147.14 -829.04 1174.97 -819.91C1198.86 -812.071 1221.75 -784.55 1242.98 -756.393C1284.59 -701.239 1324.99 -622.848 1352 -523.672C1411.57 -305.02 1294.13 -146.05 1233.86 -52.9538C1206.14 -10.1289 1163.78 39.4688 1152.43 124.295C1144.31 184.894 1139.36 246.521 1128.91 305.249C1100.83 462.966 1043.83 648.465 967.872 623.769C935.369 613.218 905.744 570.355 875.402 541.581C844.158 511.946 811.911 495.426 779.437 477.297C749.087 460.365 724.898 436.268 705.295 371.666C695.926 340.815 696.753 303.883 695.918 266.035C694.556 203.865 693.713 141.339 694.043 79.3751Z" stroke="#F9F9FD"/>
<path fill-rule="evenodd" clip-rule="evenodd" d="M724.343 62.6197C736.546 -134.831 781.868 -350.392 848.51 -465.061C926.899 -599.95 1011.82 -713.536 1105.48 -746.19C1148.91 -761.331 1196.47 -768.78 1237.44 -719.268C1268.63 -681.611 1304.85 -625.322 1322.01 -546.162C1364 -352.539 1270.61 -198.402 1217.4 -108.824C1188.76 -60.6004 1152.29 -13.6088 1130.7 56.8133C1118.18 97.644 1111.78 151.655 1101.67 196.5C1071.02 332.397 1020.57 442.007 957.73 461.61C928.674 470.665 899.405 459.463 870.569 450.558C841.051 441.447 811.166 436.499 781.832 423.785C758.415 413.629 730.818 396.434 722.194 332.565C711.318 252.08 719.363 143.254 724.343 62.6197Z" stroke="#F9F9FD"/>
<path fill-rule="evenodd" clip-rule="evenodd" d="M754.055 30.9005C771.853 -154.737 809.54 -335.815 872.896 -446.636C906.494 -505.401 945.496 -545.967 982.942 -586.046C1025.39 -631.47 1069.73 -666.729 1115.03 -684.218C1171.42 -706.005 1262.76 -725.643 1292.23 -561.868C1321.47 -399.307 1247.57 -255.431 1203.87 -173.44C1175.85 -120.916 1145.87 -72.7088 1119.1 -15.2892C1104.58 15.8403 1093.4 51.8092 1081.11 88.3201C1047.16 189.482 998.764 269.566 949.432 312.318C901.619 353.762 842.47 372.111 792 358.414C770.223 352.529 754.657 332.666 748.071 276.2C738.945 197.703 746.698 107.584 754.055 30.9005Z" stroke="#F9F9FD"/>
<path fill-rule="evenodd" clip-rule="evenodd" d="M783.579 -19.0978C801.26 -182.544 839.395 -331.831 895.021 -429.928C957.375 -539.898 1037.67 -601.004 1111.46 -632.078C1150.69 -648.583 1235.69 -693.333 1255.69 -565.259C1275.68 -437.185 1217.88 -310.972 1184.61 -241.492C1144.24 -157.294 1100.71 -75.9989 1057.23 -0.453199C1019.45 65.2306 979.14 132.384 938.223 183.108C915.145 211.883 891.106 235.378 866.388 253.313C848.086 266.487 824.812 286.136 805.623 276.33C757.223 251.564 775.124 59.0529 783.579 -19.0978Z" stroke="#F9F9FD"/>
<path fill-rule="evenodd" clip-rule="evenodd" d="M820.023 -68.0419C858.816 -377.139 981.724 -529.158 1100.06 -582.145C1127.56 -594.445 1204.65 -638.791 1220.02 -544.369C1234.92 -452.822 1187.55 -344.252 1165.37 -292.814C1096.65 -133.422 1011.74 -15.241 931.286 101.839C906.173 138.383 860.88 217.687 829.729 181.106C795.906 141.314 811.987 -3.9493 820.023 -68.0419Z" stroke="#F9F9FD"/>
<path fill-rule="evenodd" clip-rule="evenodd" d="M859.759 -127.535C893.496 -355.162 991.62 -485.714 1081.84 -528.753C1103.93 -539.283 1160.05 -572.071 1176.79 -508.55C1192.28 -449.79 1155.32 -364.647 1141.49 -330.814C1110.7 -255.473 1074.22 -193.409 1038.18 -133.753C1004.85 -78.559 971.168 -21.9838 936.103 24.6955C917.634 49.2675 882.994 101.698 862.006 63.7568C839.41 22.9404 852.269 -76.9906 859.759 -127.535Z" stroke="#F9F9FD"/>
<path fill-rule="evenodd" clip-rule="evenodd" d="M-224.966 254.761C-225.895 108.932 -256.299 -42.626 -241.284 -191.217C-228.954 -313.254 -166.882 -323.443 -129.645 -378.733C-100.054 -422.659 -83.2609 -500.472 -67.2582 -575.131C-52.8798 -642.158 -39.9649 -711.2 -24.8183 -777.127C-15.0132 -819.747 1.82374 -903.437 23.0876 -904.949C43.4441 -906.404 62.1103 -841.187 73.9349 -802.635C89.3523 -752.383 103.021 -698.81 117.992 -647.756C143.222 -561.639 173.493 -497.896 208.155 -437.568C247.599 -368.924 287.695 -302.624 328.442 -238.67C358.443 -191.441 388.649 -144.567 417.486 -92.6727C435.574 -60.1107 475.497 0.982661 475.68 61.0124C475.767 89.6557 465.121 121.378 457.943 144.274C445.796 183.031 431.952 218.467 418.064 253.137C392.197 317.72 365.233 379.373 338.562 441.773C303.944 522.758 270.878 602.418 240.446 694.356C208.982 789.523 178.922 887.825 148.249 984.783C127.475 1050.47 106.723 1124.23 76.7594 1164.54C39.2294 1214.92 8.42386 1161.79 -29.5306 1161.18C-62.18 1160.64 -59.7726 967.765 -63.9215 914.136C-68.085 859.853 -77.2608 809.322 -80.817 754.909C-85.2512 686.986 -85.3097 617.495 -86.4 548.845C-87.7244 464.874 -88.2513 384.934 -123.454 352.913C-143.489 334.719 -165.163 330.894 -185.9 319.997C-199.334 312.924 -224.673 300.833 -224.966 254.761Z" stroke="#F9F9FD"/>
<path fill-rule="evenodd" clip-rule="evenodd" d="M-208.916 228.819C-212.338 106.578 -232.557 -49.8807 -213.437 -176.065C-197.102 -283.897 -146.017 -297.875 -111.618 -354.52C-83.2204 -401.241 -70.5791 -477.695 -56.3842 -552.804C-44.996 -613.055 -33.9522 -673.886 -21.0251 -732.212C-11.4983 -775.196 3.04845 -847.762 22.8569 -856.658C40.6647 -864.657 59.7622 -800.593 69.758 -768.001C84.3414 -720.42 96.8141 -668.747 109.697 -618.157C132.334 -529.294 155.514 -449.382 188.645 -384.104C221.923 -318.545 258.33 -269.525 295.126 -218.506C323.911 -178.588 352.55 -137.511 379.899 -91.425C400.272 -57.1131 429.563 -13.1954 438.885 47.9904C446.265 96.3933 408.839 176.716 397.802 205.066C375.085 263.355 351.011 318.075 326.894 372.458C297.493 438.727 267.153 496.68 241.189 572.274C194.75 707.429 155.932 875.736 96.1766 976.186C60.136 1036.77 20.0281 1052.27 -20.0577 1043.2C-35.9308 1039.61 -39.7416 982.484 -41.7422 949.163C-45.0692 893.808 -45.487 837.5 -48.0445 781.92C-50.4409 729.892 -55.7613 680.461 -60.0483 629.442C-64.3867 577.75 -65.6032 524.787 -68.7983 472.74C-70.777 440.428 -72.7336 402.827 -81.3883 376.85C-90.3435 349.957 -105.117 338.688 -118.03 330.129C-142.279 314.206 -206.497 315.085 -208.916 228.819Z" stroke="#F9F9FD"/>
<path fill-rule="evenodd" clip-rule="evenodd" d="M-188.257 177.647C-194.012 65.439 -202.07 -74.3168 -178.622 -177.697C-159.457 -262.226 -118.581 -280.46 -89.385 -335.538C-65.1015 -381.339 -55.9292 -454.185 -43.8755 -521.879C-33.9847 -577.404 -24.0425 -633.172 -12.0547 -686.01C-2.96311 -726.081 8.75338 -780.412 26.8047 -794.392C42.2385 -806.337 59.6739 -752.827 68.2303 -726.193C82.7989 -680.802 94.6767 -629.943 106.474 -579.756C125.772 -497.634 143.53 -409.914 170.995 -343.115C197.683 -278.295 229.387 -240.034 261.684 -197.014C286.422 -164.053 311.006 -129.824 334.315 -90.5172C352.212 -60.3562 374.391 -24.6147 383.717 25.5727C391.783 68.8545 371.077 120.087 360.732 150.621C343.648 201.014 324.688 247.245 305.991 293.662C285.814 343.737 263.466 389.931 243.941 441.238C202.882 549.209 170.079 668.752 119.473 751.47C86.6995 805.055 42.5977 853.73 3.85562 844.977C-24.0059 838.669 -22.1728 681.481 -24.849 631.256C-29.2482 549.134 -37.746 462.851 -51.2441 387.206C-62.8359 322.386 -90.3821 302.397 -115.721 287.857C-131.595 278.731 -148.231 273.804 -163.584 259.694C-181.357 243.344 -185.844 224.68 -188.257 177.647Z" stroke="#F9F9FD"/>
<path fill-rule="evenodd" clip-rule="evenodd" d="M-168.987 125.051C-172.414 30.1854 -171.643 -81.9953 -149.445 -164.058C-129.992 -235.937 -95.3556 -254.862 -70.7213 -311.486C-51.4953 -355.662 -43.9443 -427.691 -33.6048 -486.112C-20.9684 -557.542 -3.26136 -689.471 28.6157 -716.351C58.2693 -741.341 89.2805 -581.708 100.016 -534.107C117.011 -458.764 131.226 -376.14 151.839 -306.563C169.59 -246.663 193.373 -213.55 218.616 -177.966C250.801 -132.517 299.666 -78.626 316.874 9.95058C329.701 75.9525 287.991 174.076 273.748 219.805C258.851 267.575 247.631 324.199 232.258 370.284C207.998 443.006 168.687 501.558 136.23 546.24C104.676 589.704 63.6996 637.811 27.9039 634.947C4.37768 633.075 -0.0986069 540.455 -5.11793 495.213C-12.3093 430.895 -21.871 373.261 -42.4106 329.515C-63.3171 284.984 -87.9587 264 -113.862 245.637C-127.159 236.278 -142.327 228.977 -154.222 210.072C-167.365 189.5 -167.666 161.515 -168.987 125.051Z" stroke="#F9F9FD"/>
<path fill-rule="evenodd" clip-rule="evenodd" d="M-145.509 70.3711C-145.318 -11.5861 -137.968 -98.9823 -116.171 -162.201C-98.0163 -214.859 -69.5999 -232.461 -52.2209 -286.292C-38.4552 -328.91 -31.448 -388.739 -22.2319 -438.23C-10.9604 -498.878 4.97768 -604.826 33.0064 -625.874C60.3623 -646.364 84.5583 -529.668 95.0471 -483.492C110.407 -415.784 122.842 -344.016 138.341 -276.494C150.483 -223.52 165.331 -189.378 185.102 -155.235C208.311 -115.132 240.691 -70.7071 253.089 -4.35901C262.027 43.6791 240.391 120.439 232.536 162.759C227.269 191.183 222.449 220.055 219.801 250.863C217.739 274.854 217.534 297.057 211.558 317.658C196.512 369.478 163.524 376.239 141.142 393.32C111.417 415.989 79.8771 441.749 48.7689 446.667C29.6491 449.74 19.8917 404.831 8.97867 373.24C-3.9166 335.894 -22.1733 309.034 -38.1187 280.852C-59.1622 243.599 -82.0636 220.427 -105.755 196.697C-116.441 185.987 -128.993 175.481 -137.273 154.191C-145.918 132.118 -145.574 99.9503 -145.509 70.3711Z" stroke="#F9F9FD"/>
<path fill-rule="evenodd" clip-rule="evenodd" d="M-120.849 21.7168C-117.071 -47.1162 -105.297 -112.904 -85.411 -161.564C-70.1669 -198.922 -49.922 -219.955 -37.6871 -264.841C-26.287 -306.683 -18.3428 -354.259 -8.92689 -398.996C1.03815 -446.292 15.8429 -525.342 38.8262 -538.212C63.5961 -552.072 82.6768 -472.33 93.2423 -428.135C106.59 -372.284 116.731 -312.193 128.665 -254.419C137.656 -211.356 149.125 -171.973 162.69 -137.58C176.916 -101.323 196.209 -66.5986 203.407 -16.7438C209.77 27.414 197.864 80.8366 195.763 125.611C193.515 173.448 197.454 223.695 184.992 264.771C159.293 349.481 94.7945 333.772 57.9216 335.584C21.5393 337.452 -7.71147 285.617 -37.1526 236.304C-56.5995 203.746 -76.8517 176.175 -96.7891 145.84C-117.115 114.889 -124.173 82.2936 -120.849 21.7168Z" stroke="#F9F9FD"/>
<path fill-rule="evenodd" clip-rule="evenodd" d="M-97.9369 -17.6807C-86.7643 -117.4 -51.8692 -170.4 -26.9232 -245.76C-6.5122 -307.453 8.79241 -435.215 43.1673 -452.115C82.1945 -471.296 105.558 -302.013 119.126 -236.693C134.182 -164.25 160.996 -105.323 172.147 -28.636C178.008 11.6144 172.974 49.1725 169.853 89.4042C166.432 133.581 163.861 178.748 152.051 214.306C128.804 284.281 83.4033 283.795 50.7061 285.721C16.8587 287.721 -13.0839 239.768 -40.0519 191.909C-68.6538 141.227 -109.381 84.5809 -97.9369 -17.6807Z" stroke="#F9F9FD"/>
<path fill-rule="evenodd" clip-rule="evenodd" d="M-79.2248 -44.7211C-66.6354 -115.768 -40.1799 -173.527 -18.7129 -228.053C-0.795489 -273.509 18.4798 -365.017 45.7987 -371.54C77.9069 -379.234 97.3666 -281.519 110 -221.604C122.435 -162.73 140.352 -100.566 147.237 -35.9495C154.418 31.362 135.297 122.015 117.062 169.646C96.7246 222.759 63.4504 242.384 34.8992 240.265C5.00481 238.11 -22.4248 194.214 -45.0651 148.683C-69.2698 100.012 -93.8657 37.755 -79.2248 -44.7211Z" stroke="#F9F9FD"/>
<path fill-rule="evenodd" clip-rule="evenodd" d="M-61.8608 -58.0969C-49.8352 -117.189 -28.99 -167.177 -9.76986 -211.766C5.0626 -246.19 26.9493 -304.723 48.3486 -306.157C71.8899 -307.739 91.8413 -258.608 101.2 -208.247C110.426 -158.576 120.147 -96.3 121.528 -41.8065C124.527 76.8616 63.4691 209.791 17.62 198.974C-25.8507 188.716 -85.8379 59.6403 -61.8608 -58.0969Z" stroke="#F9F9FD"/>
<path fill-rule="evenodd" clip-rule="evenodd" d="M-45.8025 -64.6127C-29.2126 -141.605 11.0844 -251.368 48.3914 -253.974C91.2135 -256.954 101.963 -134.809 96.3816 -46.291C90.7114 44.0515 41.3405 174.817 1.97367 157.147C-36.4481 139.905 -65.4638 26.6979 -45.8025 -64.6127Z" stroke="#F9F9FD"/>
<path fill-rule="evenodd" clip-rule="evenodd" d="M-28.8469 -77.0617C-14.8008 -141.526 15.1725 -222.046 46.434 -224.483C83.6829 -227.367 82.9802 -124.242 74.5335 -60.0573C65.7501 6.58371 27.0667 120.405 -5.54896 102.434C-37.2643 84.8896 -42.3074 -15.2764 -28.8469 -77.0617Z" stroke="#F9F9FD"/>
<path fill-rule="evenodd" clip-rule="evenodd" d="M-14.0798 -84.4808C-4.80842 -130.479 18.3958 -188.616 40.4548 -190.476C67.4174 -192.712 62.1761 -110.919 55.2097 -71.4405C46.9294 -24.4652 19.1739 57.1591 -4.11837 43.9308C-27.0509 30.9093 -21.7289 -46.5812 -14.0798 -84.4808Z" stroke="#F9F9FD"/>
</g>
</svg>
