<svg width="110" height="106" viewBox="0 0 110 106" fill="none" xmlns="http://www.w3.org/2000/svg">
<path d="M65.1166 58.9785H44.662C44.3726 58.979 44.0953 59.0963 43.8909 59.3047C43.6866 59.5132 43.572 59.7956 43.5723 60.09V92.9642H66.2092V60.09C66.2093 59.9441 66.181 59.7995 66.1262 59.6646C66.0713 59.5297 65.9908 59.4071 65.8894 59.3039C65.7879 59.2007 65.6674 59.1188 65.5348 59.063C65.4022 59.0071 65.2601 58.9784 65.1166 58.9785ZM54.9581 77.6572C54.3184 77.6542 53.7058 77.3943 53.2535 76.9341C52.8012 76.4739 52.5457 75.8506 52.5428 75.1999V71.4081C52.5435 70.7569 52.7983 70.1326 53.2512 69.6723C53.7041 69.2121 54.318 68.9536 54.9581 68.9536C55.5982 68.9536 56.2122 69.2121 56.6651 69.6723C57.1179 70.1326 57.3727 70.7569 57.3735 71.4081V75.1999C57.3705 75.8506 57.1151 76.4739 56.6627 76.9341C56.2104 77.3943 55.5978 77.6542 54.9581 77.6572Z" fill="#2F2E41"/>
<path d="M99.7109 8H10.8791C10.1159 8.00121 9.38429 8.3042 8.84462 8.84256C8.30495 9.38093 8.00122 10.1108 8 10.8721V70.6716C8.00073 71.4332 8.3043 72.1633 8.84408 72.7017C9.38385 73.2402 10.1157 73.543 10.8791 73.5438H99.7109C100.474 73.543 101.206 73.2402 101.746 72.7017C102.286 72.1633 102.589 71.4332 102.59 70.6716V10.8721C102.589 10.1108 102.285 9.38093 101.745 8.84256C101.206 8.3042 100.474 8.00121 99.7109 8Z" fill="#3F3D56"/>
<path d="M81.4313 97.01H29.9663C29.8254 97.01 29.6863 96.9787 29.5591 96.9183C29.4319 96.858 29.3199 96.7701 29.2311 96.6611C29.1423 96.5521 29.0791 96.4248 29.046 96.2884C29.0129 96.152 29.0108 96.0099 29.0398 95.8726L29.8384 92.0945C29.8838 91.8831 30.0005 91.6936 30.169 91.5574C30.3375 91.4212 30.5477 91.3465 30.7647 91.3457H80.6329C80.8499 91.3465 81.06 91.4212 81.2285 91.5574C81.397 91.6936 81.5137 91.8831 81.5591 92.0945L82.3577 95.8726C82.3867 96.0099 82.3846 96.152 82.3515 96.2884C82.3184 96.4248 82.2552 96.5521 82.1664 96.6611C82.0777 96.7701 81.9656 96.858 81.8384 96.9183C81.7112 96.9787 81.5721 97.01 81.4313 97.01H81.4313Z" fill="#2F2E41"/>
<path d="M100.165 11.9696V70.3869C100.164 70.7948 100.001 71.1857 99.7123 71.4741C99.4234 71.7625 99.0317 71.9249 98.6231 71.9256H67.7874C64.3762 68.7678 61.5776 65.0092 59.5321 60.8384C59.3975 60.5697 59.2693 60.2978 59.1475 60.0227C57.2838 55.9857 56.1552 51.6497 55.8146 47.2177C55.7922 46.9458 55.773 46.6739 55.7601 46.3988C55.7185 45.695 55.6992 44.9817 55.6992 44.2651C55.6931 39.4996 56.5947 34.7764 58.3559 30.347C58.4617 30.0719 58.5739 29.8 58.6892 29.5281C62.2338 21.2152 68.6387 14.4408 76.7478 10.4277H98.6231C99.0322 10.4286 99.4243 10.5915 99.7133 10.8805C100.002 11.1696 100.165 11.5612 100.165 11.9696Z" fill="#62BAEE"/>
<path d="M94.19 18.5191H13.1658C13.0816 18.5168 13.0014 18.4732 12.9425 18.3975C12.8836 18.3219 12.8506 18.2203 12.8506 18.1145C12.8506 18.0088 12.8836 17.9072 12.9425 17.8316C13.0014 17.7559 13.0816 17.7123 13.1658 17.71H94.19C94.2742 17.7123 94.3544 17.7559 94.4133 17.8316C94.4722 17.9072 94.5052 18.0088 94.5052 18.1145C94.5052 18.2203 94.4722 18.3219 94.4133 18.3975C94.3544 18.4732 94.2742 18.5168 94.19 18.5191Z" fill="#CACACA"/>
<path d="M18.1051 16.0918C19.2214 16.0918 20.1263 15.1861 20.1263 14.0689C20.1263 12.9516 19.2214 12.0459 18.1051 12.0459C16.9889 12.0459 16.084 12.9516 16.084 14.0689C16.084 15.1861 16.9889 16.0918 18.1051 16.0918Z" fill="#3F3D56"/>
<path d="M24.9773 16.0918C25.8703 16.0918 26.5942 15.1861 26.5942 14.0689C26.5942 12.9516 25.8703 12.0459 24.9773 12.0459C24.0843 12.0459 23.3604 12.9516 23.3604 14.0689C23.3604 15.1861 24.0843 16.0918 24.9773 16.0918Z" fill="#3F3D56"/>
<path d="M31.445 16.0918C32.338 16.0918 33.062 15.1861 33.062 14.0689C33.062 12.9516 32.338 12.0459 31.445 12.0459C30.552 12.0459 29.8281 12.9516 29.8281 14.0689C29.8281 15.1861 30.552 16.0918 31.445 16.0918Z" fill="#3F3D56"/>
<path d="M90.1495 12.0459H85.9259C85.8421 12.048 85.7624 12.0915 85.7038 12.1672C85.6451 12.2428 85.6123 12.3445 85.6123 12.4505C85.6123 12.5564 85.6451 12.6582 85.7038 12.7338C85.7624 12.8094 85.8421 12.853 85.9259 12.8551H90.1495C90.2332 12.853 90.313 12.8094 90.3716 12.7338C90.4302 12.6582 90.4631 12.5564 90.4631 12.4505C90.4631 12.3445 90.4302 12.2428 90.3716 12.1672C90.313 12.0915 90.2332 12.048 90.1495 12.0459Z" fill="#3F3D56"/>
<path d="M90.1495 13.6641H85.9259C85.8421 13.6662 85.7624 13.7097 85.7038 13.7853C85.6451 13.861 85.6123 13.9627 85.6123 14.0687C85.6123 14.1746 85.6451 14.2763 85.7038 14.352C85.7624 14.4276 85.8421 14.4712 85.9259 14.4732H90.1495C90.2332 14.4712 90.313 14.4276 90.3716 14.352C90.4302 14.2763 90.4631 14.1746 90.4631 14.0687C90.4631 13.9627 90.4302 13.861 90.3716 13.7853C90.313 13.7097 90.2332 13.6662 90.1495 13.6641Z" fill="#3F3D56"/>
<path d="M90.1495 15.2822H85.9259C85.8421 15.2843 85.7624 15.3279 85.7038 15.4035C85.6451 15.4792 85.6123 15.5809 85.6123 15.6868C85.6123 15.7928 85.6451 15.8945 85.7038 15.9701C85.7624 16.0458 85.8421 16.0893 85.9259 16.0914H90.1495C90.2332 16.0893 90.313 16.0458 90.3716 15.9701C90.4302 15.8945 90.4631 15.7928 90.4631 15.6868C90.4631 15.5809 90.4302 15.4792 90.3716 15.4035C90.313 15.3279 90.2332 15.2843 90.1495 15.2822Z" fill="#3F3D56"/>
<path d="M37.3385 37.1309H27.1692C26.4053 37.1309 25.7861 37.6743 25.7861 38.3446V38.3446C25.7861 39.015 26.4053 39.5584 27.1692 39.5584H37.3385C38.1023 39.5584 38.7215 39.015 38.7215 38.3446C38.7215 37.6743 38.1023 37.1309 37.3385 37.1309Z" fill="#62BAEE"/>
<path d="M43.8169 42.7949H20.6906C19.9327 42.7949 19.3184 43.3383 19.3184 44.0087C19.3184 44.679 19.9327 45.2225 20.6906 45.2225H43.8169C44.5748 45.2225 45.1891 44.679 45.1891 44.0087C45.1891 43.3383 44.5748 42.7949 43.8169 42.7949Z" fill="#E6E6E6"/>
<path d="M43.8169 48.459H20.6906C19.9327 48.459 19.3184 49.0024 19.3184 49.6728V49.6728C19.3184 50.3431 19.9327 50.8865 20.6906 50.8865H43.8169C44.5748 50.8865 45.1891 50.3431 45.1891 49.6728C45.1891 49.0024 44.5748 48.459 43.8169 48.459Z" fill="#E6E6E6"/>
<path d="M20.9358 68.5759C20.9376 69.7195 20.7449 70.854 20.367 71.9254H11.881C11.4952 71.9247 11.1255 71.7624 10.8527 71.4739C10.58 71.1855 10.4264 70.7945 10.4258 70.3866V59.1001C10.8999 59.019 11.3795 58.9783 11.8598 58.9785C13.0517 58.9784 14.2319 59.2266 15.3331 59.7089C16.4343 60.1912 17.4348 60.8981 18.2776 61.7894C19.1204 62.6806 19.789 63.7386 20.245 64.9031C20.7011 66.0675 20.9358 67.3156 20.9358 68.5759Z" fill="#62BAEE"/>
<path opacity="0.2" d="M100.165 29.6834V28.861H86.4191V19.3291H85.6023V28.861H69.8483V19.3291H69.0315V28.861H58.6271C58.5117 29.1341 58.3996 29.4071 58.2939 29.6834H69.0315V45.8044H55.6992C55.712 46.0807 55.7312 46.3538 55.7537 46.6268H69.0315V59.487H59.0851C59.2069 59.7633 59.335 60.0364 59.4695 60.3062H69.0315V71.1168H69.8483V60.3062H85.6023V71.1168H86.4191V60.3062H100.165V59.487H86.4191V46.6268H100.165V45.8044H86.4191V29.6834H100.165ZM85.6023 59.487H69.8483V46.6268H85.6023V59.487ZM85.6023 45.8044H69.8483V29.6834H85.6023V45.8044Z" fill="black"/>
<path d="M89.0659 65.7988C88.8908 65.8069 88.7175 65.7605 88.5695 65.6657C88.4214 65.5709 88.3057 65.4324 88.2381 65.2689C88.1705 65.1055 88.1542 64.9249 88.1915 64.7518C88.2288 64.5787 88.3178 64.4213 88.4464 64.301L88.505 64.0656C88.4973 64.0468 88.4895 64.0279 88.4817 64.0091C88.3054 63.5879 88.0099 63.2289 87.6323 62.9769C87.2547 62.725 86.812 62.5916 86.3596 62.5933C85.9073 62.595 85.4655 62.7318 85.0898 62.9865C84.7141 63.2412 84.4212 63.6025 84.248 64.025C83.5555 65.7112 82.6739 67.4003 82.4568 69.1832C82.3612 69.9713 82.4016 70.7701 82.576 71.5443C80.9496 67.9573 80.1051 64.0586 80.0997 60.1126C80.0993 59.1224 80.1537 58.133 80.2627 57.149C80.3527 56.3422 80.4775 55.5413 80.6373 54.746C81.509 50.4312 83.3806 46.387 86.0984 42.9455C87.4138 42.2198 88.4775 41.1039 89.1464 39.7481C89.3887 39.2608 89.5599 38.7406 89.6548 38.2036C89.5064 38.2233 89.3556 38.2356 89.2072 38.2454C89.161 38.2478 89.1123 38.2503 89.0661 38.2528L89.0487 38.2536C88.8856 38.261 88.7238 38.2205 88.583 38.1372C88.4421 38.0538 88.328 37.931 88.2545 37.7837C88.1811 37.6363 88.1513 37.4706 88.1688 37.3065C88.1863 37.1424 88.2503 36.9869 88.3532 36.8587C88.4173 36.779 88.4814 36.6993 88.5455 36.6197C88.6428 36.4967 88.7426 36.3762 88.8399 36.2532C88.8511 36.2415 88.8616 36.2292 88.8715 36.2163C88.9834 36.0761 89.0953 35.9384 89.2072 35.7982C89.0029 35.4777 88.7282 35.2092 88.4044 35.0136C87.283 34.3496 85.7359 34.8095 84.9259 35.8351C84.1134 36.8607 83.9602 38.2995 84.2423 39.5809C84.5198 40.6712 84.9788 41.7059 85.5997 42.6405C85.5389 42.7192 85.4756 42.7954 85.4148 42.8741C84.3031 44.3194 83.3342 45.8714 82.522 47.5078C82.7195 45.6746 82.4837 43.8201 81.8341 42.0969C81.1757 40.491 79.9416 39.1385 78.8548 37.7502C77.5495 36.0826 74.8727 36.8104 74.6427 38.9243C74.6405 38.9448 74.6383 38.9652 74.6362 38.9857C74.7976 39.0778 74.9556 39.1755 75.1102 39.2789C75.3044 39.4101 75.4549 39.5975 75.5419 39.8167C75.629 40.0358 75.6485 40.2765 75.598 40.507C75.5475 40.7376 75.4293 40.9474 75.2588 41.1089C75.0884 41.2703 74.8736 41.376 74.6428 41.412L74.6191 41.4157C74.6766 42.0039 74.7783 42.5868 74.9232 43.1594C75.3431 44.758 76.0851 46.2517 77.1027 47.5468C78.1203 48.8418 79.3915 49.9104 80.8367 50.6854C80.9316 50.7346 81.0241 50.7838 81.1189 50.8305C80.3029 53.1688 79.791 55.6044 79.5961 58.0762C79.4858 59.5344 79.4924 60.9993 79.6156 62.4565L79.6083 62.4049C79.2969 60.7845 78.442 59.3224 77.1879 58.2656C75.3253 56.7185 72.6937 56.1488 70.6843 54.9053C70.4707 54.7667 70.2224 54.6927 69.9686 54.6921C69.7149 54.6915 69.4662 54.7642 69.252 54.9018C69.0377 55.0394 68.8669 55.236 68.7596 55.4686C68.6523 55.7011 68.613 55.9598 68.6463 56.2142C68.649 56.2323 68.6517 56.2504 68.6545 56.2685C68.9541 56.3918 69.2457 56.5339 69.5278 56.6939C69.6892 56.786 69.8472 56.8838 70.0018 56.9871C70.196 57.1183 70.3465 57.3058 70.4336 57.5249C70.5206 57.7441 70.5402 57.9847 70.4897 58.2153C70.4391 58.4459 70.3209 58.6556 70.1504 58.8171C69.98 58.9786 69.7653 59.0842 69.5344 59.1202L69.5107 59.1239C69.4937 59.1264 69.4791 59.1288 69.4621 59.1313C69.9739 60.3669 70.6923 61.5042 71.5857 62.4934C72.6894 63.6908 74.0234 64.6476 75.5058 65.3053C76.9882 65.9629 78.5879 66.3075 80.2067 66.3179H80.2092C80.6486 68.2486 81.2853 70.1279 82.109 71.9255H88.8958C88.9201 71.8493 88.942 71.7705 88.9639 71.6943C88.3357 71.7342 87.7051 71.6962 87.086 71.5812C87.5895 70.9565 88.0931 70.3268 88.5966 69.7021C88.6078 69.6904 88.6184 69.6781 88.6282 69.6652C88.8836 69.3455 89.1415 69.0282 89.3969 68.7085L89.397 68.7081C89.4107 67.728 89.2994 66.7503 89.0661 65.7989L89.0659 65.7988ZM81.2941 50.3411L81.2976 50.3362L81.2941 50.346V50.3411ZM79.7908 64.0429L79.7324 63.9101C79.7348 63.8142 79.7348 63.7182 79.7324 63.6199C79.7324 63.5928 79.7275 63.5657 79.7275 63.5387C79.7494 63.7084 79.7689 63.8781 79.7932 64.0478L79.7908 64.0429Z" fill="#2F2E41"/>
</svg>
