<svg width="360" height="22" viewBox="0 0 360 22" fill="none" xmlns="http://www.w3.org/2000/svg">
    <path fill-rule="evenodd" clip-rule="evenodd" d="M119.504 1.943C79.907 1.487 40.148 3.153 1.822 10.15c-.684.124-.968.369-1.024.425a1.09 1.09 0 0 0-.321.974c.025.176.193.92 1.11.996.635.052 5.135-.31 6.872-.404 8.175-.437 16.333-1.06 24.487-1.782 18.487-1.628 36.95-3.037 55.467-4.32a1405.036 1405.036 0 0 1 31.19-1.807c25.005.292 49.947 1.432 74.424 2.609-9.729.599-18.668 1.206-26.081 1.6-12.499.663-24.975 1.446-37.45 2.478-6.409.528-12.81 1.102-19.207 1.78-.708.076-2.322.155-3.104.248a3.109 3.109 0 0 0-.679.14c-.676.26-.761.795-.769 1.064-.004.164.052 1.057 1.192 1.231 52.991 8.169 108.276-1.334 161.458 6.606a1.145 1.145 0 0 0 .337-2.265c-50.088-7.478-102.043.518-152.195-5.352 4.382-.425 8.767-.808 13.156-1.17 12.451-1.03 24.905-1.812 37.384-2.475 12.557-.665 29.532-1.964 47.301-2.783 15.249.85 30.489 1.803 45.74 2.611 6.435.34 12.871.622 19.303.968 2.644.14 9.447.731 10.433.512.767-.172.951-.721.997-.997.047-.298.018-.67-.33-1.024-.108-.112-.431-.344-1.094-.534-17.934-5.137-47.301-5.056-74.805-3.815-5.916-.332-11.832-.647-17.75-.93-13.548-.653-27.244-1.308-41.02-1.824 38.822-.96 77.662-.684 116.513.01 16.312.293 60.281 2.054 77.598 3.61a1.146 1.146 0 0 0 .877 1.94c3.572-.166 5.638-.378 6.456-.595.51-.135.788-.35.916-.491.315-.34.373-.705.311-1.05a1.217 1.217 0 0 0-.36-.67c-.15-.15-.514-.377-1.136-.533-6.807-1.693-65.198-4.152-84.621-4.5-51.325-.916-102.629-1.103-153.894 1.313zm157.032 7.083c-10.03-1.361-21.787-1.84-34.052-1.809 6.247.363 12.497.717 18.749 1.049 5.099.271 10.201.503 15.303.76zM72.2 4.9C59.042 5.87 45.898 6.92 32.744 8.08c-1.518.133-3.035.263-4.554.392C42.736 6.689 57.434 5.555 72.2 4.9z" fill="#4285F4"/>
</svg>
