<svg width="215" height="136" viewBox="0 0 215 136" fill="none" xmlns="http://www.w3.org/2000/svg">
    <g clip-path="url(#pz5sf72iya)">
        <path d="M24.896 80.526h-1.354v-1.354h-.541v1.354h-1.355v.542h1.355v1.354h.541v-1.354h1.354v-.542zM160.043 25.682h-1.354v-1.354h-.542v1.354h-1.354v.542h1.354v1.354h.542v-1.354h1.354v-.542zM180.626 82.422a1.898 1.898 0 0 1-1.896-1.896c0-1.045.851-1.896 1.896-1.896 1.046 0 1.896.85 1.896 1.896 0 1.046-.85 1.896-1.896 1.896zm0-3.25c-.746 0-1.354.608-1.354 1.354 0 .746.608 1.354 1.354 1.354.746 0 1.354-.608 1.354-1.354 0-.746-.608-1.354-1.354-1.354zM17.855 92.307a1.898 1.898 0 0 1-1.896-1.895c0-1.046.85-1.896 1.896-1.896 1.045 0 1.896.85 1.896 1.895 0 1.046-.85 1.896-1.896 1.896zm0-3.25c-.746 0-1.354.608-1.354 1.355 0 .746.608 1.354 1.354 1.354.746 0 1.354-.608 1.354-1.355 0-.746-.608-1.354-1.354-1.354zM169.586 36.48c0-.03.009-2.868 2.971-2.897 2.443-.025 2.711-2.221 2.72-2.315l.539.057c-.002.027-.322 2.77-3.254 2.8-2.425.023-2.434 2.254-2.433 2.349l-.542.004-.001.001zM31.87 35.26l-.542-.004.271.003h-.27c0-.096-.021-2.328-2.434-2.352-2.932-.029-3.252-2.772-3.254-2.8l.539-.055c.01.094.279 2.29 2.72 2.315 2.96.03 2.971 2.866 2.971 2.896l-.001-.003z" fill="#A3A8B6"/>
        <path d="M147.644 103.758h-3.619v23.448h3.619v-23.448z" fill="#D9DBE1"/>
        <path d="M147.914 127.478h-4.16v-23.989h4.16v23.989zm-3.618-.542h3.076V104.03h-3.076v22.906z" fill="#D9DBE1"/>
        <path d="M150.457 100.141h-9.111v4.958h9.111v-4.958zM152.533 126.746h-13.398v4.02h13.398v-4.02z" fill="#C9CCD4"/>
        <path d="M131.675 101.614h26.575a2.521 2.521 0 0 0 2.452-1.93l7.893-32.614a2.514 2.514 0 0 0-2.443-3.105h-18.639a2.512 2.512 0 0 0-2.412 1.806L136.52 95.05h-7.37v4.043a2.523 2.523 0 0 0 2.523 2.522h.002z" fill="#ECEDF0"/>
        <path d="M158.252 101.885h-26.576a2.796 2.796 0 0 1-2.793-2.793v-4.313h7.437l8.524-29.084a2.801 2.801 0 0 1 2.672-2.001h18.639c.86 0 1.657.387 2.188 1.063a2.77 2.77 0 0 1 .519 2.376l-7.894 32.615a2.787 2.787 0 0 1-2.716 2.137zm-28.829-6.565v3.772a2.255 2.255 0 0 0 2.252 2.252h26.576a2.247 2.247 0 0 0 2.189-1.723l7.894-32.615c.162-.673.01-1.37-.417-1.915a2.231 2.231 0 0 0-1.764-.856h-18.638c-.989 0-1.874.664-2.153 1.612l-8.639 29.473h-7.301.001z" fill="#ECEDF0"/>
        <path d="M90.398 68.444h17.822c.442 0 .836.275.988.69l4.936 13.49h-20.06l-4.672-12.769a1.05 1.05 0 0 1 .988-1.41h-.002z" fill="#9499A9"/>
        <path d="M123.48 81.241h-12.298v1.384h12.298v-1.384z" fill="#9499A9"/>
        <path d="M89.244 68.444h17.822c.442 0 .836.275.987.69l4.936 13.49H92.93l-4.672-12.769a1.05 1.05 0 0 1 .987-1.41h-.001z" fill="#62BAEE"/>
        <path d="M100.519 77.05c.618-.298.803-1.197.413-2.01-.39-.814-1.208-1.232-1.826-.936-.618.297-.803 1.197-.413 2.01.39.813 1.208 1.232 1.826.935z" fill="#fff"/>
        <path d="m100.578 122.982-1.219 5.063h5.279l1.219-5.063h-5.279z" fill="#D18C76"/>
        <path d="M104.851 128.316h-5.835l1.348-5.604h5.836l-1.349 5.604zm-5.147-.542h4.72l1.089-4.52h-4.721l-1.088 4.52z" fill="#D18C76"/>
        <path d="M105.044 126.389s-2.868 2.176-5.278 0l-7.148 3.724c-.314.164-.198.64.157.64h12.629a.608.608 0 0 0 .588-.762l-.947-3.602h-.001z" fill="#0B0D17"/>
        <path d="m129.285 122.982 1.219 5.063h5.278l-1.218-5.063h-5.279z" fill="#D18C76"/>
        <path d="M136.127 128.316h-5.835l-1.349-5.604h5.835l1.349 5.604zm-5.408-.542h4.72l-1.088-4.52h-4.721l1.089 4.52z" fill="#D18C76"/>
        <path d="M135.649 126.389s-2.868 2.176-5.278 0l-7.147 3.724c-.315.164-.198.64.157.64h12.629a.607.607 0 0 0 .587-.762l-.946-3.602h-.002zM136.309 50.985s7.406-.91 4.157-6.106c0 0 1.559-4.287-3.118-4.157 0 0-.65-3.249-3.119-1.17 0 0-3.509-1.689-3.897 1.298 0 0-.39 1.689 1.688 2.729l4.288 7.406h.001z" fill="#0B0D17"/>
        <path d="m138.129 57.253-1.689-7.178s3.119-1.949.91-3.249c0 0-.78 0-1.17.52 0 0 .52-2.988-1.558-3.118-2.079-.13-2.989-1.429-2.989-1.429s-4.677 7.406-2.209 8.705c2.469 1.298 2.599.65 2.599.65l-.65 5.36 6.756-.26z" fill="#D18C76"/>
        <path d="m131.066 57.796.631-5.21c-.496.017-1.293-.26-2.4-.843-.391-.206-.654-.548-.778-1.015-.652-2.435 2.739-7.845 2.884-8.074l.218-.344.233.333c.034.048.871 1.195 2.783 1.315.563.035 1.011.259 1.332.665.488.617.555 1.524.536 2.13a2.16 2.16 0 0 1 .844-.196h.073l.064.038c.607.356.917.801.925 1.321.013 1.03-1.197 1.961-1.664 2.282l1.721 7.315-7.402.285v-.002zm.73-5.774s-.027.018-.04.079l.535.085-.61 5.044 6.11-.235-1.658-7.047.164-.103c.441-.276 1.584-1.16 1.573-1.923-.004-.306-.197-.574-.589-.82-.176.014-.64.083-.883.407l-.674.899.191-1.108c.003-.015.259-1.55-.368-2.342-.224-.283-.531-.434-.94-.46-1.57-.097-2.511-.822-2.932-1.244-.709 1.184-3.137 5.434-2.63 7.334.086.321.252.542.508.676 1.866.982 2.243.76 2.245.758h-.002z" fill="#D18C76"/>
        <path d="M106.631 39.629c.001.042.007.084.007.126a2.647 2.647 0 1 1-5.295 0c0-.042.004-.084.007-.126h-4.672v4.287a2.647 2.647 0 1 1 0 5.295v5.548h14.5v-15.13H106.631z" fill="#62BAEE"/>
        <path d="m127.31 80.56-2.006 4.781-15.702 3.181a6.833 6.833 0 0 0-5.223 4.855l-8.59 30.688h10.506l7.031-25.26 22.75-2.572.644-14.748-9.41-.927v.002z" fill="#1A1F36"/>
        <path d="M106.501 124.337H95.434l8.685-31.032a7.073 7.073 0 0 1 5.43-5.047l15.563-3.152 2.027-4.834 9.863.969-.666 15.236-22.799 2.578-7.036 25.281v.001zm-10.354-.541h9.943l7.024-25.237 22.701-2.567.624-14.26-8.955-.882-1.984 4.73-15.842 3.21a6.534 6.534 0 0 0-5.016 4.662l-8.493 30.344h-.002z" fill="#1A1F36"/>
        <path d="m110.153 62.593-2.896-5.482-3.966-1.433-3.967-3.084s.772-.661 1.983 0l3.084 1.763-1.542-1.763-.881-1.873s1.542-.22 2.093.772l1.322 1.652 3.745.66s.992-.11 1.543.992l2.787 5.482-3.306 2.314h.001z" fill="#D18C76"/>
        <path d="m110.059 62.991-2.991-5.66-3.908-1.412-4.262-3.314.252-.216c.038-.032.929-.774 2.289-.032l1.69.965-.505-.578-1.054-2.239.363-.05c.071-.01 1.714-.231 2.356.886l1.245 1.556 3.613.638c.223-.011 1.204.01 1.77 1.143l2.892 5.689-3.75 2.624zm-6.634-7.55 4.025 1.452 2.802 5.303 2.861-2.003-2.68-5.271c-.462-.924-1.263-.847-1.271-.845l-.04.004-3.885-.686-1.411-1.77c-.3-.541-1-.644-1.439-.65l.693 1.471 2.58 2.948-4.485-2.563c-.6-.327-1.066-.286-1.352-.193l3.602 2.802z" fill="#D18C76"/>
        <path d="M141.448 79.172s6.584 13.44 3.857 16.736c-3.409 4.118-19.745 2.393-19.745 2.393l10.027 25.761H125.56l-12.155-29.09a3.366 3.366 0 0 1 2.425-4.594l14.557-4.57-.353-4.94 11.416-1.696h-.002z" fill="#1A1F36"/>
        <path d="M135.982 124.333h-10.603l-12.224-29.256a3.629 3.629 0 0 1 .14-3.1 3.623 3.623 0 0 1 2.467-1.862l14.341-4.503-.356-4.975 11.859-1.763.087.177c.272.556 6.629 13.637 3.821 17.028-3.183 3.847-16.847 2.783-19.542 2.532l10.012 25.72-.002.002zm-10.242-.541h9.45l-10.045-25.808.442.046c.162.018 16.232 1.664 19.508-2.297 1.05-1.27.721-4.5-.952-9.338-1.116-3.227-2.5-6.186-2.855-6.928l-10.97 1.63.351 4.903-14.788 4.642a3.088 3.088 0 0 0-2.111 1.587 3.084 3.084 0 0 0-.119 2.638l12.086 28.923.003.002z" fill="#1A1F36"/>
        <path d="M113.131 59.084c-.252.126-5.086 3.567-5.086 3.567l5.2 10.68a2.61 2.61 0 0 0 3.995 1.074l8.061-6.154.57 17.073 17.588-1.219-1.135-15.603 4.791 6.305-2.647-.261.252 5.935 8.534.806c2.107.2 3.613-1.995 2.669-3.89l-9.043-18.176a6.127 6.127 0 0 0-4.072-3.234l-4.646-1.102s-6.305 4.917-6.683 0h-2.929a5.964 5.964 0 0 0-4.531 2.084l-7.293 8.507-3.595-6.393v.001z" fill="#2B335A"/>
        <path d="m144.507 78.354-6.882-.806s-.806-.705-.907-1.613l-2.521.302s-.705-.201-.503-1.007c0 0-.706-.605-.404-1.11 0 0-.605-.705-.202-1.208l3.124-2.419-1.411-.403s-1.713.907-2.418.201l1.915-1.41 3.527.605s.806.805.606 1.41c0 0 .503.404.403.908 0 0 .504.605.302 1.109 0 0 .504.605.202 1.109l5.097.772.072 3.563v-.003z" fill="#D18C76"/>
        <path d="m144.648 78.66-7.139-.852-.064-.055c-.033-.029-.737-.654-.949-1.517l-2.321.279-.053-.015a1.047 1.047 0 0 1-.723-1.174c-.27-.275-.555-.728-.421-1.166-.25-.357-.477-.948-.102-1.416l.02-.026 2.728-2.111-.795-.228c-.424.207-1.896.847-2.638.103l-.222-.222 2.261-1.666 3.727.64.061.06c.086.087.792.817.709 1.512.162.17.416.506.39.923.144.2.419.664.317 1.135.122.184.316.55.263.94l4.772.766.179 4.093v-.003zm-6.904-1.37 6.892.76-.061-3.025-5.677-.797.209-.347c.197-.33-.174-.79-.178-.796l-.103-.125.06-.15c.115-.287-.148-.7-.26-.836l-.081-.098.024-.128c.066-.333-.303-.639-.307-.643l-.148-.118.06-.178c.109-.328-.277-.847-.483-1.074l-3.325-.57-1.485 1.094c.565.134 1.466-.236 1.795-.41l.096-.052 2.03.58-3.518 2.724c-.217.32.208.837.212.842l.126.148-.099.167c-.174.29.343.76.348.763l.126.109-.039.162c-.111.443.138.61.272.666l2.727-.327.03.272c.073.66.584 1.213.759 1.384l-.002.003z" fill="#D18C76"/>
        <path d="M122.462 84.705h-3.394v45.266h3.394V84.705z" fill="#D9DBE1"/>
        <path d="M122.734 130.243h-3.935V84.436h3.935v45.807zm-3.394-.542h2.852V84.977h-2.852v44.724z" fill="#D9DBE1"/>
        <path d="M154.426 82.625H86.842v3.278h67.584v-3.278z" fill="#C9CCD4"/>
        <path d="M154.698 86.174H86.572v-3.82h68.126v3.82zm-67.584-.541h67.042v-2.737H87.114v2.737zM114.518 130.766h12.608a3.783 3.783 0 0 0-3.782-3.783h-5.043a3.783 3.783 0 0 0-3.782 3.783h-.001z" fill="#C9CCD4"/>
        <path d="m81.89 122.982 1.49 5.063H78.1l-1.489-5.063h5.279z" fill="#FFB8B8"/>
        <path d="M83.741 128.316H77.9l-1.649-5.604h5.842l1.65 5.604zm-5.437-.542h4.714l-1.33-4.52h-4.713l1.33 4.52z" fill="#FFB8B8"/>
        <path d="M77.695 126.389s2.868 2.176 5.278 0l7.148 3.724c.314.164.197.64-.157.64h-12.63a.607.607 0 0 1-.587-.762l.947-3.602z" fill="#0B0D17"/>
        <path d="m55.347 122.982-.135 5.063h-5.278l.135-5.063h5.278z" fill="#FFB8B8"/>
        <path d="M55.477 128.316h-5.82l.15-5.604h5.82l-.15 5.604zm-5.264-.542h4.735l.12-4.52h-4.735l-.12 4.52z" fill="#FFB8B8"/>
        <path d="M49.798 126.389s2.868 2.176 5.279 0l7.147 3.724c.314.164.198.64-.157.64H49.438a.607.607 0 0 1-.588-.762l.947-3.602h.001z" fill="#0B0D17"/>
        <path d="M83.903 123.927h-8.937L51.723 64.025h14.305l7.719 19.819 10.156 40.083z" fill="#1A1F36"/>
        <path d="M60.002 63.464c0 .406 1.354 24.375 1.354 24.375l-4.062 36.156h-8.802l.677-35.344-2.573-24.24 13.406-.947z" fill="#1A1F36"/>
        <path d="M98.057 21.27a2.647 2.647 0 1 1-5.295 0h-5.548v4.288a2.647 2.647 0 1 0 0 5.294v5.549h14.5V21.27h-3.657z" fill="#62BAEE"/>
        <path d="m79.662 40.528 4.287 6.052 8.386-10.335 5.28-.536 1.765-2.018s.757-1.639 1.892-1.26l-.504 1.765s1.135-1.387 2.018-.883l-.883 2.144-2.9 3.278-4.918 1.135s-7.8 14.522-10.414 14.522c-2.032 0-6.155-4.626-7.584-6.23-2.278-2.554-2.708-3.25-2.708-3.25l6.286-4.383-.003-.001z" fill="#FFB8B8"/>
        <path d="M83.667 54.661c-1.93 0-5.368-3.606-7.785-6.32-2.267-2.543-2.718-3.258-2.737-3.287l-.135-.218 6.718-4.684 4.236 5.98 8.23-10.146 5.286-.537 1.67-1.91c.133-.268.947-1.786 2.205-1.367l.247.082-.31 1.088c.459-.328 1.065-.585 1.626-.266l.207.118-.991 2.406-2.987 3.377-4.884 1.127c-.342.633-2.14 3.92-4.177 7.168-4.634 7.388-5.976 7.388-6.418 7.388v.002zm-9.912-9.683c.266.36.956 1.235 2.532 3.003 3.63 4.074 6.113 6.139 7.381 6.139.554 0 2.067-.926 5.959-7.134 2.246-3.582 4.198-7.208 4.218-7.245l.058-.108 4.952-1.143 2.813-3.18.756-1.835c-.644-.065-1.438.88-1.448.892l-.83 1.014.781-2.736c-.758.009-1.296 1.146-1.302 1.16l-.017.035-.025.03-1.837 2.097-5.273.537-8.54 10.524-4.337-6.125-5.841 4.074z" fill="#FFB8B8"/>
        <path d="M73.918 33.807c-1.372-1.862 1.05-6.799 1.354-9.073.952-7.12-6.943-6.547-6.943-6.547-6.328-.63-7.74 4.746-8.359 7.224-1.219 4.875-3.385 5.417-5.146 6.771-1.76 1.354-4.333 5.823-1.49 8.26 1.297 1.111 17.135 3.852 19.771 2.98 3.019-1 2.185-7.753.813-9.615z" fill="#0B0D17"/>
        <path d="m61.962 35.134 2.744-6.073s-2.156-4.114.685-3.723c0 0 5.585.784 6.661-3.135 0 0 3.723 10.678-3.331 9.797l-.196 4.506-6.564-1.372h.001z" fill="#FFB8B8"/>
        <path d="m68.784 36.837-7.206-1.506 2.829-6.263c-.274-.551-1.185-2.557-.506-3.524.29-.414.805-.574 1.528-.474.055.008 5.363.703 6.364-2.938l.23-.839.286.821c.089.259 2.18 6.355.033 9.01-.733.907-1.863 1.3-3.362 1.175l-.198 4.538h.002zm-6.435-1.899 5.921 1.238.195-4.481.292.036c1.444.18 2.51-.138 3.166-.948 1.545-1.91.589-6.05.105-7.744-1.59 3.24-6.619 2.576-6.673 2.569-.505-.07-.845.013-1.012.249-.42.599.147 2.207.603 3.08l.06.116-2.657 5.886v-.001z" fill="#FFB8B8"/>
        <path d="M63.191 32.63s4.414 4.414 6.431.127l6.137 2.495c.848.345 1.57.943 2.067 1.71l4.784 7.394-5.8 6.052-2.647-2.773-6.431 19.04s-8.488-.552-10.875.716c-6.636 3.52-11.947-.717-11.947-.717l9.456-21.309h-6.934l4.12-9.103A5.36 5.36 0 0 1 56 33.132l7.194-.502h-.002z" fill="#2B335A"/>
        <path d="M51.446 69.055c-1.207 0-2.268-.195-3.127-.442-2.184-.626-3.524-1.681-3.579-1.726l-.164-.13 9.372-21.12H47.01l4.294-9.486a5.633 5.633 0 0 1 4.671-3.289l7.32-.51.088.086c.021.022 2.245 2.216 4.126 1.887.777-.136 1.406-.703 1.867-1.685l.11-.233L75.86 35a4.719 4.719 0 0 1 2.192 1.815l4.901 7.572L76.81 50.8l-2.533-2.655-6.354 18.812-.207-.014c-.084-.005-8.438-.532-10.73.686-2.016 1.068-3.909 1.425-5.538 1.425l-.001.002zm-6.2-2.47c.94.655 5.731 3.618 11.482.566 2.244-1.19 9.46-.837 10.812-.76l6.508-19.267 2.761 2.893 5.456-5.693-4.668-7.214a4.184 4.184 0 0 0-1.941-1.607l-5.905-2.401c-.532 1.01-1.255 1.6-2.151 1.758-1.948.34-4.05-1.514-4.511-1.95l-7.073.492a5.087 5.087 0 0 0-4.22 2.973l-3.947 8.72h6.932l-9.537 21.49h.001z" fill="#2B335A"/>
        <path d="M66.962 53.884a2.647 2.647 0 1 0 2.057-4.879l1.91-4.531-3.95-1.666a2.646 2.646 0 1 0-4.879-2.057l-5.112-2.155-5.635 13.361 13.943 5.879 1.666-3.95v-.002z" fill="#62BAEE"/>
        <path d="m55.185 43.411-3.278 8.321 7.186 1.639 3.027-2.522 2.395-.125s-.63 1.26-1.386 1.638l-1.387 1.513h3.404l2.648-1.892s.883.126.757.757c0 0 .945.19.567 1.071 0 0 .504.126.252.757l-3.027 2.522-5.17.756-2.585-.819-11.865-.587a2.445 2.445 0 0 1-2.157-3.332l4.003-10.26 6.615.562.001.001z" fill="#FFB8B8"/>
        <path d="m61.152 58.125-2.611-.827-11.831-.586a2.686 2.686 0 0 1-2.145-1.237 2.687 2.687 0 0 1-.251-2.463l4.076-10.449 7.18.611-3.296 8.367 6.749 1.54 2.993-2.494 2.95-.156-.208.416c-.027.054-.657 1.298-1.461 1.736l-.939 1.024h2.702l2.665-1.904.107.014c.06.009.6.095.862.466.078.11.124.233.136.365.177.074.414.215.55.47a.929.929 0 0 1 .066.667.699.699 0 0 1 .188.228c.109.212.104.467-.012.758l-.026.064-3.137 2.614-5.307.776zM48.749 43.136l-3.93 10.072a2.15 2.15 0 0 0 .2 1.972 2.15 2.15 0 0 0 1.718.99l11.9.59 2.56.812 5.031-.737 2.912-2.427c.035-.107.04-.195.01-.249-.03-.058-.098-.082-.098-.082l-.309-.078.126-.292c.077-.18.088-.327.032-.435-.085-.165-.32-.248-.404-.265l-.262-.056.052-.263c.02-.1-.007-.155-.033-.192-.081-.116-.27-.188-.398-.222l-2.621 1.873h-4.108l1.837-2.004.044-.023c.389-.195.775-.702 1.027-1.101l-1.81.095-3.061 2.55-7.626-1.74 3.261-8.276-6.051-.515v.003z" fill="#FFB8B8"/>
        <path d="M202.807 130.63H11.057v.542h191.75v-.542z" fill="#D9DBE1"/>
    </g>
    <defs>
        <clipPath id="pz5sf72iya">
            <path fill="#fff" transform="translate(12 -5.125)" d="M0 0h191v146.25H0z"/>
        </clipPath>
    </defs>
</svg>
