<svg width="214" height="136" viewBox="0 0 214 136" fill="none" xmlns="http://www.w3.org/2000/svg">
    <g clip-path="url(#tp8ec63zta)">
        <path d="m180.45 125.576.188-4.226a13.644 13.644 0 0 1 6.367-1.612c-3.058 2.5-2.676 7.319-4.749 10.681a8.21 8.21 0 0 1-6.021 3.794l-2.559 1.567a13.761 13.761 0 0 1 2.9-11.149 13.278 13.278 0 0 1 2.443-2.269 36.351 36.351 0 0 0 1.431 3.214zM51.092 120.945l-6.175-1.87c-.81-3.29-.805-6.729.016-10.016 2.543 5.46 9.809 6.711 13.996 11.041a12.521 12.521 0 0 1 3.34 10.327l1.352 4.372a20.984 20.984 0 0 1-15.385-8.485 20.274 20.274 0 0 1-2.433-4.464c2.619-.297 5.289-.905 5.289-.905z" fill="#ECEDF0"/>
        <path d="M159.053 135.089a.48.48 0 0 1-.481.481h-1.933a.48.48 0 0 1-.481-.478v-58.47c0-1.289-.433-2.335-.965-2.337H34.843c-.534.002-.964 1.048-.967 2.337v58.109a.482.482 0 0 1-.435.478c-.39.039-.779.072-1.166.104l-.029.002c-.212.019-.423.034-.635.051h-.002c-.11-.2-.217-.404-.325-.609a.5.5 0 0 1-.053-.223V73.59c0-.356.015-.714.039-1.068.034-.485.094-.968.18-1.447.406-2.234 1.325-3.747 2.369-3.752h122.396c.153.002.303.034.443.094.205.091.39.221.546.383.211.219.391.466.536.733.514.907.882 2.258 1.012 3.83 0 .015.003.03.003.044.033.39.05.786.048 1.183l.033 5.153.022 3.073.065 9.643.024 3.424.106 40.206z" fill="#D9DBE1"/>
        <path d="M114.387 49.497h-12.265a.655.655 0 0 0-.654.655v19.375h13.574V50.152a.655.655 0 0 0-.655-.655zm-6.092 11.009a1.455 1.455 0 0 1-1.448-1.449v-2.234a1.448 1.448 0 1 1 2.897 0v2.234a1.455 1.455 0 0 1-1.449 1.449z" fill="#B3B7C2"/>
        <path d="M101.426 68.907v1.87c0 .201.164.365.365.365h12.927a.367.367 0 0 0 .366-.365v-1.87h-13.658z" fill="#2B335A"/>
        <path d="M134.696 19.26H82.268a1.702 1.702 0 0 0-1.7 1.699v35.379a1.7 1.7 0 0 0 1.7 1.7h52.428c.939-.002 1.699-.762 1.7-1.7V20.959a1.703 1.703 0 0 0-1.7-1.7z" fill="#D9DBE1"/>
        <path d="M134.259 20.487H82.706a.91.91 0 0 0-.909.91V55.9a.91.91 0 0 0 .91.909h51.552a.911.911 0 0 0 .909-.91V21.399a.911.911 0 0 0-.909-.91z" fill="#fff"/>
        <path d="M124.217 71.793h-30.67a.564.564 0 0 1-.553-.68l.476-2.261a.567.567 0 0 1 .552-.448h29.719c.267.001.497.188.552.448l.476 2.26a.564.564 0 0 1-.552.68z" fill="#B3B7C2"/>
        <path d="M95.067 68.811h-.71a.117.117 0 0 0-.117.117v.332c0 .065.052.118.117.118h.71a.117.117 0 0 0 .117-.118v-.332a.117.117 0 0 0-.117-.117zM96.956 68.811h-.71a.117.117 0 0 0-.117.117v.332c0 .065.053.118.117.118h.71a.117.117 0 0 0 .118-.118v-.332a.117.117 0 0 0-.118-.117zM98.846 68.811h-.71a.117.117 0 0 0-.118.117v.332c0 .065.053.118.118.118h.71a.117.117 0 0 0 .117-.118v-.332a.117.117 0 0 0-.117-.117zM100.735 68.811h-.71a.117.117 0 0 0-.117.117v.332c0 .065.052.118.117.118h.71a.117.117 0 0 0 .117-.118v-.332a.117.117 0 0 0-.117-.117zM102.624 68.811h-.71a.117.117 0 0 0-.117.117v.332c0 .065.052.118.117.118h.71a.118.118 0 0 0 .118-.118v-.332a.118.118 0 0 0-.118-.117zM104.513 68.811h-.709a.118.118 0 0 0-.118.117v.332c0 .065.053.118.118.118h.709a.118.118 0 0 0 .118-.118v-.332a.118.118 0 0 0-.118-.117zM106.403 68.811h-.71a.118.118 0 0 0-.118.117v.332c0 .065.053.118.118.118h.71a.117.117 0 0 0 .117-.118v-.332a.117.117 0 0 0-.117-.117zM108.292 68.811h-.71a.117.117 0 0 0-.117.117v.332c0 .065.052.118.117.118h.71a.117.117 0 0 0 .117-.118v-.332a.117.117 0 0 0-.117-.117zM110.181 68.811h-.71a.118.118 0 0 0-.117.117v.332c0 .065.053.118.117.118h.71a.118.118 0 0 0 .118-.118v-.332a.118.118 0 0 0-.118-.117zM112.071 68.811h-.71a.118.118 0 0 0-.118.117v.332c0 .065.053.118.118.118h.71a.118.118 0 0 0 .117-.118v-.332a.118.118 0 0 0-.117-.117zM113.96 68.811h-.71a.117.117 0 0 0-.117.117v.332c0 .065.052.118.117.118h.71a.117.117 0 0 0 .117-.118v-.332a.117.117 0 0 0-.117-.117zM115.849 68.811h-.71a.117.117 0 0 0-.117.117v.332c0 .065.052.118.117.118h.71a.117.117 0 0 0 .117-.118v-.332a.117.117 0 0 0-.117-.117zM117.738 68.811h-.709a.118.118 0 0 0-.118.117v.332c0 .065.053.118.118.118h.709a.118.118 0 0 0 .118-.118v-.332a.118.118 0 0 0-.118-.117zM119.628 68.811h-.71a.118.118 0 0 0-.118.117v.332c0 .065.053.118.118.118h.71a.117.117 0 0 0 .117-.118v-.332a.117.117 0 0 0-.117-.117zM121.517 68.811h-.71a.117.117 0 0 0-.117.117v.332c0 .065.052.118.117.118h.71a.117.117 0 0 0 .117-.118v-.332a.117.117 0 0 0-.117-.117zM123.406 68.811h-.71a.118.118 0 0 0-.117.117v.332c0 .065.053.118.117.118h.71a.118.118 0 0 0 .118-.118v-.332a.118.118 0 0 0-.118-.117zM95.045 69.756h-.71a.117.117 0 0 0-.117.117v.332c0 .065.052.118.117.118h.71a.117.117 0 0 0 .117-.118v-.332a.117.117 0 0 0-.117-.117zM96.934 69.756h-.71a.117.117 0 0 0-.117.117v.332c0 .065.052.118.117.118h.71a.117.117 0 0 0 .117-.118v-.332a.117.117 0 0 0-.117-.117zM98.823 69.756h-.71a.117.117 0 0 0-.117.117v.332c0 .065.053.118.117.118h.71a.117.117 0 0 0 .118-.118v-.332a.117.117 0 0 0-.118-.117zM100.712 69.756h-.709a.117.117 0 0 0-.118.117v.332c0 .065.053.118.118.118h.709a.118.118 0 0 0 .118-.118v-.332a.118.118 0 0 0-.118-.117zM102.602 69.756h-.71a.117.117 0 0 0-.117.117v.332c0 .065.052.118.117.118h.71a.117.117 0 0 0 .117-.118v-.332a.117.117 0 0 0-.117-.117zM104.491 69.756h-.71a.117.117 0 0 0-.117.117v.332c0 .065.052.118.117.118h.71a.117.117 0 0 0 .117-.118v-.332a.117.117 0 0 0-.117-.117zM106.38 69.756h-.71a.118.118 0 0 0-.117.117v.332c0 .065.053.118.117.118h.71a.118.118 0 0 0 .118-.118v-.332a.118.118 0 0 0-.118-.117zM108.27 69.756h-.71a.118.118 0 0 0-.118.117v.332c0 .065.053.118.118.118h.71a.118.118 0 0 0 .117-.118v-.332a.118.118 0 0 0-.117-.117zM110.159 69.756h-.71a.117.117 0 0 0-.117.117v.332c0 .065.052.118.117.118h.71a.117.117 0 0 0 .117-.118v-.332a.117.117 0 0 0-.117-.117zM112.048 69.756h-.71a.118.118 0 0 0-.117.117v.332c0 .065.053.118.117.118h.71a.118.118 0 0 0 .118-.118v-.332a.118.118 0 0 0-.118-.117zM113.937 69.756h-.709a.118.118 0 0 0-.118.117v.332c0 .065.053.118.118.118h.709a.118.118 0 0 0 .118-.118v-.332a.118.118 0 0 0-.118-.117zM115.827 69.756h-.71a.117.117 0 0 0-.117.117v.332c0 .065.052.118.117.118h.71a.117.117 0 0 0 .117-.118v-.332a.117.117 0 0 0-.117-.117zM117.716 69.756h-.71a.117.117 0 0 0-.117.117v.332c0 .065.052.118.117.118h.71a.117.117 0 0 0 .117-.118v-.332a.117.117 0 0 0-.117-.117zM119.605 69.756h-.71a.118.118 0 0 0-.117.117v.332c0 .065.053.118.117.118h.71a.118.118 0 0 0 .118-.118v-.332a.118.118 0 0 0-.118-.117zM121.495 69.756h-.71a.118.118 0 0 0-.118.117v.332c0 .065.053.118.118.118h.71a.118.118 0 0 0 .117-.118v-.332a.118.118 0 0 0-.117-.117zM123.384 69.756h-.71a.117.117 0 0 0-.117.117v.332c0 .065.052.118.117.118h.71a.117.117 0 0 0 .117-.118v-.332a.117.117 0 0 0-.117-.117zM110.726 70.89h-7.323a.118.118 0 0 0-.117.117v.332c0 .064.053.117.117.117h7.323a.117.117 0 0 0 .117-.117v-.332a.117.117 0 0 0-.117-.118z" fill="#D9DBE1"/>
        <path d="M131.667 25.24H83.43a.192.192 0 0 1 0-.383h48.237a.192.192 0 0 1 0 .384z" fill="#CACACA"/>
        <path d="M86.713 23.878c.621 0 1.125-.515 1.125-1.15 0-.634-.504-1.149-1.125-1.149-.62 0-1.124.515-1.124 1.15 0 .634.503 1.149 1.124 1.149zM90.597 23.878c.62 0 1.124-.515 1.124-1.15 0-.634-.503-1.149-1.124-1.149-.621 0-1.124.515-1.124 1.15 0 .634.503 1.149 1.124 1.149zM94.48 23.878c.621 0 1.125-.515 1.125-1.15 0-.634-.504-1.149-1.124-1.149-.621 0-1.125.515-1.125 1.15 0 .634.504 1.149 1.125 1.149z" fill="#B3B7C2"/>
        <path d="m107.499 28.15-.156-.456 19.925-10.352.155.455-19.924 10.352zM167.615 47.325l-.155-.456 11.989-10.3.155.455-11.989 10.3zM144.581 49.722 124.657 39.37l.156-.456 19.924 10.353-.156.455zM154.781 42.518 143.1 23.342l.369-.308 11.68 19.176-.368.308zM163.896 17.531l-11.376-.052v-.481l11.376.052v.481z" fill="#2B335A"/>
        <path d="M184.503 20.514h-12.744a3.126 3.126 0 1 1 0-6.252h12.744a3.126 3.126 0 1 1 0 6.252z" fill="#2EC5CE"/>
        <path d="M200.374 38.79h-12.745a3.126 3.126 0 0 1 0-6.252h12.745a3.126 3.126 0 0 1 0 6.252z" fill="#78C4F0"/>
        <path d="m179.767 51.677-11.376-.052v-.481l11.376.052v.481z" fill="#2B335A"/>
        <path d="M200.374 54.66h-12.745a3.126 3.126 0 0 1 0-6.252h12.745a3.126 3.126 0 0 1 0 6.252z" fill="#2EC5CE"/>
        <path d="M163.102 52.506h-12.745a3.126 3.126 0 0 1 0-6.252h12.745a3.126 3.126 0 0 1 0 6.252zM145.788 20.284h-12.744a3.126 3.126 0 1 1 0-6.252h12.744a3.126 3.126 0 1 1 0 6.252z" fill="#FE9A22"/>
        <path d="M84.872 73.95H70.444a1.924 1.924 0 0 0 0 3.848h5.29v14.909h3.847V77.798h5.29a1.924 1.924 0 1 0 0-3.847z" fill="#B3B7C2"/>
        <path d="M94.394 100.964h-38.59a15.583 15.583 0 0 1-15.37-13.379l-1.366-5.024A112.796 112.796 0 0 0 26.28 53.007c-2.585-4.197-3.915-8.26-.893-12.171l.075-.099c2.424-3.154 14.485-3.837 18.417-3.97.155-.005.31-.007.467-.007H68.35c.157 0 .313.002.468.008a11.746 11.746 0 0 1 10.156 6.473 12.103 12.103 0 0 1-.686 12.391c-8.432 12.666-11.013 20.607-8.37 25.75 2.556 4.975 10.392 7.518 24.661 8.004 3.835.13 5.595 3.117 5.607 5.836.012 2.648-1.68 5.573-5.423 5.734a8.939 8.939 0 0 1-.368.008z" fill="#D9DBE1"/>
        <path d="M62.36 135.23h14.427a1.924 1.924 0 1 0 0-3.847h-5.29V98.92H67.65v32.463h-5.29a1.923 1.923 0 1 0 0 3.847z" fill="#C9CCD4"/>
        <path d="m75.418 122.143 2.486 1.35 6.58-9.097-3.67-1.993-5.396 9.74z" fill="#A0616A"/>
        <path d="m76.615 118.901 4.512 1.413-.719 1.89 3.094 4.491a1.263 1.263 0 0 1-1.488 1.897l-5.253-1.995-.195-2.214-1.064 1.736-1.98-.753 3.093-6.465z" fill="#1A1F36"/>
        <path d="M81.698 30.401a2.793 2.793 0 0 1-2.852 3.195l-9.583 20.39-3.006-4.19 9.865-19.282a2.808 2.808 0 0 1 5.576-.113z" fill="#A0616A"/>
        <path d="M49.897 58.109s-.257 3.562 3.771 4.26c4.029.7 14.798-6.11 16.567-7.156C72.004 54.167 75.3 41.01 75.3 41.01l-2.867-4.849c-3.539 4.477-6.318 8.605-6.487 11.536l-16.05 10.411z" fill="#CB3036"/>
        <path d="m54.547 70.38.87 3.738s.009 3.447.62 4.082c.606.633 13.936-.638 13.936-.638s-1.414-5.554-1.395-9.757l-14.03 2.574z" fill="#A0616A"/>
        <path d="m82.708 118.196-4.81-2.645c-.091-6.258 3.673-14.727 8.138-23.597-9.985 1.717-19.405 2.267-27.553.19a5.267 5.267 0 0 1-3.766-6.362c.032-.132.068-.263.11-.392.975-2.975-1.212-4.84.8-8.112 5.289-1.806 10.314-2.317 14.908-.721l2.88 6.365 14.27-1.846a5.262 5.262 0 0 1 5.848 4.6l.005.039c.02.155.032.31.038.467-2.886 13.526-6.121 25.698-10.868 32.014z" fill="#2B335A"/>
        <path d="m52.61 46.712 5.498-.325c.475-.028.916.249 1.097.689l1.554 3.766 6.456 5.336s2.556 3.253 2.562 7.455c.006 4.2.907 13.925.907 13.925s-3.73-5.252-6.033-3.855c-.392.238-.53.724-.94.97-.205.122-.678.003-.884.125-3.174 1.884-6.483 3.724-6.792 3.402-.607-.634-1.344-3.871-1.344-3.871L49.66 55.84a6.848 6.848 0 0 1 .974-5.762c.352-.495.72-.863 1.062-.924.769-.164.36-1.886.915-2.442z" fill="#CB3036"/>
        <path d="m99.373 129.974 2.321-1.613-5.257-9.918-3.425 2.381 6.361 9.15z" fill="#A0616A"/>
        <path d="m99.724 123.32-3.637 3.25c-5.782-6.443-10.154-15.48-13.858-25.742-9.707-2.843-17.027-7.428-23.417-12.871-2.168-1.835-3.793-4.191-1.944-6.426.086-.104.176-.205.27-.303 2.183-2.243 7.72-1.816 10.962-3.871l7.243 7.742-.456 2.075 13.605 4.609A5.255 5.255 0 0 1 91.7 98.52c-.051.148-.108.293-.172.436l8.197 24.364z" fill="#2B335A"/>
        <path d="m98.02 129.32 3.715-2.925 1.154 1.66 5.453-.016a1.264 1.264 0 0 1 .725 2.3l-4.613 3.207-1.937-1.089.831 1.858-1.74 1.209-3.588-6.204z" fill="#1A1F36"/>
        <path d="M60.728 93.306a2.793 2.793 0 0 1-1.248-4.096L47.035 70.43l5.142-.392 11.351 18.446a2.808 2.808 0 0 1-2.8 4.823z" fill="#A0616A"/>
        <path d="M53.572 51.74s-2.91-2.07-5.6 1.009c-2.69 3.079-2.465 15.819-2.49 17.873-.008.644.92 2.032 2.2 3.635.575.72 1.22 1.484 1.884 2.242.384.44.053 1.353.438 1.78.383.425 1.483.362 1.847.756 1.73 1.87 3.135 3.293 3.135 3.293l5.632.07c.064-4.188-2.803-7.924-6.487-11.536l-.559-19.123z" fill="#CB3036"/>
        <path d="M49.224 36.551c-.533.385-1.094.781-1.745.877-.65.095-1.412-.22-1.592-.852-.22-.773.478-1.477 1.105-1.98l1.99-1.593c.365-.324.776-.59 1.22-.79.453-.198.97-.18 1.408.048.435.293.687.792.665 1.316a2.81 2.81 0 0 1-.493 1.442 5.07 5.07 0 0 1-3.292 2.238" fill="#131627"/>
        <path d="M62.99 74.913H48.56a1.924 1.924 0 0 0 0 3.847h5.29v14.909H57.7V78.76h5.29a1.924 1.924 0 1 0 0-3.847z" fill="#B3B7C2"/>
        <path d="M50.108 32.515c.058-1.442-1.48-2.584-2.92-2.494-1.44.09-2.678 1.103-3.495 2.294-.816 1.189-1.307 2.566-1.95 3.857-.643 1.291-1.5 2.555-2.778 3.224s-3.057.55-3.94-.591a3.176 3.176 0 0 0-.327 2.853 4.35 4.35 0 0 0 1.91 2.215c.347.206.718.369 1.104.486.16-.43.384-.834.666-1.197-.127.43-.176.878-.144 1.325a4.42 4.42 0 0 0 1.801-.029 3.834 3.834 0 0 0 2.66-2.17c.54-1.278.266-2.736.381-4.119.115-1.383.948-2.963 2.336-2.985 1.058-.018.918.07 1.587.887" fill="#131627"/>
        <path d="M59.707 40.094c0 3.453-2.799 6.252-6.252 6.252s-6.733-4.001-6.733-7.454c0-3.453 3.28-5.05 6.733-5.05s6.252 2.8 6.252 6.252z" fill="#131627"/>
        <path d="M56.536 47.587a5.965 5.965 0 1 0-2.391-11.688 5.965 5.965 0 0 0 2.391 11.688z" fill="#A0616A"/>
        <path d="M62.833 40.816c-1.765.482-3.548.987-4.237 0a5.428 5.428 0 0 0-.747-1.843 7.46 7.46 0 0 1-.44 1.843c-2.231.484-4.316.6-6.118 0a3.415 3.415 0 0 0-.42 1.457 2.053 2.053 0 0 0-.28-.147.462.462 0 0 0-.38-.034.328.328 0 0 0-.156.243.906.906 0 0 0 .014.3c.026.345.128.678.301.977a.89.89 0 0 0 .604.387c.25 1.407 2.24 3.309 2.24 3.309-6.01.24-6.01-3.838-6.01-7.695l.72-1.443h2.405v-3.126h6.733a5.773 5.773 0 0 1 5.771 5.772z" fill="#131627"/>
        <path d="M116.292 135.926 10.788 136a.286.286 0 0 1-.003-.573h.003l105.504-.074a.287.287 0 0 1 0 .573zM186.748 135.926l-54.525.074a.287.287 0 0 1-.003-.573h.003l54.525-.074a.287.287 0 0 1 .002.573h-.002z" fill="#CACACA"/>
        <path d="M118.703 49.62H98.034a3.255 3.255 0 0 1-3.252-3.252V32.673a3.256 3.256 0 0 1 3.252-3.252h20.669a3.256 3.256 0 0 1 3.252 3.252v13.695a3.256 3.256 0 0 1-3.252 3.252zM98.034 29.902a2.774 2.774 0 0 0-2.77 2.771v13.695a2.774 2.774 0 0 0 2.77 2.771h20.669a2.774 2.774 0 0 0 2.771-2.77V32.672a2.774 2.774 0 0 0-2.771-2.77H98.034z" fill="#D9DBE1"/>
        <path d="M104.158 33.75H98.63v.48h5.528v-.48zM110.894 35.673H98.63v.481h12.264v-.48zM110.894 37.357H98.63v.48h12.264v-.48zM114.26 39.04H98.63v.48h15.63v-.48zM106.806 40.723H98.63v.481h8.176v-.48zM113.539 42.407h-14.91v.48h14.91v-.48zM101.275 44.09H98.63v.48h2.645v-.48z" fill="#D9DBE1"/>
        <path d="M98.45 23.4a.09.09 0 0 1-.065-.027l-.513-.525a.09.09 0 0 1 0-.125l.513-.525a.09.09 0 0 1 .13.126l-.453.461.452.462a.09.09 0 0 1-.064.153zM99.312 23.4a.09.09 0 0 1-.064-.153l.451-.462-.451-.461a.09.09 0 0 1 .128-.126l.513.524a.09.09 0 0 1 0 .126l-.513.525a.09.09 0 0 1-.064.027zM126.154 22.098h-.955a.197.197 0 0 0-.196.197v.955c0 .109.088.197.196.197h.955a.197.197 0 0 0 .197-.197v-.955a.197.197 0 0 0-.197-.197zM123.816 22.098h-.954a.197.197 0 0 0-.197.197v.955c0 .109.088.197.197.197h.954a.197.197 0 0 0 .197-.197v-.955a.197.197 0 0 0-.197-.197zM128.357 22.143h-.955a.197.197 0 0 0-.196.197v.955c0 .109.088.197.196.197h.955a.197.197 0 0 0 .197-.197v-.955a.198.198 0 0 0-.197-.197zM113.977 22.506h-7.626a.24.24 0 0 0 0 .48h7.626a.24.24 0 0 0 0-.48z" fill="#B3B7C2"/>
    </g>
    <defs>
        <clipPath id="tp8ec63zta">
            <path fill="#fff" transform="translate(10.5 14.032)" d="M0 0h193v121.968H0z"/>
        </clipPath>
    </defs>
</svg>
