<svg width="215" height="136" viewBox="0 0 215 136" fill="none" xmlns="http://www.w3.org/2000/svg">
    <path d="M151.698 5.099h-97.39c-3.112 0-5.634 2.468-5.634 5.511v64.946c0 3.044 2.522 5.512 5.633 5.512h97.391c3.112 0 5.634-2.468 5.634-5.512V10.61c0-3.043-2.522-5.511-5.634-5.511z" fill="#fff"/>
    <path d="M151.698 81.338H54.307c-3.258 0-5.91-2.594-5.91-5.782V10.61c0-3.187 2.652-5.782 5.91-5.782h97.391c3.258 0 5.91 2.595 5.91 5.782v64.946c0 3.188-2.652 5.782-5.91 5.782zM54.307 5.37c-2.954 0-5.357 2.35-5.357 5.24v64.946c0 2.89 2.403 5.24 5.357 5.24h97.391c2.954 0 5.357-2.35 5.357-5.24V10.61c0-2.89-2.403-5.24-5.357-5.24H54.307z" fill="#C9CCD4"/>
    <path d="M157.33 10.61v4.645H48.672V10.61c0-3.044 2.522-5.511 5.634-5.511h97.39c3.112 0 5.634 2.467 5.634 5.511z" fill="#C9CCD4"/>
    <path d="M57.39 11.463c.686 0 1.242-.544 1.242-1.215 0-.672-.556-1.217-1.242-1.217-.687 0-1.243.545-1.243 1.216 0 .672.556 1.216 1.242 1.216zM62.099 11.463c.686 0 1.243-.544 1.243-1.215 0-.672-.557-1.217-1.243-1.217-.687 0-1.243.545-1.243 1.216 0 .672.556 1.216 1.242 1.216zM66.808 11.463c.687 0 1.243-.544 1.243-1.215 0-.672-.556-1.217-1.243-1.217-.686 0-1.243.545-1.243 1.216 0 .672.557 1.216 1.243 1.216z" fill="#fff"/>
    <path d="M57.462 22.593H76.84c.382 0 .692.304.692.677v45.016c0 .896-.744 1.625-1.66 1.625H58.43c-.917 0-1.661-.729-1.661-1.625V23.27c0-.373.31-.677.692-.677z" fill="#C9CCD4"/>
    <path d="M76.84 23.135c.076 0 .139.061.139.135v45.016c0 .597-.497 1.083-1.108 1.083h-17.44c-.61 0-1.108-.486-1.108-1.083V23.27c0-.074.063-.135.139-.135H76.84zm0-.542H57.462a.685.685 0 0 0-.693.677v45.016c0 .897.744 1.625 1.662 1.625h17.44c.918 0 1.661-.728 1.661-1.625V23.27a.685.685 0 0 0-.692-.677z" fill="#C9CCD4"/>
    <path d="M76.287 34.51h-18.27a.685.685 0 0 1-.693-.677v-7.448H76.98v7.448c0 .374-.31.677-.693.677z" fill="#fff"/>
    <path d="M73.795 33.045c.917 0 1.66-.728 1.66-1.625 0-.898-.743-1.625-1.66-1.625-.918 0-1.661.727-1.661 1.625 0 .897.743 1.625 1.66 1.625z" fill="#FFB6B6"/>
    <path d="M75.456 28.035h-16.61v.541h16.61v-.541zM69.227 30.133H58.846v.407h10.381v-.407zM65.767 32.165h-6.921v.406h6.92v-.406z" fill="#C9CCD4"/>
    <path d="M76.287 35.076h-18.27a.685.685 0 0 0-.693.677v6.771c0 .374.31.677.692.677h18.271a.685.685 0 0 0 .693-.677v-6.77a.685.685 0 0 0-.693-.678z" fill="#fff"/>
    <path d="M73.795 41.736c.917 0 1.66-.728 1.66-1.625s-.743-1.625-1.66-1.625c-.918 0-1.661.728-1.661 1.625s.743 1.625 1.66 1.625z" fill="#FFB6B6"/>
    <path d="M75.456 36.725h-16.61v.542h16.61v-.542zM69.227 38.825H58.846v.406h10.381v-.407zM65.767 40.856h-6.921v.406h6.92v-.406z" fill="#C9CCD4"/>
    <path d="M76.287 43.767h-18.27a.685.685 0 0 0-.693.677v6.771c0 .374.31.677.692.677h18.271a.685.685 0 0 0 .693-.677v-6.77a.685.685 0 0 0-.693-.678z" fill="#fff"/>
    <path d="M73.795 50.427c.917 0 1.66-.728 1.66-1.625 0-.898-.743-1.625-1.66-1.625-.918 0-1.661.727-1.661 1.625 0 .897.743 1.625 1.66 1.625z" fill="#FFB6B6"/>
    <path d="M75.456 45.417h-16.61v.541h16.61v-.541zM69.227 47.516H58.846v.406h10.381v-.406zM65.767 49.547h-6.921v.406h6.92v-.406z" fill="#C9CCD4"/>
    <path d="M76.31 52.483H58.04a.685.685 0 0 0-.692.677v6.77c0 .374.31.678.692.678h18.27a.685.685 0 0 0 .693-.677V53.16a.685.685 0 0 0-.692-.677z" fill="#fff"/>
    <path d="M74.097 54.132H58.871v.542h15.226v-.542zM69.252 56.231h-10.38v.406h10.38v-.406zM65.792 58.262h-6.92v.407h6.92v-.407z" fill="#C9CCD4"/>
    <path d="M75.619 69.3H58.732c-.764 0-1.384-.607-1.384-1.354v-6.094c0-.374.31-.677.692-.677h18.27c.383 0 .693.303.693.677v6.094c0 .747-.62 1.354-1.384 1.354z" fill="#fff"/>
    <path d="M73.82 67.835c.918 0 1.661-.728 1.661-1.625 0-.898-.743-1.625-1.66-1.625-.918 0-1.662.727-1.662 1.625 0 .897.744 1.625 1.661 1.625z" fill="#CB3036"/>
    <path d="M75.481 62.824h-16.61v.542h16.61v-.542z" fill="#222847"/>
    <path d="M69.252 64.923h-10.38v.407h10.38v-.407zM65.792 66.955h-6.92v.406h6.92v-.406z" fill="#0B0D17"/>
    <path d="M81.408 22.593h19.378c.382 0 .693.304.693.677v36.292c0 .897-.745 1.625-1.662 1.625h-17.44c-.916 0-1.661-.728-1.661-1.625V23.271c0-.374.31-.678.692-.678z" fill="#C9CCD4"/>
    <path d="M100.786 23.135c.077 0 .139.061.139.135v36.292c0 .597-.497 1.084-1.108 1.084h-17.44c-.61 0-1.108-.487-1.108-1.084V23.271c0-.075.063-.136.139-.136h19.378zm0-.542H81.408a.685.685 0 0 0-.692.677v36.292c0 .898.743 1.625 1.66 1.625h17.441c.918 0 1.662-.727 1.662-1.625V23.271a.686.686 0 0 0-.693-.678z" fill="#C9CCD4"/>
    <path d="M179.061 8.755h-1.384V7.401h-.554v1.354h-1.384v.542h1.384v1.354h.554V9.297h1.384v-.542zM181.692 20.401c-1.069 0-1.938-.85-1.938-1.896 0-1.045.869-1.896 1.938-1.896 1.068 0 1.938.85 1.938 1.896 0 1.046-.87 1.896-1.938 1.896zm0-3.25c-.763 0-1.384.608-1.384 1.354 0 .746.621 1.354 1.384 1.354.762 0 1.384-.608 1.384-1.354 0-.746-.622-1.354-1.384-1.354zM28.186 31.37v-1.354h-.554v1.354h-1.384v.541h1.384v1.355h.554v-1.354h1.384v-.542h-1.384zM23.203 42.88c-1.07 0-1.938-.85-1.938-1.896 0-1.045.869-1.895 1.938-1.895 1.068 0 1.937.85 1.937 1.895 0 1.046-.869 1.896-1.938 1.896zm0-3.25c-.763 0-1.385.608-1.385 1.354 0 .746.622 1.355 1.384 1.355.763 0 1.385-.608 1.385-1.355 0-.746-.622-1.354-1.384-1.354zM201.036 93.51c-.883 0-2.443-.294-3.142-2.228-.826-2.287-2.987-1.573-3.078-1.54l-.184-.511c.028-.01 2.775-.92 3.784 1.871.836 2.314 3.045 1.846 3.138 1.824l.125.528c-.009.002-.263.056-.643.056zM17.178 94.844c0-.029.01-2.867 3.037-2.897 2.497-.024 2.77-2.22 2.78-2.314l.551.057c-.002.027-.33 2.77-3.326 2.799-2.479.024-2.489 2.254-2.487 2.35l-.554.003-.001.002z" fill="#9594A3"/>
    <path d="M56.355 104.292h-3.737v23.698h3.737v-23.698z" fill="#ECEDF0"/>
    <path d="M56.632 128.26H52.34v-24.239h4.29v24.239zm-3.737-.541h3.183v-23.157h-3.184v23.157z" fill="#ECEDF0"/>
    <path d="M59.122 100.635H49.71v5.011h9.412v-5.011zM61.407 126.703H47.565v4.063h13.842v-4.063z" fill="#C9CCD4"/>
    <path d="M69.112 102.125H41.657c-1.204 0-2.25-.806-2.533-1.95L30.97 67.212c-.396-1.6.843-3.138 2.524-3.138h19.254c1.153 0 2.168.744 2.492 1.826l8.866 29.59h7.613v4.087c0 1.408-1.167 2.549-2.607 2.549v-.001z" fill="#ECEDF0"/>
    <path d="M69.112 102.396H41.657c-1.335 0-2.488-.887-2.803-2.157L30.7 67.275a2.747 2.747 0 0 1 .534-2.4 2.879 2.879 0 0 1 2.26-1.072h19.253c1.268 0 2.402.832 2.758 2.02l8.807 29.397h7.682v4.356c0 1.556-1.294 2.821-2.883 2.821l.001-.001zM33.495 64.344c-.716 0-1.38.315-1.823.866-.443.55-.6 1.257-.432 1.938l8.154 32.963c.254 1.027 1.185 1.743 2.265 1.743h27.455c1.284 0 2.33-1.022 2.33-2.279V95.76H63.9l-.058-.195-8.866-29.59c-.288-.961-1.203-1.633-2.226-1.633H33.496l-.001.002z" fill="#ECEDF0"/>
    <path d="m85.818 122.982.554 5.063h-5.395l-.554-5.063h5.395z" fill="#A0616A"/>
    <path d="M86.678 128.316h-5.951l-.614-5.604h5.952l.613 5.604zm-5.453-.542h4.838l-.495-4.52h-4.837l.494 4.52z" fill="#A0616A"/>
    <path d="M80.837 126.389s2.932 2.176 5.396 0l7.306 3.724c.32.164.202.64-.16.64h-12.91a.61.61 0 0 1-.6-.762l.967-3.602h.001z" fill="#222847"/>
    <path d="m98.049 98.977 3.51 3.757-4.347 3.126-3.51-3.758 4.347-3.125z" fill="#A0616A"/>
    <path d="m97.176 106.223-3.887-4.16 4.796-3.45 3.887 4.161-4.796 3.449zm-3.062-4.082 3.135 3.356 3.898-2.803-3.135-3.356-3.898 2.803z" fill="#A0616A"/>
    <path d="M96.1 104.606s3.68.054 4.347-3.126l8.142-1.232c.358-.054.551.398.258.608l-10.4 7.479a.628.628 0 0 1-.946-.265l-1.4-3.463v-.001zM88.512 123.557c-.14-.27-6.873-35.548-6.873-35.548l-26.817 8.546 19.098.824 4.903 26.211 9.689-.031v-.002z" fill="#222847"/>
    <path d="M53.724 77.208S46.111 87.771 48.05 92.24c1.938 4.468 5.398 4.604 8.305 4.062L81.2 90.818l11.212 16.385 6.506-7.719-14.465-18.349H65.628l.416-2.979-12.32-.948z" fill="#0B0D17"/>
    <path d="M63.413 48.23s-4.014 5.145-.553 9.75c0 0 .83.676 4.706 1.083 0 0 5.382 1.056 7.32-.298 0 0 1.677-1.057.847-3.359-.831-2.302-2.354-7.583-6.09-8.802-3.738-1.219-6.23 1.625-6.23 1.625z" fill="#222847"/>
    <path d="m61.06 60.552 3.46.136.554-4.334s-2.63-1.219-.83-2.844c0 0 .968 0 1.245.678 0 0 4.43-2.98 3.322-5.959 0 0 7.06 9.615.415 9.344l.415 3.385 2.354.407-.277 5.687-6.506.677-4.152-7.177z" fill="#A0616A"/>
    <path d="m65.062 68.018-4.488-7.756 3.703.145.498-3.901c-.392-.217-1.291-.8-1.423-1.639-.083-.536.153-1.059.703-1.556l.08-.071h.107c.04 0 .88.006 1.328.552.882-.66 3.858-3.11 2.98-5.47l-.687-1.847 1.171 1.596c.182.248 4.43 6.083 3.029 8.623-.418.758-1.267 1.146-2.525 1.155l.353 2.878 2.39.413-.3 6.157-6.922.72h.003zm-3.516-7.176 3.818 6.599 6.088-.634.254-5.218-2.316-.4-.479-3.9.325.013c1.207.049 1.995-.242 2.34-.865.86-1.562-.995-5.034-2.313-7.062-.122 2.65-3.455 4.926-3.619 5.036l-.285.192-.128-.314c-.158-.386-.663-.478-.885-.5-.346.34-.497.675-.447.997.098.64.966 1.173 1.293 1.326l.18.084-.025.193-.586 4.58-3.218-.126.003-.001z" fill="#A0616A"/>
    <path d="M58.956 61.36 51.924 72.47l4.706 1.625-5.675 8.26s23.531.136 23.67 0c.123-.12 1.896-12.722.81-18.335a2.902 2.902 0 0 0-1.933-2.182l-1.784-.608s.415 3.927-2.769 5.552c0 0-3.46-2.505-5.26-5.146-.862-1.266-2.317-1.321-3.29-1.184a2.078 2.078 0 0 0-1.443.908v.002z" fill="#222847"/>
    <path d="M68.427 82.685a3871.999 3871.999 0 0 1-17.473-.061l-.516-.003 5.764-8.39-4.694-1.62 7.216-11.4c.368-.56.965-.935 1.636-1.03 1.571-.222 2.837.241 3.56 1.303 1.548 2.27 4.392 4.477 5.054 4.974 2.818-1.57 2.472-5.166 2.468-5.203l-.044-.424 2.195.747c1.09.372 1.9 1.286 2.112 2.388.576 2.971.346 7.785.053 11.3a113.453 113.453 0 0 1-.529 4.995c-.28 2.155-.34 2.215-.41 2.284-.11.108-.128.126-3.951.137-.715.003-1.53.003-2.444.003h.003zm-16.953-.599c6.404.035 21.156.099 22.93.018.308-1.55 1.76-12.858.759-18.035a2.637 2.637 0 0 0-1.751-1.976l-1.402-.477c.004 1.088-.247 4.036-2.932 5.406l-.154.079-.138-.1c-.143-.103-3.52-2.565-5.325-5.214-.767-1.125-2.067-1.201-3.02-1.067a1.795 1.795 0 0 0-1.249.785l-6.85 10.822 4.718 1.629-5.586 8.131v-.001z" fill="#222847"/>
    <path d="m52.876 70.948-4.393 6.44c-.659.963.048 2.256 1.235 2.256h12.727s1.523-.677 1.246-2.166c0 0 1.384.406 2.076.27.692-.135 1.938-.677 1.661-1.489-.223-.655-2.076-1.354-2.076-1.354l-1.41-.454a1.266 1.266 0 0 0-1.219.595l-1.662 2.567-6.229-.541 2.215-3.657-4.17-2.468v.001z" fill="#A0616A"/>
    <path d="M62.505 79.917H49.716c-.66 0-1.241-.34-1.553-.91a1.667 1.667 0 0 1 .089-1.769l4.54-6.656 4.631 2.741-2.13 3.517 5.623.489 1.572-2.428a1.546 1.546 0 0 1 1.484-.72l.057.013 1.409.454c.343.128 2 .786 2.252 1.526a.95.95 0 0 1-.089.814c-.36.605-1.288.93-1.78 1.026-.522.103-1.335-.057-1.821-.173-.007 1.106-.91 1.814-1.441 2.05l-.054.024v.002zm-9.546-8.603-4.246 6.223a1.142 1.142 0 0 0-.061 1.212c.213.392.612.625 1.064.625H62.38c.242-.125 1.249-.714 1.038-1.847l-.08-.435.433.127c.367.107 1.431.364 1.942.266.524-.103 1.196-.407 1.41-.768a.422.422 0 0 0 .044-.371c-.125-.367-1.188-.913-1.908-1.185l-1.373-.443a.99.99 0 0 0-.924.466l-1.757 2.714-6.835-.595 2.3-3.796-3.71-2.195v.002z" fill="#A0616A"/>
    <path d="M93.896 65.736H75.678c-.45 0-.854.275-1.009.69l-5.045 13.49h20.504l4.775-12.77c.256-.684-.263-1.41-1.009-1.41h.002z" fill="#222847"/>
    <path d="M72.652 78.533h-12.57v1.384h12.57v-1.384z" fill="#222847"/>
    <path d="M95.075 65.736H76.858c-.451 0-.854.275-1.009.69l-5.045 13.49h20.504l4.775-12.77c.256-.684-.263-1.41-1.009-1.41h.001z" fill="#CB3036"/>
    <path d="M85.41 73.39c.4-.814.21-1.714-.422-2.01-.632-.297-1.467.121-1.866.934-.4.814-.21 1.713.422 2.01.632.297 1.467-.122 1.866-.935z" fill="#fff"/>
    <path d="M79.263 81.88h-3.726v48.615h3.726V81.88z" fill="#ECEDF0"/>
    <path d="M79.54 130.766h-4.28V81.609h4.28v49.157zm-3.727-.542h3.173V82.151h-3.173v48.073z" fill="#ECEDF0"/>
    <path d="M114.353 79.646H40.161v3.52h74.192v-3.52z" fill="#C9CCD4"/>
    <path d="M114.63 83.438H39.884v-4.063h74.746v4.063zm-74.192-.542h73.638v-2.98H40.438v2.98zM70.542 130.766h13.842c0-2.244-1.86-4.063-4.153-4.063h-5.536c-2.294 0-4.153 1.819-4.153 4.063z" fill="#C9CCD4"/>
    <path d="M100.233 34.51H81.962a.685.685 0 0 1-.693-.677v-7.448h19.656v7.448c0 .374-.31.677-.692.677z" fill="#fff"/>
    <path d="M97.741 33.045c.917 0 1.661-.728 1.661-1.625 0-.898-.744-1.625-1.66-1.625-.918 0-1.662.727-1.662 1.625 0 .897.744 1.625 1.661 1.625z" fill="#FFB6B6"/>
    <path d="M99.402 28.035h-16.61v.541h16.61v-.541zM93.173 30.133H82.792v.407h10.381v-.407zM89.713 32.165h-6.921v.406h6.92v-.406z" fill="#C9CCD4"/>
    <path d="M100.233 35.076H81.962a.685.685 0 0 0-.693.677v6.771c0 .374.31.677.693.677h18.271a.685.685 0 0 0 .692-.677v-6.77a.685.685 0 0 0-.692-.678z" fill="#fff"/>
    <path d="M97.741 41.736c.917 0 1.661-.728 1.661-1.625s-.744-1.625-1.66-1.625c-.918 0-1.662.728-1.662 1.625s.744 1.625 1.661 1.625z" fill="#FFB6B6"/>
    <path d="M99.402 36.725h-16.61v.542h16.61v-.542zM93.173 38.825H82.792v.406h10.381v-.407zM89.713 40.856h-6.921v.406h6.92v-.406z" fill="#C9CCD4"/>
    <path d="M100.233 43.767H81.962a.685.685 0 0 0-.693.677v6.771c0 .374.31.677.693.677h18.271a.685.685 0 0 0 .692-.677v-6.77a.685.685 0 0 0-.692-.678z" fill="#fff"/>
    <path d="M97.741 50.427c.917 0 1.661-.728 1.661-1.625 0-.898-.744-1.625-1.66-1.625-.918 0-1.662.727-1.662 1.625 0 .897.744 1.625 1.661 1.625z" fill="#FFB6B6"/>
    <path d="M99.402 45.417h-16.61v.541h16.61v-.541zM93.173 47.516H82.792v.406h10.381v-.406zM89.713 49.547h-6.921v.406h6.92v-.406z" fill="#C9CCD4"/>
    <path d="M99.54 60.577H82.655c-.764 0-1.385-.607-1.385-1.355V53.13c0-.374.31-.677.693-.677h18.271c.382 0 .692.303.692.677v6.093c0 .748-.62 1.355-1.384 1.355z" fill="#fff"/>
    <path d="M97.741 59.111c.917 0 1.661-.727 1.661-1.625 0-.897-.744-1.625-1.66-1.625-.918 0-1.662.728-1.662 1.625 0 .898.744 1.625 1.661 1.625z" fill="#FFB6B6"/>
    <path d="M99.402 54.1h-16.61v.542h16.61v-.541zM93.173 56.2H82.792v.406h10.381V56.2zM89.713 58.231h-6.921v.406h6.92v-.406zM105.342 22.593h19.378c.382 0 .692.304.692.677v45.016c0 .896-.745 1.625-1.661 1.625H106.31c-.916 0-1.661-.729-1.661-1.625V23.27c0-.373.31-.677.693-.677z" fill="#C9CCD4"/>
    <path d="M124.72 23.135c.076 0 .138.061.138.135v45.016c0 .597-.496 1.083-1.107 1.083H106.31c-.61 0-1.107-.486-1.107-1.083V23.27c0-.074.062-.135.139-.135h19.378zm0-.542h-19.378a.685.685 0 0 0-.693.677v45.016c0 .897.744 1.625 1.661 1.625h17.441c.918 0 1.661-.728 1.661-1.625V23.27a.685.685 0 0 0-.692-.677z" fill="#C9CCD4"/>
    <path d="M124.165 34.51h-18.271a.685.685 0 0 1-.692-.677v-7.448h19.655v7.448c0 .374-.31.677-.692.677z" fill="#fff"/>
    <path d="M121.675 33.045c.917 0 1.661-.728 1.661-1.625 0-.898-.744-1.625-1.661-1.625-.918 0-1.661.727-1.661 1.625 0 .897.743 1.625 1.661 1.625z" fill="#FFB6B6"/>
    <path d="M123.336 28.035h-16.61v.541h16.61v-.541zM117.107 30.133h-10.381v.407h10.381v-.407zM113.647 32.165h-6.921v.406h6.921v-.406z" fill="#C9CCD4"/>
    <path d="M124.165 35.076h-18.271a.685.685 0 0 0-.692.677v6.771c0 .374.31.677.692.677h18.271a.684.684 0 0 0 .692-.677v-6.77a.684.684 0 0 0-.692-.678z" fill="#fff"/>
    <path d="M121.675 41.736c.917 0 1.661-.728 1.661-1.625s-.744-1.625-1.661-1.625c-.918 0-1.661.728-1.661 1.625s.743 1.625 1.661 1.625z" fill="#FFB6B6"/>
    <path d="M123.336 36.725h-16.61v.542h16.61v-.542zM117.107 38.825h-10.381v.406h10.381v-.407zM113.647 40.856h-6.921v.406h6.921v-.406z" fill="#C9CCD4"/>
    <path d="M124.165 43.767h-18.271a.685.685 0 0 0-.692.677v6.771c0 .374.31.677.692.677h18.271a.684.684 0 0 0 .692-.677v-6.77a.684.684 0 0 0-.692-.678z" fill="#fff"/>
    <path d="M121.675 50.427c.917 0 1.661-.728 1.661-1.625 0-.898-.744-1.625-1.661-1.625-.918 0-1.661.727-1.661 1.625 0 .897.743 1.625 1.661 1.625z" fill="#FFB6B6"/>
    <path d="M123.336 45.417h-16.61v.541h16.61v-.541zM117.107 47.516h-10.381v.406h10.381v-.406zM113.647 49.547h-6.921v.406h6.921v-.406z" fill="#C9CCD4"/>
    <path d="M124.192 52.483h-18.271a.684.684 0 0 0-.692.677v6.77c0 .374.309.678.692.678h18.271a.685.685 0 0 0 .692-.677V53.16a.685.685 0 0 0-.692-.677z" fill="#fff"/>
    <path d="M121.698 59.142c.917 0 1.661-.727 1.661-1.625 0-.897-.744-1.625-1.661-1.625s-1.661.728-1.661 1.625c0 .898.744 1.625 1.661 1.625z" fill="#FFB6B6"/>
    <path d="M123.359 54.132h-16.61v.542h16.61v-.542zM117.13 56.231h-10.381v.406h10.381v-.406zM113.67 58.262h-6.921v.407h6.921v-.407z" fill="#C9CCD4"/>
    <path d="M123.5 69.3h-16.887c-.764 0-1.384-.607-1.384-1.354v-6.094c0-.374.31-.677.692-.677h18.271c.382 0 .692.303.692.677v6.094c0 .747-.62 1.354-1.384 1.354z" fill="#fff"/>
    <path d="M121.698 67.835c.917 0 1.661-.728 1.661-1.625 0-.898-.744-1.625-1.661-1.625s-1.661.727-1.661 1.625c0 .897.744 1.625 1.661 1.625z" fill="#FFB6B6"/>
    <path d="M123.359 62.824h-16.61v.542h16.61v-.542zM117.13 64.923h-10.381v.407h10.381v-.407zM113.67 66.955h-6.921v.406h6.921v-.406zM129.272 22.593h19.379c.382 0 .692.304.692.677v18.872c0 .897-.745 1.625-1.661 1.625h-17.441c-.916 0-1.661-.728-1.661-1.625V23.27c0-.373.31-.677.692-.677z" fill="#C9CCD4"/>
    <path d="M148.651 23.135c.076 0 .138.061.138.135v18.872c0 .597-.497 1.083-1.107 1.083h-17.441c-.61 0-1.107-.486-1.107-1.083V23.27c0-.074.062-.135.138-.135h19.379zm0-.542h-19.379a.685.685 0 0 0-.692.677v18.872c0 .898.743 1.625 1.661 1.625h17.441c.917 0 1.661-.727 1.661-1.625V23.27a.685.685 0 0 0-.692-.677z" fill="#C9CCD4"/>
    <path d="M148.098 34.51h-18.271a.685.685 0 0 1-.692-.677v-7.448h19.655v7.448c0 .374-.31.677-.692.677z" fill="#fff"/>
    <path d="M145.605 33.045c.918 0 1.661-.728 1.661-1.625 0-.898-.743-1.625-1.661-1.625-.917 0-1.661.727-1.661 1.625 0 .897.744 1.625 1.661 1.625z" fill="#FFB6B6"/>
    <path d="M147.266 28.035h-16.61v.541h16.61v-.541zM141.038 30.133h-10.382v.407h10.382v-.407zM137.577 32.165h-6.921v.406h6.921v-.406z" fill="#C9CCD4"/>
    <path d="M147.129 43.201h-16.333c-.918 0-1.661-.727-1.661-1.625v-5.823c0-.373.31-.677.692-.677h18.271c.382 0 .692.303.692.677v5.823c0 .898-.743 1.625-1.661 1.625z" fill="#fff"/>
    <path d="M145.605 41.736c.918 0 1.661-.728 1.661-1.625s-.743-1.625-1.661-1.625c-.917 0-1.661.728-1.661 1.625s.744 1.625 1.661 1.625z" fill="#FFB6B6"/>
    <path d="M147.266 36.725h-16.61v.542h16.61v-.542zM141.038 38.825h-10.382v.406h10.382v-.407zM137.577 40.856h-6.921v.406h6.921v-.406z" fill="#C9CCD4"/>
    <path d="m174.151 122.892-.57 5.21h5.552l.569-5.21h-5.551z" fill="#EAC19C"/>
    <path d="M179.382 128.373h-6.109l.629-5.751h6.108l-.628 5.751zm-5.493-.542h4.995l.51-4.668H174.4l-.511 4.668z" fill="#EAC19C"/>
    <path d="M179.275 126.397s-3.017 2.24-5.55 0l-7.518 3.832c-.331.17-.209.659.165.659h13.283a.628.628 0 0 0 .617-.785l-.997-3.706z" fill="#222847"/>
    <path d="m158.344 122.892-.571 5.21h5.551l.57-5.21h-5.55z" fill="#EAC19C"/>
    <path d="M163.572 128.373h-6.108l.628-5.751h6.109l-.629 5.751zm-5.492-.542h4.994l.511-4.668h-4.994l-.511 4.668z" fill="#EAC19C"/>
    <path d="M163.466 126.397s-3.018 2.24-5.551 0l-7.517 3.832c-.331.17-.209.659.164.659h13.283a.628.628 0 0 0 .617-.785l-.996-3.706zM157.362 124.423h7.818l3.711-33.225 4.139-26.273h-10.256l-3.702 23.547-1.71 35.951z" fill="#222847"/>
    <path d="M165.428 124.694h-8.357l.014-.283 1.71-35.964.002-.014 3.739-23.778h10.815l-4.188 26.587-3.737 33.453.002-.001zm-7.777-.542h7.28l3.684-32.982 4.091-25.975h-9.695L159.346 88.5l-1.696 35.652.001.001z" fill="#222847"/>
    <path d="m169.198 44.424.594-5.231s-5.051.872-3.268-9.156c0 0 5.644-1.308 7.279 0 1.633 1.308 1.04 4.506.743 4.942l.594 9.882-5.942-.436v-.001z" fill="#EAC19C"/>
    <path d="m175.436 45.153-6.543-.481.589-5.19a3.109 3.109 0 0 1-2.165-.895c-1.465-1.43-1.824-4.323-1.064-8.597l.032-.176.177-.04c.235-.055 5.797-1.324 7.517.053 1.643 1.315 1.235 4.44.849 5.213l.608 10.113zm-5.93-.978 5.34.391-.581-9.663.051-.076c.23-.337.812-3.381-.688-4.581-1.209-.967-5.201-.35-6.862.013-.851 4.955.034 7.051.933 7.937.917.902 2.002.737 2.048.729l.361-.06-.039.356-.562 4.952-.001.002z" fill="#EAC19C"/>
    <path d="m173.062 33.38-.593.144-.298-1.453s-.594-.58-.743-1.598c0 0-3.191 1.466-5.012.224l-.178 1.374s-.753-.29-.456-2.034c0 0-1.894-.754-.892-2.47.594-1.017.986-.222 3.862-.436.547-.04 1.189 0 1.931-.58.743-.582 2.822-.292 2.674.871 0 0 3.12.145 2.229 5.087 0 0-.393 1.89-1.013 2.907l-.472-1.163s1.337-1.89 0-2.325c-1.338-.436-1.04 1.453-1.04 1.453l.001-.002z" fill="#222847"/>
    <path d="M162.206 53.081s-3.837 7.516-7.264 7.663c-.957.041-2.564-.418-2.564-2.786 0-3.868.428-15.468.428-15.468s-2.136-1.951-2.991-4.32c0 0-1.567-2.09-.712-2.229 0 0 0-.974.712-.696 0 0 0-.975.711-.557 0 0-.143-.836.712-.558l1.424 2.368 1.567 1.812s-.428-1.951.711-2.23l.571 2.648.854 14.63 1.566-2.507 4.273 2.229.002.001z" fill="#EAC19C"/>
    <path d="M154.834 61.018c-.416 0-1.225-.088-1.868-.69-.573-.537-.864-1.335-.864-2.37 0-3.617.378-14.108.424-15.355-.427-.41-2.175-2.171-2.958-4.304-.317-.426-1.199-1.697-.95-2.297a.53.53 0 0 1 .221-.253c.03-.214.117-.547.376-.719a.647.647 0 0 1 .359-.107c.045-.195.142-.422.355-.54a.592.592 0 0 1 .34-.07.675.675 0 0 1 .218-.364c.2-.167.483-.194.84-.078l.098.032 1.465 2.437.985 1.138c.008-.655.19-1.463 1-1.663l.278-.067.634 2.963.804 13.765 1.24-1.987 4.741 2.474-.12.236c-.16.313-3.951 7.66-7.5 7.814a2.945 2.945 0 0 1-.12.002l.002.003zm-5.253-25.552c-.02 0-.04.004-.055.014-.093.06-.145.313-.147.463v.227l-.231.038a.08.08 0 0 0-.026.007c-.085.176.347 1.036.916 1.796l.024.032.014.038c.822 2.28 2.898 4.193 2.919 4.211l.093.084-.005.124c-.004.116-.427 11.637-.427 15.456 0 .882.232 1.548.692 1.979.559.522 1.293.55 1.582.539 2.896-.125 6.226-6.022 6.904-7.28l-3.801-1.984-1.892 3.029-.904-15.475-.491-2.282c-.511.46-.248 1.756-.245 1.771l.228 1.052-2.304-2.67-1.369-2.277c-.126-.028-.19-.013-.211.003-.05.04-.061.192-.046.282l.09.57-.505-.295c-.119-.07-.177-.068-.183-.064-.053.03-.11.23-.11.389v.4l-.38-.15a.37.37 0 0 0-.13-.03v.003z" fill="#EAC19C"/>
    <path d="M181.206 124.352h-8.107l-5.091-33.974-1.46-26.08h12.391l.017 25.642 2.25 34.412z" fill="#222847"/>
    <path d="M181.502 124.623h-8.64l-.034-.231-5.094-33.987v-.013l-1.477-26.365h12.96l.017 25.904 2.268 34.692zm-8.162-.542h7.571l-2.233-34.133v-.008l-.015-25.371h-11.822l1.444 25.781 5.055 33.731z" fill="#222847"/>
    <path d="m156.794 51.27 4.984 2.926.571-.836-.785 16.765s2.273 4.309 9.055 2.413c2.223-.622 9.235-.788 9.235-.788l.582-17.693 1.353 2.3 5.555-4.32-4.446-7.249a4.561 4.561 0 0 0-2.556-1.967l-5.176-1.582s-5.269 5.434-5.982 0l-3.535.58a6.03 6.03 0 0 0-4.057 2.517l-4.798 6.935v-.002z" fill="#CB3036"/>
    <path d="m182.713 55.868 4.842 6.688-5.84 4.18-3.418-3.467-3.264-.705s.793 1.107 2.385 1.734l.879 1.045-1.71-.418-2.511 1.518s.944.154 1.8-.125l-1.551 1.115s1.25.384 2.106-.313l-.554.87s1.12.14 1.689-.695c0 0 .304.278 1.443.278 0 0 .997 1.394 1.852 1.533 0 0 3.695-.498 10.6-4.56a1.484 1.484 0 0 0 .583-1.968l-5.202-10.053-4.13 3.344.001-.001z" fill="#EAC19C"/>
    <path d="m180.858 69.379-.041-.007c-.82-.134-1.67-1.165-1.948-1.53-.625-.014-1.006-.11-1.228-.2-.681.745-1.749.622-1.798.617l-.427-.053.289-.455a3.214 3.214 0 0 1-1.459-.06l-.522-.16 1.079-.776a4.588 4.588 0 0 1-.769-.045l-.726-.118 3.237-1.959 1.009.247-.301-.359c-1.605-.653-2.409-1.756-2.442-1.804l-.409-.57 4.041.872 3.308 3.357 5.425-3.882-4.834-6.676 4.596-3.72 5.358 10.355a1.764 1.764 0 0 1-.688 2.324c-6.875 4.044-10.552 4.575-10.705 4.596l-.042.005h-.003zm-3.103-2.284s.3.206 1.255.206h.144l.083.115c.254.354 1.03 1.28 1.63 1.414.429-.072 4.08-.77 10.453-4.516a1.225 1.225 0 0 0 .479-1.614l-5.045-9.75-3.666 2.968 4.852 6.7-6.255 4.477-3.529-3.579-2.315-.5c.378.335.94.74 1.681 1.033l.065.025 1.458 1.732-2.41-.589-1.636.99c.251-.016.526-.057.79-.143l1.671-.545-2.432 1.748c.375.014.853-.047 1.227-.353l1.321-1.078-1.191 1.87c.307-.049.697-.188.951-.56l.181-.266.238.218v-.003z" fill="#EAC19C"/>
    <path d="M205.5 130.63H9.5v.542h196v-.542z" fill="#C9CCD4"/>
</svg>
