<svg width="215" height="136" viewBox="0 0 215 136" fill="none" xmlns="http://www.w3.org/2000/svg">
    <g clip-path="url(#m564j5suga)">
        <path d="M155.724 101.896H154.4v-1.322h-.531v1.322h-1.324v.529h1.324v1.322h.531v-1.322h1.324v-.529zM66.053 88.28v-1.322h-.53v1.321h-1.325v.53h1.326v1.321h.529V88.81h1.324v-.53h-1.324zM50.951 7.503h-1.324V6.18h-.529v1.322h-1.325v.528h1.325v1.323h.53V8.03h1.323v-.528zM74.396 97.533a1.855 1.855 0 0 1-1.855-1.85 1.855 1.855 0 0 1 3.71 0c0 1.02-.833 1.85-1.855 1.85zm0-3.172c-.731 0-1.325.593-1.325 1.321a1.325 1.325 0 0 0 2.649 0c0-.728-.595-1.321-1.324-1.321zM186.12 12.887c0-.028.01-2.798 2.906-2.827 2.4-.023 2.653-2.167 2.662-2.26l.527.055c-.003.028-.315 2.705-3.183 2.733-2.362.024-2.381 2.203-2.381 2.295l-.531.004zM33.003 26.108l-.53-.004.264.002h-.265c0-.094-.019-2.273-2.38-2.296-2.869-.028-3.181-2.706-3.184-2.733l.527-.054c.01.09.272 2.235 2.662 2.26 2.895.028 2.906 2.799 2.906 2.826v-.001z" fill="#9499A9"/>
        <path d="M159.192 4.726H66.427a5.337 5.337 0 0 0-5.342 5.332v57.95a5.337 5.337 0 0 0 5.342 5.332h92.765a5.336 5.336 0 0 0 5.341-5.332v-57.95a5.336 5.336 0 0 0-5.341-5.332z" fill="#fff"/>
        <path d="M159.192 73.605H66.427c-3.091 0-5.606-2.51-5.606-5.595V10.058c0-3.086 2.515-5.596 5.606-5.596h92.765c3.092 0 5.607 2.51 5.607 5.596v57.95c0 3.086-2.515 5.596-5.607 5.596v.001zM66.427 4.992c-2.8 0-5.077 2.273-5.077 5.067v57.95c0 2.795 2.278 5.068 5.077 5.068h92.765c2.8 0 5.078-2.273 5.078-5.067V10.058c0-2.795-2.278-5.068-5.078-5.068H66.427v.002z" fill="#2B335A"/>
        <path d="M81.514 12.543v24.085h62.354v-9.804s-4.532-6.342-12.385 1.705c-1.717 1.76-5.872 6.607-9.61 2.132-2.4-2.875-4.782-10.953-7.047-13.215-1.601-1.598-5.684-2.592-8.221 2.025-1.157 2.104-3.007 7.592-3.737 8.845-.9 1.543-5.125 4.262-7.154-.214-1.471-3.247-3.097-10.87-6.086-12.895-2.99-2.026-8.114-2.664-8.114-2.664z" fill="#FE9A22"/>
        <path d="M146.056 38.703H79.542V10.147h66.514v28.556zm-65.985-.529h65.454V10.676H80.071v27.498z" fill="#9499A9"/>
        <path d="M133.875 34.798c-3.881 0-6.367-6.062-7.919-9.845a51.895 51.895 0 0 0-.694-1.645c-2.042-4.504-2.748-5.481-4.447-6.15-1.378-.543-2.705-.536-3.948.02-1.638.733-2.831 2.313-3.288 3.553-.357.97-.675 1.856-.956 2.635-1.483 4.115-2.159 5.994-3.794 7.789-1.26 1.384-2.725 2.044-4.234 1.91-1.735-.154-3.224-1.339-3.873-2.374-.576-.916-.983-1.896-1.457-3.03-.84-2.016-1.887-4.523-4.396-7.6-3.588-4.4-13.195-2.135-13.292-2.112l-.126-.514c.408-.1 10.029-2.367 13.828 2.29 2.559 3.138 3.62 5.684 4.475 7.732.463 1.112.864 2.073 1.416 2.952.583.928 1.918 1.989 3.472 2.127 1.359.121 2.635-.464 3.796-1.738 1.564-1.718 2.229-3.565 3.687-7.611.281-.782.6-1.666.957-2.64.495-1.344 1.79-3.058 3.568-3.854 1.377-.617 2.845-.628 4.358-.03 1.944.766 2.756 2.057 4.735 6.424.207.456.436 1.016.702 1.664 1.663 4.053 4.446 10.838 8.682 9.281 1.887-.694 2.326-2.168 3.247-7.68.237-1.419.841-2.49 1.749-3.097.954-.637 2.233-.779 3.802-.42l-.118.515c-1.423-.324-2.563-.208-3.389.345-.99.662-1.375 1.857-1.522 2.744-.961 5.754-1.439 7.3-3.586 8.09-.5.184-.978.268-1.436.268l.001.002z" fill="#2B335A"/>
        <path d="m133.314 56.11-8.453.97 2.342-8.414c3.342.934 5.842 3.88 6.111 7.445z" fill="#FE9A22"/>
        <path d="M124.928 65.409c-4.784 0-8.676-3.885-8.676-8.66s3.892-8.66 8.676-8.66c.796 0 1.586.108 2.347.32a8.678 8.678 0 0 1 6.329 8.34c0 4.775-3.892 8.66-8.676 8.66zm0-16.79c-4.492 0-8.146 3.648-8.146 8.13 0 4.482 3.655 8.13 8.146 8.13 4.491 0 8.145-3.648 8.145-8.13a8.149 8.149 0 0 0-5.941-7.83 8.18 8.18 0 0 0-2.204-.3z" fill="#9499A9"/>
        <path d="m152.256 56.11-8.452.97 6.334-5.926a8.346 8.346 0 0 1 2.118 4.957z" fill="#FE9A22"/>
        <path d="M143.87 65.409c-4.784 0-8.676-3.885-8.676-8.66s3.892-8.66 8.676-8.66a8.637 8.637 0 0 1 6.466 2.887 8.654 8.654 0 0 1 1.865 3.356c.167.569.274 1.16.318 1.76a8.61 8.61 0 0 1-1.384 5.393 8.66 8.66 0 0 1-7.266 3.925l.001-.001zm0-16.79c-4.492 0-8.145 3.648-8.145 8.13 0 4.482 3.655 8.13 8.145 8.13a8.136 8.136 0 0 0 7.824-10.399 8.123 8.123 0 0 0-1.753-3.15 8.108 8.108 0 0 0-6.069-2.71h-.002z" fill="#9499A9"/>
        <path d="m69.44 62.662-.418-.324 6.569-8.469 5.453 7.169 9.778-10.023 7.41 7.66 7.228-7.987.393.355-7.609 8.407-7.424-7.676-9.825 10.072-5.409-7.109-6.146 7.925z" fill="#2B335A"/>
        <path d="M105.525 52.056a.926.926 0 1 0 .001-1.853.926.926 0 0 0-.001 1.853zM98.305 59.658a.926.926 0 1 0 .002-1.853.926.926 0 0 0-.002 1.853zM90.82 52.452a.926.926 0 1 0 .003-1.853.926.926 0 0 0-.002 1.853zM81.02 62.236a.926.926 0 1 0 .002-1.853.926.926 0 0 0-.002 1.853zM75.522 55.294a.926.926 0 1 0 .002-1.853.926.926 0 0 0-.002 1.853zM69.36 63.161a.926.926 0 1 0 .003-1.852.926.926 0 0 0-.002 1.852z" fill="#FE9A22"/>
        <path d="M107.643 65.011H66.978V47.824h40.665v17.187zm-40.134-.53h39.605V48.353H67.509v16.13z" fill="#9499A9"/>
        <path d="M152.281 56.75c0 1.692-.502 3.27-1.367 4.587l-7.11-4.259 8.144-2.674c.161.547.264 1.119.308 1.705.018.211.025.425.025.639v.001z" fill="#2B335A"/>
        <path d="M143.357 80.12h-42.422a2.695 2.695 0 0 0-2.698 2.692v14.41a2.695 2.695 0 0 0 2.698 2.692h42.422a2.694 2.694 0 0 0 2.697-2.692v-14.41a2.694 2.694 0 0 0-2.697-2.693z" fill="#ECEDF0"/>
        <path d="M143.358 100.178h-42.422a2.962 2.962 0 0 1-2.962-2.956v-14.41a2.962 2.962 0 0 1 2.962-2.957h42.422a2.962 2.962 0 0 1 2.962 2.957v14.41a2.962 2.962 0 0 1-2.962 2.956zm-42.422-19.794a2.432 2.432 0 0 0-2.432 2.426v14.41a2.432 2.432 0 0 0 2.432 2.427h42.422a2.432 2.432 0 0 0 2.431-2.427V82.81a2.432 2.432 0 0 0-2.431-2.427h-42.422z" fill="#fff"/>
        <path d="M108.265 95.075a4.733 4.733 0 0 0 4.737-4.728 4.733 4.733 0 0 0-4.737-4.729 4.733 4.733 0 0 0-4.738 4.729 4.733 4.733 0 0 0 4.738 4.728z" fill="#FE9A22"/>
        <path d="M131.292 87.158h-15.425v2.418h15.425v-2.418z" fill="#2B335A"/>
        <path d="M141.648 90.897h-25.781v2.418h25.781v-2.418z" fill="#FE9A22"/>
        <path d="M30.995 124.445H26.32v3.449h4.675v-3.449z" fill="#FFB8B8"/>
        <path d="M31.26 128.158h-5.205v-3.977h5.205v3.977zm-4.675-.529h4.146v-2.92h-4.146v2.92z" fill="#FFB8B8"/>
        <path d="M26.322 126.978s2.54 1.924 4.674 0l6.332 3.293c.278.144.176.566-.139.566H26.003a.538.538 0 0 1-.521-.674l.838-3.185h.002z" fill="#2B335A"/>
        <path d="M54.86 124.445h-4.675v3.449h4.674v-3.449z" fill="#FFB8B8"/>
        <path d="M55.126 128.158h-5.205v-3.977h5.205v3.977zm-4.675-.529h4.146v-2.92h-4.146v2.92z" fill="#FFB8B8"/>
        <path d="M50.186 126.978s2.54 1.924 4.675 0l6.331 3.293c.279.144.176.566-.139.566H49.867a.538.538 0 0 1-.521-.674l.839-3.185zM34.835 66.242l4.01 18.85-7.217 40.314H23.93s3.754-37.515 3.85-38.035c.123-.677-.261-26.691-.245-26.12l7.302 4.99h-.002z" fill="#2B335A"/>
        <path d="M31.852 125.67H23.64l.028-.291c.153-1.533 3.757-37.531 3.853-38.055.091-.64-.14-17.827-.216-23.475l-.031-2.424V61.257h.003c.012-.15.061-.277.255-.282l.263-.005.004.137 7.277 4.974.021.103 4.022 18.9-7.266 40.584-.001.002zm-7.627-.529h7.184l7.17-40.045-3.978-18.697-6.794-4.644c.006.46.017 1.2.027 2.087.153 11.38.298 23.08.208 23.576-.084.498-2.516 24.72-3.817 37.723z" fill="#2B335A"/>
        <path d="m41.509 65.858 8.335 17.47c.428.9.725 1.853.883 2.836l6.306 39.242h-8.21L38.685 86.22 28.279 62.209l13.23 3.649z" fill="#2B335A"/>
        <path d="M57.345 125.67h-8.727L38.434 86.306l-10.62-24.5 13.88 3.828 8.387 17.58c.44.922.745 1.9.907 2.908l6.355 39.548h.001zm-8.317-.529h7.695l-6.256-38.936a10.124 10.124 0 0 0-.862-2.763L41.322 66.08l-12.58-3.471 10.195 23.524.005.02 10.085 38.989v-.001z" fill="#2B335A"/>
        <path d="M59.471 58.43v5.635l7.057-5.635 1.796-3.585 1.668-1.665s.257.128 0 .897a3.596 3.596 0 0 1-.77 1.281l-.385.897s.899-.128 1.027.384c0 0 .77.256.64.897 0 0 .385 0 .514.512l-.385 1.28-1.411 1.153-.77.128-10.32 9.913c-1.302 1.252-3.476.387-3.56-1.415l-.362-7.857 5.261-2.817v-.003z" fill="#FFB8B8"/>
        <path d="M56.685 71.374c-.296 0-.596-.056-.886-.171a2.338 2.338 0 0 1-1.49-2.087l-.37-8.022 5.797-3.105v5.526l6.58-5.255 1.79-3.572 1.833-1.829.17.086c.11.054.44.302.133 1.217a3.902 3.902 0 0 1-.797 1.344l-.204.475c.33.029.679.149.827.456.296.135.684.433.712.9.194.088.401.28.493.648l.017.07-.43 1.428-1.528 1.249-.758.126-10.26 9.856a2.35 2.35 0 0 1-1.633.664l.004-.004zm-2.202-9.973.356 7.69c.034.73.476 1.35 1.156 1.62.68.271 1.43.124 1.956-.382l10.377-9.969.782-.13 1.294-1.055.34-1.129c-.078-.223-.216-.245-.246-.248h-.323l.072-.315c.082-.407-.46-.592-.465-.594l-.138-.046-.035-.14c-.052-.209-.525-.215-.732-.187l-.465.064.589-1.373.035-.035s.473-.482.707-1.178c.034-.1.057-.188.072-.26l-1.271 1.269-1.803 3.599-7.533 6.014v-5.742l-4.724 2.53-.001-.003zM50.937 45.249l4.465-6.132 3.907-4.708 6.143 4.456s-4.283 9.697-8.5 6.77l-1.564 2.694-4.453-3.079.002-.001z" fill="#FFB8B8"/>
        <path d="m55.475 48.708-4.91-3.396 4.635-6.365 4.065-4.9 6.519 4.729-.087.194c-.115.262-2.866 6.412-6.23 7.356a3.002 3.002 0 0 1-2.42-.322l-1.57 2.702-.002.002zm-4.163-3.523 3.993 2.762 1.564-2.694.236.163c.706.49 1.43.621 2.216.402 2.81-.788 5.305-5.813 5.801-6.867l-5.767-4.182-3.743 4.51-4.302 5.907h.002z" fill="#FFB8B8"/>
        <path d="M55.294 36.112s-3.595-2.872.383-5.793c3.979-2.92 4.61 2.024 4.61 2.024s9.068 2.619 5.106 8.06c0 0-.983.08-1.864-.164l-1.163 2.323-.77-.031s.415-2.206-.733-1.72c-1.148.488-1.305 1.43-1.061 2.003 0 0-2.531 2.387-5.647-1.324 0 0-1.386-2.457 1.139-5.378z" fill="#2B335A"/>
        <path d="M51.001 44.087h-7.185s-11.869 3.649-13.408 5.57c-.838 1.045.77 4.227 2.025 6.052l-5.298 5.41c5.39 10.372 16.038 8.836 16.038 8.836 1.284-3.202 10.521-13.191 10.521-13.191v7.044l6.801-3.33v-8.143c0-1.233-.619-2.383-1.648-3.064L51 44.085v.002z" fill="#FF6584"/>
        <path d="M181.607 123.292h-5.043v4.828h5.043v-4.828z" fill="#FFCFCF"/>
        <path d="M181.874 128.386h-5.573v-5.358h5.573v5.358zm-5.043-.53h4.514v-4.3h-4.514v4.3zM184.451 116.209l2.223 3.644 4.274-2.672-2.223-3.642-4.274 2.67z" fill="#FFCFCF"/>
        <path d="m186.585 120.219-2.498-4.094 4.724-2.952 2.498 4.094-4.724 2.952zm-1.774-3.923 1.947 3.191 3.826-2.39-1.948-3.191-3.825 2.39zM162.345 42.696l-3.624 1.55-6.858-10.59-2.458-1.808-2.848-1.292s-.582 1.226.971 2.002c1.553.775 1.877 1.226 1.877 1.226s-.971.064-1.036 1.163c0 0-.518.13-.582 1.098 0 0-.776.517-.388 1.163 0 0 .582 1.355 1.746 1.743 1.165.388 1.811.388 1.811.388l5.937 10.135a2.206 2.206 0 0 0 2.779.908l5.066-2.194-2.393-5.49v-.002z" fill="#FFCFCF"/>
        <path d="M158.799 50.825a2.473 2.473 0 0 1-2.133-1.219l-5.865-10.011c-.266-.022-.863-.102-1.739-.393-1.204-.402-1.822-1.703-1.899-1.875-.353-.608.041-1.157.371-1.425.076-.703.381-1.005.586-1.13.083-.6.423-.937.76-1.107-.259-.198-.712-.494-1.47-.873-1.765-.88-1.098-2.337-1.091-2.352l.111-.235 3.133 1.426 2.498 1.838 6.764 10.444 3.66-1.566 2.605 5.973-5.309 2.299a2.471 2.471 0 0 1-.98.204l-.002.002zm-12.074-19.904c-.055.34.008.943.922 1.399 1.567.781 1.936 1.258 1.973 1.31l.277.386-.475.031c-.073.007-.739.085-.788.915l-.011.193-.188.048s-.333.12-.382.859l-.008.13-.109.072c-.057.038-.556.394-.308.806l.016.032c.006.012.552 1.252 1.587 1.596 1.1.366 1.723.374 1.73.374h.151l.076.131 5.937 10.135a1.942 1.942 0 0 0 2.445.797l4.822-2.089-2.183-5.005-3.587 1.534-6.954-10.738-2.397-1.762-2.545-1.154h-.001z" fill="#FFCFCF"/>
        <path d="m186.159 65.04-2.848 19.89-.517 40.426h-9.316l.646-40.297 2.2-20.923 9.835.904z" fill="#222847"/>
        <path d="m168.945 63.232-2.762 19.52a7.954 7.954 0 0 0 .747 4.642l15.472 31.246 6.728-5.167-12.81-28.156 7.053-21.246-14.428-.84v.001z" fill="#222847"/>
        <path d="M181.609 126.541s-2.741 2.076-5.043 0l-6.831 3.553c-.3.156-.189.61.15.61h12.068a.58.58 0 0 0 .561-.727l-.905-3.436z" fill="#2B335A"/>
        <path d="m176.23 41.363.467-6.405s-6.002 1.214-3.344-7.375c2.039-6.588 7.993-1.456 7.993-1.456s1.4.93.583 8.152l.175 7.511-5.875-.427h.001z" fill="#FFCFCF"/>
        <path d="m182.375 42.076-6.43-.468.462-6.344c-.654.06-2.105.05-3.082-1.026-1.143-1.26-1.219-3.526-.226-6.732.584-1.888 1.546-3.036 2.86-3.411 2.503-.718 5.341 1.647 5.551 1.826.221.166 1.466 1.435.685 8.371l.181 7.784h-.001zm-5.863-.957 5.32.388-.169-7.238v-.018c.766-6.756-.453-7.894-.465-7.902l-.026-.02c-.027-.024-2.797-2.377-5.069-1.727-1.129.324-1.97 1.353-2.498 3.059-.919 2.971-.881 5.12.11 6.219 1.063 1.174 2.909.823 2.927.82l.341-.069-.025.346-.447 6.141.001.001z" fill="#FFCFCF"/>
        <path d="m160.791 42.437 2.977 7.362 5.241-2.002.323 3.423-1.294 14.595s3.843 3.956 8.215 2.634c6.71-2.03 10.55-.42 10.55-.42l.064-9.9s4.724-1.226 4.852-2.002c.123-.732-.795-10.116-7.341-16.377a4.575 4.575 0 0 0-2.641-1.225l-7.985-.917a4.766 4.766 0 0 0-2.408.348l-10.554 4.481h.001z" fill="#2B335A"/>
        <path d="M174.4 68.987c-3.599 0-6.413-2.846-6.55-2.99l-.085-.086 1.302-14.692-.289-3.052-5.157 1.971-3.171-7.844 10.793-4.583a5.032 5.032 0 0 1 2.542-.367l7.984.917a4.856 4.856 0 0 1 2.794 1.296c6.681 6.392 7.535 15.917 7.419 16.612-.053.317-.409.743-2.651 1.499-.906.305-1.811.558-2.2.663l-.065 10.092-.366-.152c-.037-.015-3.847-1.544-10.369.429a6.63 6.63 0 0 1-1.931.285v.002zm-6.085-3.274c.581.552 4.047 3.637 7.863 2.483 5.633-1.704 9.246-.887 10.363-.539l.064-9.732.196-.052c2.137-.555 4.519-1.408 4.66-1.795.045-.27-.112-2.707-1.162-5.985-.91-2.839-2.707-6.905-6.101-10.152a4.331 4.331 0 0 0-2.489-1.153l-7.984-.917a4.522 4.522 0 0 0-2.275.328l-10.314 4.378 2.782 6.88 5.324-2.033.359 3.794-1.285 14.494-.001.001z" fill="#2B335A"/>
        <path d="M190.436 116.113s-1.22 3.211-4.275 2.67l-3.901 6.629c-.172.291.163.618.451.438l10.229-6.392a.578.578 0 0 0 .09-.913l-2.594-2.432z" fill="#222847"/>
        <path d="M187.133 58.13h-.531c0-7.623-1.91-14.068-1.929-14.132l.507-.152c.019.065 1.953 6.584 1.953 14.283zM176.387 27.648l.129 2.325h.906s.63-2.29 2.199-.774c.276.265.519 1.033.259 2.066 0 0 .546 1.288 1.994 1.467 0 0 .573-.18.724-.305 1.518-1.25 3.253-6.097.906-8.007 0 0-4.529-5.424-9.684-2.295-1.302.791-1.962 3.587 2.567 5.525v-.002z" fill="#2B335A"/>
        <path d="M204.658 130.909H11.557v.545h193.101v-.545z" fill="#D9DBE1"/>
    </g>
    <defs>
        <clipPath id="m564j5suga">
            <path fill="#fff" transform="translate(11 -5.5)" d="M0 0h193v147H0z"/>
        </clipPath>
    </defs>
</svg>
