<svg width="214" height="136" viewBox="0 0 214 136" fill="none" xmlns="http://www.w3.org/2000/svg">
    <path d="M162.21 49.844c6.675 0 12.087-5.42 12.087-12.106s-5.412-12.106-12.087-12.106-12.086 5.42-12.086 12.106 5.411 12.106 12.086 12.106z" fill="#FF6584"/>
    <path d="M126.723 87.299c0 31.982-20.444 39.557-49.007 39.557-28.564 0-36.865-.754-36.865-32.737S3.831 6.572 32.394 6.572c28.564 0 94.329 48.744 94.329 80.727z" fill="#ECEDF0"/>
    <path d="M158.732 120.34H63.913c-3.777 0-6.85-3.078-6.85-6.861V41.687c0-3.784 3.073-6.862 6.85-6.862h94.819c3.777 0 6.85 3.078 6.85 6.861v71.793c0 3.783-3.073 6.861-6.85 6.861zm-94.819-85c-3.493 0-6.335 2.847-6.335 6.346v71.793c0 3.499 2.842 6.346 6.335 6.346h94.819c3.493 0 6.335-2.847 6.335-6.346V41.687c0-3.5-2.842-6.347-6.335-6.347H63.913z" fill="#222847"/>
    <path d="M92.337 115.362c1.073-.028 1.939-.192 1.934-.366-.004-.174-.877-.293-1.95-.266-1.073.028-1.94.192-1.935.366.005.174.878.293 1.951.266z" fill="#B3B7C2"/>
    <path d="M104.65 114.335c1.073-.028 1.939-.192 1.934-.366-.004-.174-.877-.293-1.95-.266-1.073.028-1.939.191-1.935.366.005.174.878.293 1.951.266z" fill="#222847"/>
    <path d="M87.38 113.238c1.074-.028 1.94-.191 1.935-.366-.004-.174-.878-.293-1.95-.266-1.073.028-1.94.192-1.935.366.004.174.878.293 1.95.266z" fill="#FF6584"/>
    <path d="M83.274 112.302c.002-.157-.383-.289-.86-.294-.477-.006-.865.117-.866.274-.002.157.383.288.86.294.476.005.864-.118.866-.274z" fill="#B3B7C2"/>
    <path d="M80.262 110.635c.002-.157-.383-.288-.86-.294-.477-.005-.865.118-.866.275-.002.156.383.288.86.293.476.006.864-.117.866-.274z" fill="#222847"/>
    <path d="M96.643 112.906c.002-.157-.383-.288-.86-.294-.477-.005-.865.118-.867.275-.001.156.384.288.86.293.477.006.865-.117.867-.274z" fill="#B3B7C2"/>
    <path d="M91.06 113.961c.002-.157-.383-.289-.86-.294-.476-.005-.864.117-.866.274-.002.157.383.289.86.294.477.005.865-.117.867-.274z" fill="#FF6584"/>
    <path d="M100.313 114.741c.002-.157-.383-.288-.86-.294-.477-.005-.865.118-.867.275-.001.156.384.288.86.293.477.006.865-.117.867-.274z" fill="#222847"/>
    <path d="M131.167 114.847c1.073-.028 1.939-.192 1.934-.366-.004-.174-.877-.293-1.95-.266-1.073.028-1.939.191-1.935.366.005.174.878.293 1.951.266z" fill="#B3B7C2"/>
    <path d="M143.48 113.819c1.073-.027 1.939-.191 1.934-.365-.004-.175-.877-.294-1.95-.266-1.073.027-1.939.191-1.935.366.005.174.878.293 1.951.265z" fill="#222847"/>
    <path d="M126.211 112.723c1.073-.028 1.939-.192 1.934-.366-.004-.174-.878-.293-1.95-.266-1.073.028-1.939.191-1.935.366.005.174.878.293 1.951.266z" fill="#FF6584"/>
    <path d="M122.104 111.786c.002-.156-.383-.288-.86-.293-.477-.006-.865.117-.866.274-.002.157.383.288.86.294.476.005.864-.118.866-.275z" fill="#B3B7C2"/>
    <path d="M119.092 110.12c.002-.157-.383-.288-.86-.294-.477-.005-.865.118-.866.274-.002.157.383.289.86.294.476.006.864-.117.866-.274z" fill="#222847"/>
    <path d="M135.473 112.391c.002-.157-.383-.288-.86-.294-.477-.005-.865.118-.866.274-.002.157.383.289.86.294.476.006.864-.117.866-.274z" fill="#B3B7C2"/>
    <path d="M129.891 113.446c.002-.157-.384-.289-.86-.294-.477-.006-.865.117-.867.274-.002.157.384.288.86.294.477.005.865-.118.867-.274z" fill="#FF6584"/>
    <path d="M139.143 114.226c.002-.157-.383-.288-.86-.294-.477-.005-.865.118-.867.274-.001.157.384.289.86.294.477.006.865-.117.867-.274z" fill="#222847"/>
    <path d="M83.075 100.604c-.658.041-1.02-.776-.524-1.253l.05-.197-.02-.047c-.665-1.588-2.917-1.577-3.576.013-.585 1.411-1.33 2.824-1.513 4.316a5.754 5.754 0 0 0 .1 1.976 23.065 23.065 0 0 1-2.091-9.566 22.257 22.257 0 0 1 .454-4.49 23.316 23.316 0 0 1 4.613-9.875 6.196 6.196 0 0 0 2.575-2.676c.199-.408.355-.846.429-1.293-.125.017-.473-1.895-.378-2.012-.175-.266-.487-.398-.678-.657-.949-1.288-2.256-1.063-2.938.688-1.458.736-1.472 1.959-.578 3.134.57.748.647 1.76 1.147 2.56-.052.066-.105.13-.156.196a23.463 23.463 0 0 0-2.444 3.877c.194-1.518-.092-3.348-.581-4.528-.556-1.343-1.598-2.475-2.516-3.637-1.103-1.395-3.364-.786-3.558.983a8.092 8.092 0 0 0-.006.051c.136.077.27.159.4.245.745.493.487 1.649-.394 1.785l-.02.003c.049.492.133.98.257 1.46-1.178 4.561 1.364 6.223 4.995 6.297.08.042.158.083.238.122a23.356 23.356 0 0 0-.88 3.18 22.748 22.748 0 0 0-.39 6.549l-.006-.044a6.001 6.001 0 0 0-2.044-3.464c-1.574-1.294-3.797-1.77-5.494-2.811-.817-.501-1.864.146-1.721 1.095l.007.045a6.575 6.575 0 0 1 1.138.602c.744.493.487 1.648-.395 1.785l-.02.003-.041.006a9.77 9.77 0 0 0 1.793 2.813c.737 3.982 3.9 4.36 7.282 3.201h.003c.37 1.613.91 3.19 1.604 4.692h5.733c.02-.064.039-.13.057-.193a6.486 6.486 0 0 1-1.586-.095c.425-.523.85-1.05 1.276-1.572a.646.646 0 0 0 .027-.031c.216-.268.433-.533.65-.801a9.574 9.574 0 0 0-.28-2.435zM139.514 100.604c.657.041 1.02-.776.523-1.253l-.049-.197.019-.047c.665-1.588 2.917-1.577 3.576.013.585 1.411 1.33 2.824 1.513 4.316.082.659.045 1.33-.1 1.976a23.072 23.072 0 0 0 2.091-9.566 22.377 22.377 0 0 0-.454-4.49 23.31 23.31 0 0 0-4.613-9.875 6.198 6.198 0 0 1-2.574-2.676 4.714 4.714 0 0 1-.43-1.293c.126.017.473-1.895.378-2.012.175-.266.488-.398.678-.657.949-1.288 2.256-1.063 2.939.688 1.457.736 1.472 1.959.577 3.134-.569.748-.647 1.76-1.146 2.56.051.066.104.13.156.196a23.466 23.466 0 0 1 2.443 3.877c-.194-1.518.093-3.348.581-4.528.556-1.343 1.599-2.475 2.517-3.637 1.102-1.395 3.363-.786 3.558.983l.005.051c-.136.077-.27.159-.4.245-.744.493-.487 1.649.395 1.785l.02.003c-.05.492-.134.98-.257 1.46 1.177 4.561-1.365 6.223-4.995 6.297-.08.042-.158.083-.239.122.368 1.037.662 2.101.88 3.18a22.77 22.77 0 0 1 .39 6.549l.006-.044a6.002 6.002 0 0 1 2.045-3.464c1.573-1.294 3.796-1.77 5.493-2.811.817-.501 1.864.146 1.722 1.095l-.007.045a6.523 6.523 0 0 0-1.138.602c-.745.493-.487 1.648.395 1.785l.02.003.041.006a9.783 9.783 0 0 1-1.794 2.813c-.737 3.982-3.899 4.36-7.282 3.201h-.002c-.37 1.613-.91 3.19-1.605 4.692h-5.733a8.257 8.257 0 0 1-.057-.193c.53.033 1.064.002 1.586-.095-.425-.523-.851-1.05-1.276-1.572l-.027-.031c-.215-.268-.433-.533-.649-.801a9.588 9.588 0 0 1 .28-2.435z" fill="#62BAEE"/>
    <path d="M28.664 105.762c0 .17.136.307.306.307h163.367a.306.306 0 0 0 0-.613H28.97a.305.305 0 0 0-.306.306z" fill="#222847"/>
    <path d="M41.029 22.41h-6.944a1.288 1.288 0 0 1 0-2.577h6.944a1.288 1.288 0 0 1 0 2.576zM148.916 22.152a1.158 1.158 0 1 0-.002-2.317 1.158 1.158 0 0 0 .002 2.317zM152.516 22.152a1.158 1.158 0 1 0-.002-2.317 1.158 1.158 0 0 0 .002 2.317zM156.116 22.152a1.158 1.158 0 1 0-.002-2.317 1.158 1.158 0 0 0 .002 2.317z" fill="#B3B7C2"/>
    <path d="M196.103 73.023v57.133c0 3.222-2.617 5.844-5.834 5.844h-43.752l.406-.515 48.666-61.808.514-.654z" fill="#C9CCD4"/>
    <path d="M190.269 0H23.731c-3.217 0-5.835 2.622-5.835 5.844v124.311c0 3.223 2.618 5.845 5.835 5.845H190.27c3.217 0 5.834-2.622 5.834-5.845V5.845c0-3.223-2.617-5.845-5.834-5.845zm5.32 130.155a5.325 5.325 0 0 1-5.32 5.33H23.731a5.325 5.325 0 0 1-5.32-5.33V40.613C18.41 18.468 36.334.515 58.443.515H190.27a5.325 5.325 0 0 1 5.32 5.33v124.31z" fill="#B3B7C2"/>
    <path d="m120.342 70.277-.786-12.193a1.97 1.97 0 1 0-3.923.34l1.204 12.64.409 7.712a1.72 1.72 0 0 0 .841 3.262 1.718 1.718 0 0 0 1.298-2.729l.957-9.032z" fill="#FFB6B6"/>
    <path d="M120.835 69.267a.582.582 0 0 0 .063-.703.757.757 0 0 1-.105-.447c.003-.03.007-7.273.014-7.303a1.14 1.14 0 0 0-.245-1.023c-.401-.449-.612-1.143-.715-1.765-.113-.68-.19-1.377-.462-2.011-.393-.914-1.28-1.71-2.437-1.272-.49.186-.891.555-1.153 1.01-.55.954-.516 2.082-.473 3.16l-.226-.418a8.75 8.75 0 0 1-.501 3.465c.259-.06.456 7.497.381 7.752-.075.256-.302.43-.496.613-.244.23-.47.568-.221.898.119.158.31.249.507.267 1.851.175 3.738-.04 5.502-.624.394-.13.814-.307 1.008-.674.194-.366-.027-.946-.441-.925z" fill="#62BAEE"/>
    <path d="m103.497 114.792-1.748.687-3.533-6.578 2.58-1.012 2.701 6.903z" fill="#FFB6B6"/>
    <path d="M99.03 119.812a.84.84 0 0 0 1.087.476l3.475-1.364.113-1.475.719 1.148 1.311-.514-2.099-4.281-.467.153-1.906.618-.614.2.49 1.253-2.025 3.01a.842.842 0 0 0-.085.776z" fill="#222847"/>
    <path d="m121.335 131.497-1.877.039-1.047-7.395 2.77-.058.154 7.414z" fill="#FFB6B6"/>
    <path d="M115.411 134.661c.01.464.393.833.856.824l3.732-.078.615-1.345.278 1.326 1.409-.029-.494-4.743-.491-.019-2.002-.079-.646-.025.028 1.346-2.938 2.123a.842.842 0 0 0-.347.699zM106.134 70.13l12.345 2.16-.464 2.327s.774.976.464 1.341c-.309.365-.929-.255-.309.365.619.62.818.788-.112 1.719-.929.93.569-.557.569-.557s.071 1.713.431 2.25c2.491 3.718 1.822 7.043.549 11.336-.721 2.429.765 7.111.765 7.967l-.146 5.993s3.252 13.185 1.549 19.389l.241 2.387-3.958.095-4.645-18.614s-.728-1.865-.751-2.561c-.024-.696-.024-.076-.024-.696s-.154-1.241-.154-1.396c0-.155-1.239-15.323-1.239-15.323s-4.545 2.511-5.009 2.977c-.465.465-1.292.04-1.286.515.006.475-.426.648-.771 1.03-.346.382-.915-.389-.605.697.31 1.086-4.111 2.737-4.576 3.202-.465.465 3.638 3.828 3.123 10.268l-.257 2.575-3.343 1.546-7.14-13.323a4.535 4.535 0 0 1 .647-4.822l10.093-11.992s1.226-5.89 2.31-6.511l1.703-4.343z" fill="#222847"/>
    <path d="M117.839 70.98c.108-.463-.787-3.652-.406-4.78.249-.738.848-1.282.841-2.162 0-.057-.003-.116-.011-.177-.003-.031-.01-.063-.014-.095.775-2.765 1.163-7.905 1.163-7.905l-3.709-4.43-.008-.058c-.075-.654-.626-.18-1.23-.524-.27-.152-.129-1.395-.441-1.31l-.03.011-.01-.01-.612-.66-3.365-.31-.782 1.069-.001.008c-.666.123-.837.197-.939.937-.019.14-.031.279-.036.42-.023.528-2.778 1.057-2.651 1.56l-.905.603s-3.4 4.245-2.161 5.486c.471.471.717 1.254.818 2.106.003.029.01.055.015.082-.142.456-.34 1.232-.016 1.4.576.297 1.818 8.965.506 9.584-3.108 1.465 5.23 4.35 8.547 4.526.972.051 2.132-.005 3.061-.265l3.116.263-.257-1.545c2.233-.191-.595-3.342-.483-3.823z" fill="#62BAEE"/>
    <path d="m91.309 47.487 9.086 7.833a2.02 2.02 0 0 0 2.808.398 2.027 2.027 0 0 0 .357-2.917l-9.698-7.979-3.21-8.52a1.768 1.768 0 0 0-.103-1.945 1.76 1.76 0 0 0-2.466-.369 1.767 1.767 0 0 0 .435 3.073l2.79 10.426z" fill="#FFB6B6"/>
    <path d="M91.443 48.793c-.046.266 6.015 5.156 6.258 5.273a.774.774 0 0 1 .383.409c.138.36.417.639.79.736.597.156 1.171.63 1.611 1.104.482.518.943 1.07 1.535 1.458.853.56 2.063.736 2.805-.296.315-.438.448-.982.415-1.52-.069-1.129-.737-2.074-1.385-2.973l.43.23c-.723-.965-2.077-1.212-2.363-2.384-.188.199-.552.016-.632-.245-.08-.262-5.9-5.177-5.837-5.443.078-.336.08-.753-.32-.894a.734.734 0 0 0-.585.06c-1.683.902-2.347 1.291-3.526 2.795-.263.335-.522.725-.48 1.149.041.424.559.794.901.541z" fill="#62BAEE"/>
    <path d="M110.873 48.847a5.33 5.33 0 0 0 5.326-5.335 5.33 5.33 0 0 0-5.326-5.335 5.331 5.331 0 0 0-5.327 5.335 5.331 5.331 0 0 0 5.327 5.335z" fill="#FFB6B6"/>
    <path d="M59.286 46.913h-27.61a1.555 1.555 0 0 0 0 3.109h27.61a1.555 1.555 0 0 0 0-3.11zM47.253 38.195H31.676a1.555 1.555 0 0 0 0 3.11h15.577a1.555 1.555 0 0 0 0-3.11zM59.286 93.534h-27.61a1.555 1.555 0 0 0 0 3.109h27.61a1.555 1.555 0 0 0 0-3.11zM47.253 84.816H31.676a1.555 1.555 0 0 0 0 3.11h15.577a1.555 1.555 0 0 0 0-3.11z" fill="#B3B7C2"/>
    <path d="M178.479 131.16c.532.034.825-.628.423-1.013l-.04-.159.016-.038c.538-1.284 2.358-1.275 2.891.01.473 1.141 1.075 2.284 1.223 3.49a4.661 4.661 0 0 1-.081 1.597 18.657 18.657 0 0 0 1.69-7.733 17.937 17.937 0 0 0-.367-3.63 18.845 18.845 0 0 0-3.728-7.982 5.015 5.015 0 0 1-2.082-2.163 3.835 3.835 0 0 1-.347-1.045c.102.014.382-1.532.306-1.627.141-.214.394-.321.548-.531.767-1.041 1.824-.859 2.375.556 1.179.596 1.19 1.584.467 2.534-.46.604-.523 1.422-.927 2.069l.126.158c.762.979 1.42 2.03 1.976 3.135-.157-1.228.074-2.707.469-3.66.45-1.087 1.292-2.001 2.034-2.94.892-1.128 2.719-.636 2.876.794l.005.041c-.11.063-.218.129-.324.199-.601.398-.394 1.332.319 1.442l.016.003a7.842 7.842 0 0 1-.207 1.179c.952 3.688-1.103 5.031-4.038 5.091-.065.033-.128.067-.193.098.298.839.535 1.699.711 2.571a18.32 18.32 0 0 1 .316 5.293l.005-.035a4.85 4.85 0 0 1 1.653-2.799c1.271-1.047 3.068-1.432 4.44-2.273.661-.405 1.507.118 1.392.885l-.006.037a5.107 5.107 0 0 0-.92.486c-.602.398-.394 1.332.319 1.443l.016.002.034.005a7.904 7.904 0 0 1-1.45 2.274c-.596 3.219-3.152 3.525-5.887 2.587h-.001a19.302 19.302 0 0 1-1.298 3.793h-4.633c-.017-.051-.032-.104-.047-.156.429.027.86.002 1.282-.076-.344-.423-.687-.849-1.031-1.271l-.022-.025c-.174-.217-.35-.431-.525-.648a7.758 7.758 0 0 1 .226-1.968z" fill="#fff"/>
    <path d="M116.857 40.959c.745-2.72-7.375-5.054-8.953-2.863-.22-.311-1.031-.5-1.403-.405-.372.095-.685.334-.99.566-.42.323-.855.657-1.112 1.121-.26.463-.3 1.094.049 1.495.277.319.763 2.015 1.179 2.1.29.058.534.106.744.14.187-.273.664-.616.63-.947.282.188.179.517.122.854-.19 1.121-4.461 9.802-2.014 7.244.242.143.541.277.887.4a11.184 11.184 0 0 0 1.383-3.02l.002.02c.109.948.801 1.726 1.717 1.992 3.672 1.066 6.642-.498 7.664-3.317-.374-.761-.537-.678-.504-.701a.878.878 0 0 1 1.309.418c.06.155.113.288.16.388.532-1.908 1.165-1.632-.87-5.485z" fill="#0B0D17"/>
    <path d="m114.323 38.985-.375-1.92c-.031-.162-.061-.337.012-.485.093-.19.333-.268.542-.238.209.03.365.221.573.258.722.128 1.677-.587 1.936 1.222.108.754 1.309.833 1.711 1.48.401.648.45 1.582-.098 2.11-.437.423-1.139.471-1.707.256-.568-.216-1.023-.652-1.422-1.111-.398-.46-.758-.957-1.217-1.355" fill="#0B0D17"/>
    <path d="M117.143 41.906c-1.466-.205-2.464-.738-2.969-1.586-.66-1.11-.218-2.331-.199-2.383l.31.116c-.004.01-.405 1.13.175 2.1.451.756 1.369 1.235 2.728 1.426l-.045.327z" fill="#62BAEE"/>
</svg>
