<svg width="214" height="136" viewBox="0 0 214 136" fill="none" xmlns="http://www.w3.org/2000/svg">
    <g clip-path="url(#a0erehua0a)">
        <path d="M106.044 27.812a5.642 5.642 0 1 0 0-11.284 5.642 5.642 0 0 0 0 11.284z" fill="#FD6584"/>
        <path d="M118.672 19.498a2.792 2.792 0 0 0-2.398-1.963.318.318 0 0 0-.047-.01c-1.889-.246-3.99.35-5.403 1.648a5.054 5.054 0 0 0-1.232 1.699 2.737 2.737 0 0 0-2.289-1.116 2.79 2.79 0 0 0-2.494 2.01.328.328 0 0 0 .146.357c.17.145.372.248.59.3a42.864 42.864 0 0 0 6.037.82c1.277.08 2.559.1 3.838.059.634-.021 1.242-.042 1.822-.321a2.714 2.714 0 0 0 1.046-.911 3.069 3.069 0 0 0 .384-2.572zM107.064 27.719a2.802 2.802 0 0 0-2.481-2.66.216.216 0 0 0-.036-.001.412.412 0 0 0-.048-.01 7.016 7.016 0 0 0-3.105.319c-1.534.513-2.88 1.549-3.529 3.028a2.73 2.73 0 0 0-2.29-1.116 2.785 2.785 0 0 0-2.494 2.01.328.328 0 0 0 .145.357c.17.145.373.248.59.3a42.855 42.855 0 0 0 4.188.663c1.89.203 3.79.275 5.689.216.632-.021 1.243-.042 1.822-.321a2.703 2.703 0 0 0 1.044-.91c.37-.553.548-1.212.505-1.875zM180.552 96.186a36.315 36.315 0 0 1-1.573 11.363c-.039.134-.086.267-.133.401h-23.152c.331-1.63.856-3.214 1.565-4.718 1.927-4.09 5.072-7.589 8.179-11.065 4.278-4.79 8.453-9.539 9.114-15.767a35.745 35.745 0 0 1 4.026 8.312 9.776 9.776 0 0 0-3.232 1.982c-.259.243-.535.597-.401.935.126.284.472.378.779.44.739.142 1.478.284 2.217.418.582.118 1.172.228 1.762.338.518 2.42.803 4.885.849 7.36z" fill="#D9DBE1"/>
        <path d="M200 93.638c-3.712 2.257-6.071 5.748-7.998 9.657a9.877 9.877 0 0 0-4.49 2.359c-.267.244-.543.598-.401.936.118.283.472.377.778.44.732.142 1.479.283 2.21.417-.071.165-.141.338-.212.503h-24.536a34.693 34.693 0 0 1 3.688-4.215c.291-.291.59-.566.897-.849a36.697 36.697 0 0 1 10.616-6.7A37.35 37.35 0 0 1 200 93.638z" fill="#D9DBE1"/>
        <path d="M169.44 107.95h-21.846a35.563 35.563 0 0 1 .031-5.253c.873-10.797 6.748-21.084 15.611-27.312-1.133 4.034-.551 8.045.629 12.072-.165.055-.331.102-.48.165a9.779 9.779 0 0 0-3.232 1.981c-.26.244-.535.598-.401.936.118.283.472.378.778.44.74.142 1.479.284 2.21.417.59.118 1.18.228 1.77.346.275.048.55.103.825.158.04.094.063.18.102.267 1.385 3.814 2.894 7.66 3.602 11.568.175.981.296 1.971.362 2.965.024.417.039.833.039 1.25zM50.376 96.186a36.318 36.318 0 0 1-1.573 11.363c-.04.134-.086.267-.134.401H25.518c.33-1.63.856-3.214 1.565-4.718 1.926-4.09 5.072-7.589 8.178-11.065 4.278-4.79 8.454-9.539 9.115-15.767a35.77 35.77 0 0 1 4.026 8.312 9.768 9.768 0 0 0-3.232 1.982c-.26.243-.535.597-.401.935.126.284.472.378.778.44.74.142 1.479.284 2.218.418.582.118 1.172.228 1.762.338.518 2.42.803 4.885.849 7.36z" fill="#D9DBE1"/>
        <path d="M69.824 93.638c-3.712 2.257-6.071 5.748-7.998 9.657a9.876 9.876 0 0 0-4.49 2.359c-.268.244-.543.598-.401.936.117.283.471.377.778.44.731.142 1.478.283 2.21.417-.071.165-.142.338-.212.503H35.175a34.677 34.677 0 0 1 3.688-4.215c.29-.291.59-.566.896-.849a36.69 36.69 0 0 1 10.617-6.7 37.348 37.348 0 0 1 19.448-2.548z" fill="#D9DBE1"/>
        <path d="M39.264 107.95H17.418a35.495 35.495 0 0 1 .031-5.253c.873-10.797 6.747-21.084 15.61-27.312-1.132 4.034-.55 8.045.63 12.072-.166.055-.33.102-.48.165a9.772 9.772 0 0 0-3.232 1.981c-.26.244-.535.598-.401.936.117.283.471.378.778.44.74.142 1.479.284 2.21.417.59.118 1.18.228 1.77.346.274.048.55.103.825.158.04.094.063.18.102.267 1.384 3.814 2.894 7.66 3.602 11.568.175.981.296 1.971.362 2.965.023.417.04.833.04 1.25z" fill="#D9DBE1"/>
        <path d="m120.594 98.778 19.521 1.733.209.019V17.238l-.209-.145a60.937 60.937 0 0 0-13.105-6.961l-.997 13.757-.091 1.26-.987 13.642-.304 4.197-4.001 55.304-.036.486zM72.322 15.687c-.14.089-.28.178-.419.27v84.573l.418-.038 19.31-1.714-.037-.486-4-55.304-.304-4.197-.987-13.643-.091-1.26-1.046-14.426a60.799 60.799 0 0 0-12.844 6.225z" fill="#C9CCD4"/>
        <path d="M71.903 15.958c-.281.182-.562.368-.839.556v85.17c0 2.128 1.262 3.912 2.948 4.366.276.075.56.112.845.112h62.722c.284 0 .568-.037.843-.112a3.6 3.6 0 0 0 1.644-.985 4.838 4.838 0 0 0 1.306-3.381v-83.69a53.527 53.527 0 0 0-1.257-.901v84.591c0 .274-.033.547-.098.814-.298 1.257-1.28 2.178-2.438 2.178H74.857c-1.399 0-2.535-1.342-2.535-2.992V15.687c-.14.089-.28.178-.419.27z" fill="#D9DBE1"/>
        <path d="M140.743 23.89h-69.05v1.259h69.05v-1.26z" fill="#D9DBE1"/>
        <path d="M119.595 7.826c-.418-.104-.837-.2-1.26-.292V41.73h1.26V7.826zM94.1 7.11c-.42.078-.84.158-1.259.245v34.374h1.26V7.109zM58.154 103.958a5.65 5.65 0 0 0 1.416 3.744 5.656 5.656 0 0 0 4.252 1.926h82.694a5.67 5.67 0 0 0 5.667-5.668 5.668 5.668 0 0 0-5.667-5.668H63.822a5.674 5.674 0 0 0-5.668 5.666z" fill="#D9DBE1"/>
        <path d="M71.692 42.989h68.631V38.79h-68.63v4.198z" fill="#D9DBE1"/>
        <path d="M108.946 39.84h-5.876a2.308 2.308 0 0 1 2.308-2.308h1.26a2.307 2.307 0 0 1 2.308 2.309z" fill="#D9DBE1"/>
        <path d="M14 107.195a60.957 60.957 0 0 0 5.942 6.118h170.451a60.984 60.984 0 0 0 5.943-6.118H14z" fill="#2B335A"/>
        <path d="M97.83 86.737v21.673h15.184V86.737a.725.725 0 0 0-.731-.731h-13.72a.73.73 0 0 0-.732.73zm5.926 7.447a1.623 1.623 0 0 1 1.621-1.606 1.623 1.623 0 0 1 1.621 1.606v2.515a1.62 1.62 0 0 1-2.764 1.14 1.62 1.62 0 0 1-.478-1.14v-2.515z" fill="#2F2E41"/>
        <path d="M97.784 107.717v2.09a.41.41 0 0 0 .408.41h14.461a.406.406 0 0 0 .288-.121.405.405 0 0 0 .12-.289v-2.09H97.784zM73.945 54.083v39.573a1.903 1.903 0 0 0 1.901 1.902h58.643a1.906 1.906 0 0 0 1.902-1.902V54.083a1.905 1.905 0 0 0-1.902-1.9H75.846a1.904 1.904 0 0 0-1.901 1.9z" fill="#2B335A"/>
        <path d="M75.32 54.575v38.593a1.018 1.018 0 0 0 1.017 1.016H134a1.017 1.017 0 0 0 1.016-1.016V54.575a1.02 1.02 0 0 0-1.016-1.018H76.337a1.02 1.02 0 0 0-1.017 1.018z" fill="#CB3036"/>
        <path d="M87.078 110.71a.621.621 0 0 0 .49.234h34.307a.632.632 0 0 0 .617-.761l-.532-2.529a.636.636 0 0 0-.617-.501H88.099a.64.64 0 0 0-.617.501l-.533 2.529a.633.633 0 0 0 .13.527z" fill="#2F2E41"/>
        <path d="M120.146 108.243h.85a.104.104 0 0 0 .103-.104v-.427a.103.103 0 0 0-.103-.103h-.85a.104.104 0 0 0-.104.103v.427c0 .057.047.104.104.104zM118.032 108.243h.851a.104.104 0 0 0 .103-.104v-.427a.103.103 0 0 0-.103-.103h-.851a.103.103 0 0 0-.103.103v.427c0 .057.046.104.103.104zM115.919 108.243h.85a.104.104 0 0 0 .103-.104v-.427a.103.103 0 0 0-.103-.103h-.85a.103.103 0 0 0-.103.103v.427c0 .057.046.104.103.104zM113.806 108.243h.85a.104.104 0 0 0 .103-.104v-.427a.103.103 0 0 0-.103-.103h-.85a.103.103 0 0 0-.103.103v.427c0 .057.046.104.103.104zM111.693 108.243h.85a.104.104 0 0 0 .103-.104v-.427a.103.103 0 0 0-.103-.103h-.85a.104.104 0 0 0-.104.103v.427c0 .057.047.104.104.104zM109.579 108.243h.851a.104.104 0 0 0 .103-.104v-.427a.103.103 0 0 0-.103-.103h-.851a.103.103 0 0 0-.103.103v.427c0 .057.046.104.103.104zM107.466 108.243h.85a.104.104 0 0 0 .103-.104v-.427a.103.103 0 0 0-.103-.103h-.85a.103.103 0 0 0-.103.103v.427c0 .057.046.104.103.104zM105.353 108.243h.85a.104.104 0 0 0 .103-.104v-.427a.103.103 0 0 0-.103-.103h-.85a.103.103 0 0 0-.103.103v.427c0 .057.046.104.103.104zM103.24 108.243h.85a.104.104 0 0 0 .103-.104v-.427a.103.103 0 0 0-.103-.103h-.85a.104.104 0 0 0-.104.103v.427c0 .057.047.104.104.104zM101.126 108.243h.851a.104.104 0 0 0 .103-.104v-.427a.103.103 0 0 0-.103-.103h-.851a.103.103 0 0 0-.103.103v.427c0 .057.046.104.103.104zM99.013 108.243h.85a.104.104 0 0 0 .103-.104v-.427a.103.103 0 0 0-.103-.103h-.85a.103.103 0 0 0-.103.103v.427c0 .057.046.104.103.104zM96.9 108.243h.85a.104.104 0 0 0 .103-.104v-.427a.103.103 0 0 0-.103-.103h-.85a.103.103 0 0 0-.104.103v.427c0 .057.047.104.104.104zM94.787 108.243h.85a.104.104 0 0 0 .103-.104v-.427a.103.103 0 0 0-.103-.103h-.85a.103.103 0 0 0-.104.103v.427c0 .057.046.104.103.104zM92.673 108.243h.85a.104.104 0 0 0 .104-.104v-.427a.103.103 0 0 0-.103-.103h-.85a.103.103 0 0 0-.104.103v.427c0 .057.046.104.103.104zM90.56 108.243h.85a.104.104 0 0 0 .103-.104v-.427a.103.103 0 0 0-.103-.103h-.85a.103.103 0 0 0-.103.103v.427c0 .057.046.104.103.104zM88.447 108.243h.85a.104.104 0 0 0 .103-.104v-.427a.103.103 0 0 0-.103-.103h-.85a.103.103 0 0 0-.103.103v.427c0 .057.046.104.103.104zM120.17 109.299h.851a.103.103 0 0 0 .103-.103v-.428a.103.103 0 0 0-.103-.103h-.851a.103.103 0 0 0-.103.103v.428c0 .057.046.103.103.103zM118.057 109.299h.851a.103.103 0 0 0 .103-.103v-.428a.103.103 0 0 0-.103-.103h-.851a.103.103 0 0 0-.103.103v.428c0 .057.046.103.103.103zM115.944 109.299h.85a.103.103 0 0 0 .103-.103v-.428a.103.103 0 0 0-.103-.103h-.85a.103.103 0 0 0-.103.103v.428c0 .057.046.103.103.103zM113.831 109.299h.85a.103.103 0 0 0 .103-.103v-.428a.103.103 0 0 0-.103-.103h-.85a.103.103 0 0 0-.103.103v.428c0 .057.046.103.103.103zM111.717 109.299h.851a.103.103 0 0 0 .103-.103v-.428a.103.103 0 0 0-.103-.103h-.851a.103.103 0 0 0-.103.103v.428c0 .057.046.103.103.103zM109.604 109.299h.851a.103.103 0 0 0 .103-.103v-.428a.103.103 0 0 0-.103-.103h-.851a.103.103 0 0 0-.103.103v.428c0 .057.046.103.103.103zM107.491 109.299h.85a.103.103 0 0 0 .103-.103v-.428a.103.103 0 0 0-.103-.103h-.85a.103.103 0 0 0-.103.103v.428c0 .057.046.103.103.103zM105.378 109.299h.85a.103.103 0 0 0 .103-.103v-.428a.103.103 0 0 0-.103-.103h-.85a.103.103 0 0 0-.103.103v.428c0 .057.046.103.103.103zM103.264 109.299h.851a.103.103 0 0 0 .103-.103v-.428a.103.103 0 0 0-.103-.103h-.851a.103.103 0 0 0-.103.103v.428c0 .057.046.103.103.103zM101.151 109.299h.851a.103.103 0 0 0 .103-.103v-.428a.103.103 0 0 0-.103-.103h-.851a.103.103 0 0 0-.103.103v.428c0 .057.046.103.103.103zM99.038 109.299h.85a.103.103 0 0 0 .103-.103v-.428a.103.103 0 0 0-.103-.103h-.85a.103.103 0 0 0-.103.103v.428c0 .057.046.103.103.103zM96.925 109.299h.85a.103.103 0 0 0 .103-.103v-.428a.103.103 0 0 0-.103-.103h-.85a.103.103 0 0 0-.103.103v.428c0 .057.046.103.103.103zM94.811 109.299h.85a.103.103 0 0 0 .104-.103v-.428a.103.103 0 0 0-.103-.103h-.85a.103.103 0 0 0-.104.103v.428c0 .057.046.103.103.103zM92.698 109.299h.85a.103.103 0 0 0 .104-.103v-.428a.103.103 0 0 0-.104-.103h-.85a.103.103 0 0 0-.103.103v.428c0 .057.046.103.103.103zM90.585 109.299h.85a.103.103 0 0 0 .103-.103v-.428a.103.103 0 0 0-.103-.103h-.85a.103.103 0 0 0-.103.103v.428c0 .057.046.103.103.103zM88.472 109.299h.85a.103.103 0 0 0 .103-.103v-.428a.103.103 0 0 0-.103-.103h-.85a.103.103 0 0 0-.103.103v.428c0 .057.046.103.103.103zM102.63 110.567h8.247a.103.103 0 0 0 .103-.103v-.428a.103.103 0 0 0-.103-.103h-8.247a.103.103 0 0 0-.103.103v.428c0 .057.047.103.103.103zM79.234 58.873h53.957a.213.213 0 0 0 .209-.215.213.213 0 0 0-.209-.215H79.234a.215.215 0 0 0 0 .43zM129.518 57.348c.694 0 1.257-.575 1.257-1.285s-.563-1.286-1.257-1.286c-.695 0-1.258.576-1.258 1.286 0 .71.563 1.285 1.258 1.285zM125.174 57.348c.694 0 1.257-.575 1.257-1.285s-.563-1.286-1.257-1.286c-.695 0-1.258.576-1.258 1.286 0 .71.563 1.285 1.258 1.285zM120.83 57.348c.694 0 1.257-.575 1.257-1.285s-.563-1.286-1.257-1.286c-.695 0-1.258.576-1.258 1.286 0 .71.563 1.285 1.258 1.285zM81.62 55.33a.23.23 0 0 0 .23.232h3.086a.233.233 0 0 0 0-.467H81.85a.233.233 0 0 0-.23.235zM81.62 56.207a.23.23 0 0 0 .23.232h3.086a.234.234 0 0 0 0-.467H81.85a.233.233 0 0 0-.23.235zM81.62 57.082a.233.233 0 0 0 .23.234h3.086a.233.233 0 0 0 0-.467H81.85a.23.23 0 0 0-.23.233z" fill="#2B335A"/>
        <path d="M82.573 63.86h-1.108a.609.609 0 0 0 0 1.217h1.108a.609.609 0 1 0 0-1.218zM95.253 63.86h-1.109a.609.609 0 0 0 0 1.217h1.109a.609.609 0 0 0 0-1.218zM98.845 63.86h-1.108a.609.609 0 0 0 0 1.217h1.108a.609.609 0 1 0 0-1.218zM91.804 63.758h-6.89a.609.609 0 1 0 0 1.217h6.89a.609.609 0 0 0 0-1.217zM108.71 63.758h-6.89a.608.608 0 1 0 0 1.217h6.89a.609.609 0 0 0 0-1.217zM85.955 66.607h-1.11a.609.609 0 1 0 0 1.217h1.11a.609.609 0 0 0 0-1.217zM98.634 66.607h-1.109a.608.608 0 1 0 0 1.217h1.11a.609.609 0 1 0 0-1.217zM102.227 66.607h-1.109a.609.609 0 1 0 0 1.217h1.109a.608.608 0 0 0 0-1.217zM95.185 66.505h-6.89a.609.609 0 1 0 0 1.218h6.89a.609.609 0 0 0 0-1.218zM112.091 66.505h-6.89a.61.61 0 0 0 0 1.218h6.89a.609.609 0 0 0 0-1.218zM89.336 69.354h-1.109a.609.609 0 0 0 0 1.217h1.109a.609.609 0 0 0 0-1.217zM102.015 69.354h-1.108a.608.608 0 1 0 0 1.217h1.108a.609.609 0 0 0 0-1.217zM105.608 69.354h-1.109a.608.608 0 0 0 0 1.217h1.109a.608.608 0 0 0 0-1.217zM98.566 69.252h-6.89a.609.609 0 0 0 0 1.218h6.89a.609.609 0 0 0 0-1.218zM115.472 69.252h-6.89a.609.609 0 0 0 0 1.218h6.89a.608.608 0 1 0 0-1.218zM92.717 72.101h-1.109a.609.609 0 1 0 0 1.217h1.109a.609.609 0 0 0 0-1.217zM105.396 72.101h-1.108a.609.609 0 0 0 0 1.217h1.108a.608.608 0 1 0 0-1.217zM108.989 72.101h-1.109a.608.608 0 0 0 0 1.217h1.109a.609.609 0 0 0 0-1.217zM101.948 72h-6.89a.609.609 0 1 0 0 1.217h6.89a.608.608 0 0 0 0-1.217zM95.253 83.025h-1.109a.609.609 0 0 0 0 1.218h1.109a.609.609 0 1 0 0-1.218zM98.845 83.025h-1.108a.609.609 0 0 0 0 1.218h1.108a.608.608 0 1 0 0-1.218zM108.71 83.127h-6.89a.608.608 0 1 0 0 1.217h6.89a.609.609 0 1 0 0-1.217zM82.573 83.025h-1.108a.609.609 0 0 0 0 1.218h1.108a.608.608 0 1 0 0-1.218zM91.804 83.127h-6.89a.609.609 0 0 0 0 1.217h6.89a.609.609 0 1 0 0-1.217zM85.955 80.278h-1.11a.609.609 0 0 0 0 1.217h1.11a.609.609 0 0 0 0-1.217zM98.634 80.278h-1.109a.609.609 0 1 0 0 1.217h1.11a.609.609 0 1 0 0-1.217zM102.227 80.278h-1.109a.609.609 0 0 0 0 1.217h1.109a.608.608 0 0 0 0-1.217zM95.185 80.38h-6.89a.609.609 0 1 0 0 1.217h6.89a.609.609 0 0 0 0-1.217zM89.336 77.53h-1.109a.609.609 0 0 0 0 1.218h1.109a.609.609 0 0 0 0-1.217zM102.015 77.53h-1.108a.608.608 0 1 0 0 1.218h1.108a.609.609 0 0 0 0-1.217zM105.608 77.53h-1.109a.608.608 0 0 0 0 1.218h1.109a.608.608 0 0 0 0-1.217zM98.566 77.632h-6.89a.609.609 0 0 0 0 1.218h6.89a.609.609 0 0 0 0-1.218zM92.717 74.784h-1.109a.609.609 0 1 0 0 1.217h1.109a.609.609 0 0 0 0-1.217zM105.396 74.784h-1.108a.609.609 0 0 0 0 1.217h1.108a.608.608 0 1 0 0-1.217zM108.989 74.784h-1.109a.608.608 0 0 0 0 1.217h1.109a.609.609 0 0 0 0-1.217zM101.948 74.885h-6.89a.609.609 0 0 0 0 1.217h6.89a.608.608 0 0 0 0-1.217z" fill="#D9DBE1"/>
        <path d="M87.945 122.483c-.046.023-.093.047-.14.068a61.774 61.774 0 0 1-3.597 1.642 60.402 60.402 0 0 1-7.39 2.542c-.422-2.635-.832-8.85-1.225-13.421-.074-.86-.148-1.661-.222-2.369-.07-.93-.203-1.853-.399-2.764a.898.898 0 0 0-.082-.205c.04.365.082 1.456.122 2.969.021.708.04 1.509.061 2.369.1 4.399.203 10.386.307 13.795a51.612 51.612 0 0 1-1.448.338c-.228.051-.456.101-.684.148a61.344 61.344 0 0 1-12.563 1.295c-.265 0-.527-.002-.791-.004-.08 0-.16-.002-.243-.004a61.02 61.02 0 0 1-14.632-2.02l.184-13.548.031-2.369.013-.898a3.2 3.2 0 0 0-.186.898c-.074.577-.15 1.394-.226 2.369-.29 3.753-.588 9.807-.896 13.252-3.654-1.04-6.325-1.989-9.664-3.658-.129-.064-.26-.129-.389-.195.023-.162.049-.325.072-.492.378-2.629-.068-6.05.35-8.907.32-2.205.65-4.322.981-6.118.402-2.162.81-3.861 1.213-4.687.465-.954.93-1.892 1.38-2.79l.573-1.139.302-.594c.452-.885.88-1.703 1.27-2.428.275-.51.529-.97.761-1.374.273-.475.514-.868.712-1.166a11.688 11.688 0 0 1 6.188-4.694l.063-.016.061.025.07.032 4.028-1.473 1.798-4.33 9.237-.569 1.492 1.135.763.581.814.62 1.496 1.138.425.131.632.195 4.321 1.327.045-.02.063.018c2.309.739 4.33 2.18 5.782 4.12.144.186.277.379.406.573.35.52.824 1.342 1.382 2.373.23.425.473.886.729 1.374.154.294 1.485 4.448 2.78 8.692 1.212 3.973 2.39 8.024 2.545 9.064l.085.579c.175 1.202.348 2.413.515 3.594.248 1.752.489 3.443.719 4.954l.006.042z" fill="#2B335A"/>
        <path opacity=".2" d="m78.156 107.186-1.795-6.93-1.586 5.98 3.381.95z" fill="#000"/>
        <path d="M17.345 107.106a1.359 1.359 0 0 0 1.307.915l5.598-.144a1.343 1.343 0 0 0 1.264-.984l.792-8.472a2.041 2.041 0 1 0 .793-3.898c-.123 0-.246.012-.366.038a1.384 1.384 0 0 0-1.03-.444l-8.612.222a1.235 1.235 0 0 0-.213.027 1.345 1.345 0 0 0-1.03 1.746l1.497 10.994zm9.124-9.26.563-2.019c.065-.233.066-.479.005-.713.027 0 .051-.013.079-.013a1.46 1.46 0 0 1 .068 2.92 1.374 1.374 0 0 1-.715-.175z" fill="#2F2E41"/>
        <path d="M16.878 94.366c.184 1.049 2.247 1.786 4.727 1.658 2.28-.105 4.146-.906 4.487-1.855a1.273 1.273 0 0 0-.39-.052l-8.611.222a1.235 1.235 0 0 0-.213.027z" fill="#2B335A"/>
        <path d="M22.06 102.451a.097.097 0 0 0 .031-.015l1.216-.795a.113.113 0 0 0 .035-.038.107.107 0 0 0 0-.101.112.112 0 0 0-.035-.038l-1.263-.828a.105.105 0 0 0-.039-.015.105.105 0 0 0-.078.192l1.13.739-1.081.708a.103.103 0 0 0-.044.058.107.107 0 0 0 .005.073.106.106 0 0 0 .123.06zM20.14 102.539a.107.107 0 0 0 .069-.149.102.102 0 0 0-.043-.045l-1.12-.643 1.082-.804a.11.11 0 0 0 .041-.069.109.109 0 0 0-.02-.079.104.104 0 0 0-.03-.027.092.092 0 0 0-.038-.014.095.095 0 0 0-.041.002.103.103 0 0 0-.038.017l-1.212.901a.11.11 0 0 0-.033.04.108.108 0 0 0 .006.101c.01.015.022.027.037.036l1.26.722a.103.103 0 0 0 .08.011zM21.939 103.148a.14.14 0 0 0 .029-.012.122.122 0 0 0 .03-.028.106.106 0 0 0 .005-.118l-1.724-2.833a.103.103 0 0 0-.065-.047.106.106 0 0 0-.127.077.106.106 0 0 0 .012.08l1.723 2.833a.106.106 0 0 0 .116.048z" fill="#6C63FF"/>
        <path d="M179.922 122.713c-.129.065-.26.131-.389.194-3.339 1.67-6.01 2.619-9.664 3.658-.308-3.444-.606-9.499-.896-13.252a52.047 52.047 0 0 0-.226-2.369 3.207 3.207 0 0 0-.186-.898l.013.898.031 2.369.184 13.548a60.965 60.965 0 0 1-13.913 2.006c-.246.006-.487.01-.719.014a6.657 6.657 0 0 1-.243.005c-.264.002-.526.004-.79.004a61.11 61.11 0 0 1-14.696-1.782c.104-3.408.207-9.395.306-13.795.022-.86.041-1.661.062-2.369.04-1.513.082-2.603.122-2.969a.954.954 0 0 0-.082.205 20.449 20.449 0 0 0-.399 2.764c-.074.708-.148 1.509-.222 2.369-.393 4.571-.803 10.786-1.226 13.421a60.227 60.227 0 0 1-7.39-2.542 59.745 59.745 0 0 1-3.736-1.709c.232-1.522.475-3.227.725-4.996.194-1.372.395-2.781.6-4.174.317-2.151 11.086-25.382 13.624-26.196l.063-.017.045.02 4.321-1.328.632-.194.425-.131 1.496-1.14.814-.618.762-.582 1.492-1.134 9.237.568 1.799 4.33 4.028 1.473.069-.032.062-.025.063.017c2.537.813 4.72 2.47 6.188 4.693.198.298.439.692.712 1.167.232.404.486.864.761 1.374a128.107 128.107 0 0 1 1.572 3.021 328.384 328.384 0 0 1 1.953 3.929c.403.826.811 2.525 1.213 4.687.331 1.797.661 3.914.98 6.118.419 2.857-.027 6.279.351 8.907.023.167.049.33.072.493z" fill="#2B335A"/>
        <path d="M152.831 80.438c5.933 0 10.743-4.81 10.743-10.743 0-5.933-4.81-10.743-10.743-10.743-5.933 0-10.743 4.81-10.743 10.743 0 5.933 4.81 10.743 10.743 10.743z" fill="#FFB6B6"/>
        <path opacity=".2" d="m135.651 107.186 1.796-6.93 1.585 5.98-3.381.95z" fill="#000"/>
        <path d="M183.434 102.671c-.642 8.85.023 12.747-3.523 20.044a60.417 60.417 0 0 1-11.122 4.146 60.965 60.965 0 0 1-13.914 2.006c-.245.006-.486.01-.718.014a6.657 6.657 0 0 1-.243.005c-.264.002-.526.004-.79.004a61.11 61.11 0 0 1-16.135-2.156 60.227 60.227 0 0 1-7.39-2.542 59.482 59.482 0 0 1-3.736-1.709c-.277-.14-.554-.279-.827-.423-1.401-2.464-2.197-5.461-2.214-9.062.97-6.204 58.469-15.678 60.612-10.327z" fill="#1A1F36"/>
        <path opacity=".2" d="M183.432 104.186c.033-.547.07-1.113.113-1.703-2.143-5.35-59.643 4.123-60.613 10.328.003.569.027 1.121.068 1.66 2.349-6.124 56.975-15.129 60.432-10.285z" fill="#000"/>
        <path d="m121.392 103.088 4.719-2.36-3.933-10.619-1.036-5.355a4.05 4.05 0 1 0-7.138 3.299l3.848 4.81 3.54 10.225z" fill="#FFB6B6"/>
        <path d="m126.111 98.762-6.293 3.146 4.776 14.964a6.544 6.544 0 0 0 4.72 4.378 6.546 6.546 0 0 0 7.13-3l12.663-21.706a6.682 6.682 0 1 0-11.726-6.386l-7.73 16.47-3.54-7.866z" fill="#2B335A"/>
        <path d="M58.274 79.697c6.528 0 11.82-5.292 11.82-11.82 0-6.529-5.291-11.821-11.82-11.821-6.528 0-11.82 5.292-11.82 11.82 0 6.529 5.292 11.82 11.82 11.82z" fill="#A0616A"/>
        <path d="M46.596 59.73c.96-1.295 2.342-2.215 3.399-3.434.58-.669 1.061-1.427 1.713-2.025 1.21-1.113 2.904-1.568 4.548-1.625a11.476 11.476 0 0 1 9.368 4.446l2.577-1.51 1.018 2.679a1.561 1.561 0 0 1 2.38 1.954c.204-.632 1.141-.766 1.657-.348.517.417.655 1.16.57 1.818a3.66 3.66 0 0 1-2.76 3.027c-1.121.25-2.426-.012-3.323.705-.719.574-.936 1.62-1.67 2.177-.905.684-2.183.368-3.307.519-1.967.265-3.525 2.277-3.288 4.247-.178-.622-.366-1.261-.77-1.766-.403-.506-1.084-.847-1.703-.661-1.024.306-1.192 1.702-.944 2.742.659 2.758 3.153 7.216 3.153 7.216-3.239 1.277-7.098.07-9.597-2.355-2.5-2.425-3.801-5.858-4.368-9.294-.48-2.913-.413-6.14 1.347-8.511zM166.294 75.617c2.249-5.156.975-9.9-1.767-12.417v-.002c-1.077-2.416-2.51-4.28-4.15-4.717-.793-.51-1.562-1.107-2.416-1.412a3.142 3.142 0 0 0-2.468.112l-.435-.116c-.37-.944-.803-.963-1.285-.342-1.855-.864-3.527-1.251-5.015-1.251-4.852 0-7.722 4.108-8.482 9.074l4.055 1.08 1.41-2.246-.651 2.449 2.238.594c3.406 4.435-.67 14.668-5.837 20.36 1.23-.34 2.455-.627 3.675-.861l4.433-6.5-2.747 5.916c1.427-.209 3.246-.008 5.235.396.67-.875 1.022-2.042.676-3.082a11.81 11.81 0 0 1 1.158 3.494c4.197 1.025 9.922 1.55 13.007 1.94 2.493-.814 2.5-10.004-.634-12.469z" fill="#0B0D17"/>
        <path d="M167.757 58.08c1.647 3.688-1.676 5.274-4.721 5.23-2.751-.041-5.09-1.974-5.23-4.722a4.981 4.981 0 0 1 4.721-5.23c2.748-.14 4.108 2.209 5.23 4.721z" fill="#2F2E41"/>
        <path d="m91.341 118.121-2.713-4.526 9.022-6.845 3.751-3.96a4.052 4.052 0 0 1 5.71-.168 4.048 4.048 0 0 1-1.462 6.785l-5.83 1.99-8.478 6.724z" fill="#A0616A"/>
        <path d="m93.302 117.971-4.224 3.521-1.14.949-.132.11a61.721 61.721 0 0 1-3.597 1.642 60.4 60.4 0 0 1-11.678 3.548 6.55 6.55 0 0 1-2.033-4.742c0-.057 0-.117.002-.176l.679-17.398.3-7.711a6.682 6.682 0 0 1 7.299-6.475 9.7 9.7 0 0 1 .406.572c.35.52.824 1.342 1.382 2.373.23.425.473.886.729 1.374.154.294 1.485 4.448 2.78 8.692l-.57 4.431-1.031 7.988 4.23-2.776 2.98-1.957.353.589.92 1.535 1.775 2.958.57.953z" fill="#2B335A"/>
        <path d="M90.986 112.999c-.002.359-.01.712-.03 1.061a20.548 20.548 0 0 1-.333 2.865 16.729 16.729 0 0 1-1.545 4.567c-.097.192-.2.382-.306.568a45.131 45.131 0 0 1-.966.491 60.402 60.402 0 0 1-15.275 5.19 61.346 61.346 0 0 1-11.847 1.149c-.264 0-.526-.002-.79-.004-.08 0-.16-.002-.243-.004a61.02 61.02 0 0 1-15.712-2.316 60.433 60.433 0 0 1-10.042-3.851c-3.546-7.297-2.88-11.193-3.523-20.044 1.319-3.294 23.628-.968 40.805 2.754 4.662 1.01 8.943 2.124 12.326 3.256 3.496 1.169 6.03 2.357 7.023 3.472.232.231.391.525.458.846z" fill="#1A1F36"/>
        <path opacity=".2" d="M30.375 104.186c-.033-.547-.07-1.113-.112-1.703 2.143-5.35 59.642 4.123 60.612 10.328a23.359 23.359 0 0 1-.068 1.66c-2.349-6.124-56.974-15.129-60.432-10.285z" fill="#000"/>
    </g>
    <defs>
        <clipPath id="a0erehua0a">
            <path fill="#fff" transform="translate(14 7.11)" d="M0 0h186v121.781H0z"/>
        </clipPath>
    </defs>
</svg>
