<svg width="215" height="136" viewBox="0 0 215 136" fill="none" xmlns="http://www.w3.org/2000/svg">
    <g clip-path="url(#4g7odl87na)">
        <path d="M42.685 32.96h-1.331v-1.329h-.533v1.33h-1.33v.532h1.33v1.33h.533v-1.33h1.33v-.532zM34.032 24.85a1.865 1.865 0 0 1-1.864-1.862c0-1.026.836-1.862 1.864-1.862 1.027 0 1.863.836 1.863 1.862a1.866 1.866 0 0 1-1.863 1.862zm0-3.192c-.735 0-1.331.596-1.331 1.33a1.331 1.331 0 0 0 2.662 0c0-.734-.597-1.33-1.331-1.33zM189.354 87.614a1.866 1.866 0 0 1-1.864-1.862c0-1.027.837-1.862 1.864-1.862 1.027 0 1.864.835 1.864 1.862a1.866 1.866 0 0 1-1.864 1.862zm0-3.192c-.734 0-1.331.596-1.331 1.33a1.332 1.332 0 0 0 2.662 0c0-.734-.597-1.33-1.331-1.33zM128.928 90.54a1.866 1.866 0 0 1-1.864-1.862c0-1.026.837-1.862 1.864-1.862 1.027 0 1.864.836 1.864 1.862a1.866 1.866 0 0 1-1.864 1.862zm0-3.192c-.734 0-1.331.596-1.331 1.33a1.332 1.332 0 0 0 2.662 0c0-.734-.597-1.33-1.331-1.33zM194.867 76.589l-.48-1.24 1.242-.48-.193-.496-1.241.479-.479-1.24-.497.192.48 1.24-1.242.479.192.497 1.243-.48.479 1.24.496-.191zM185.234 17.533l-.531-.025c0-.028.155-2.81 3.065-2.685 2.406.1 2.777-2.037 2.79-2.128l.526.083c-.004.026-.44 2.581-3.148 2.581-.063 0-.127-.001-.191-.004-2.366-.1-2.506 2.085-2.511 2.18v-.002zM19.053 73.55l-.526-.088c.004-.027.493-2.772 3.364-2.303 2.383.388 2.998-1.693 3.023-1.782l.512.145c-.007.024-.656 2.217-2.963 2.217-.206 0-.425-.018-.658-.056-2.342-.381-2.737 1.774-2.752 1.866z" fill="#9594A3"/>
        <path d="M159.607 4.77h-95.43a5.92 5.92 0 0 0-5.921 5.916v58.51a5.92 5.92 0 0 0 5.922 5.917h95.429a5.92 5.92 0 0 0 5.922-5.917v-58.51a5.92 5.92 0 0 0-5.922-5.916z" fill="#fff"/>
        <path d="M159.607 75.38H64.179c-3.412 0-6.189-2.774-6.189-6.184V10.688c0-3.41 2.777-6.184 6.19-6.184h95.427c3.413 0 6.189 2.774 6.189 6.184v58.508c0 3.41-2.776 6.184-6.189 6.184zM64.179 5.036a5.661 5.661 0 0 0-5.656 5.652v58.508a5.661 5.661 0 0 0 5.656 5.652h95.428a5.661 5.661 0 0 0 5.656-5.652V10.688a5.66 5.66 0 0 0-5.656-5.652H64.179z" fill="#2B335A"/>
        <path d="M83.007 32.825V13.229l-10.141.573s-1.34 15.389-3.061 19.021h13.202v.002z" fill="#D9DBE1"/>
        <path d="M69.757 13.181h13.202s.478 9.94-2.87 15.676l-15.978 2.58s3.636-1.337 5.644-18.256h.002z" fill="#2EC5CE"/>
        <path d="M142.13 50.175V30.58l-10.141.573s-1.339 15.39-3.061 19.022h13.202z" fill="#D9DBE1"/>
        <path d="M128.88 30.531h13.202s.478 9.94-2.87 15.676l-15.978 2.58s3.636-1.337 5.644-18.256h.002z" fill="#2EC5CE"/>
        <path d="M119.77 31.498V18.366l-6.796.384s-.898 10.314-2.052 12.748h8.848z" fill="#D9DBE1"/>
        <path d="M110.889 18.333h8.848s.32 6.663-1.924 10.507l-10.708 1.73s2.436-.898 3.784-12.236z" fill="#2EC5CE"/>
        <path d="M97.053 57.628h-9.85v.533h9.85v-.533zM106.502 60.553H87.203v.533h19.299v-.533zM106.568 63.478H87.269v.533h19.299v-.533zM106.568 66.405H87.269v.532h19.299v-.532zM126.066 57.628h-9.849v.533h9.849v-.533zM135.515 60.553h-19.298v.533h19.298v-.533zM135.584 63.478h-19.299v.533h19.299v-.533zM135.584 66.405h-19.299v.532h19.299v-.532z" fill="#D9DBE1"/>
        <path d="m62.232 123.321-2.528 4.971-4.655-.664 1.996-4.307h5.187z" fill="#FFB8B8"/>
        <path d="m59.855 128.582-5.197-.742 2.218-4.784h5.791l-2.812 5.527v-.001zm-4.413-1.168 4.111.587 2.247-4.415h-4.583l-1.774 3.828h-.002z" fill="#FFB8B8"/>
        <path d="M55.048 126.665s2.819 2.137 5.188 0l7.025 3.658c.31.16.195.628-.154.628H54.695a.597.597 0 0 1-.578-.748l.931-3.538z" fill="#2B335A"/>
        <path d="m37.877 123.321-2.529 4.971-4.655-.664 1.744-4.243 5.44-.064z" fill="#FFB8B8"/>
        <path d="m35.499 128.582-5.183-.741 1.942-4.722 6.054-.07-2.815 5.533h.002zm-4.43-1.171 4.127.589 2.244-4.41-4.824.056-1.548 3.764v.001z" fill="#FFB8B8"/>
        <path d="M30.692 126.665s2.82 2.137 5.188 0l7.026 3.658c.309.16.194.628-.154.628H30.34a.597.597 0 0 1-.578-.748l.93-3.538z" fill="#2B335A"/>
        <path d="M99.915 42.078V29.7l-6.406.362s-.846 9.72-1.933 12.015h8.339z" fill="#D9DBE1"/>
        <path d="M91.546 29.671h8.338s.303 6.279-1.813 9.9l-10.09 1.631s2.295-.845 3.565-11.53z" fill="#2EC5CE"/>
        <path d="m73.55 50.481 8.609-1.66 5.78-11.49.245-4.058 1.608-4.236s.673-.568 1 .341l.39-1.142s1.293-.515 1.144.391c0 0 1.154-1.041 1.335.297l-.195.572s1.056-.756 1.286.44l-.503 3.335-.684 2s1.831-2.087 3.31-1.741l-2.317 3.036-2.544 1.842-5.93 16.147-11.78 3.169-.755-7.244.001.001z" fill="#FFB8B8"/>
        <path d="m74.075 58.063-.813-7.797 8.72-1.68 5.697-11.324.244-4.045 1.647-4.338.053-.045c.04-.034.4-.324.808-.214.106.029.203.08.289.154l.253-.74.115-.045c.145-.059.896-.332 1.295-.011a.59.59 0 0 1 .149.18c.24-.135.56-.248.851-.142.299.109.482.402.545.87l.008.062-.022.066a.92.92 0 0 1 .53.035c.296.119.49.399.573.833l.008.045-.52 3.429-.33.965c.712-.595 1.786-1.28 2.764-1.051l.4.094-2.588 3.394-2.51 1.817-5.949 16.2-12.216 3.286-.001.002zm-.233-7.367.698 6.69 11.346-3.052 5.91-16.093 2.579-1.868 1.986-2.605c-1.008.12-2.175 1.205-2.592 1.678l-.886 1.008 1.11-3.245.49-3.267c-.035-.16-.104-.343-.239-.396-.207-.083-.543.11-.621.166l-.676.483.443-1.294c-.037-.213-.105-.35-.192-.381-.177-.066-.538.168-.692.307l-.566.51.124-.75c.017-.097.01-.17-.017-.191-.089-.071-.393-.033-.653.05l-.594 1.738-.257-.713c-.068-.19-.157-.309-.25-.333-.094-.026-.21.028-.28.072l-1.566 4.123-.245 4.072-.024.049-5.84 11.606-8.497 1.639.001-.003z" fill="#FFB8B8"/>
        <path d="m55.958 80.435 9.311 19.77-10.22 24.909h8.127l12.467-24.892a7.771 7.771 0 0 0 .139-6.393l-8.4-19.73-11.425 6.337zM54.594 57.368c-.293-.068-7.073-5.112-3.16-10.374 0 0 3.31-3.158 3.912-6.015.602-2.857 2.559-7.367 7.374-7.216 0 0 6.02.15 4.665 6.616 0 0-1.655 3.158-.903 5.112.752 1.955 1.956 4.21 1.053 6.316-.903 2.105-3.31 7.818-12.942 5.563l.001-.002z" fill="#222847"/>
        <path d="m58.321 51.717 1.743-7.756s-3.215-2.007-.938-3.346c0 0 .804 0 1.206.534 0 0-.535-3.078 1.608-3.212 2.142-.133 3.081-1.473 3.081-1.473s4.824 7.63 2.278 8.969c-2.546 1.338-2.68.67-2.68.67l.67 5.88-6.966-.267-.002.001z" fill="#FFB8B8"/>
        <path d="m65.588 52.263-7.596-.291 1.773-7.89c-.458-.316-1.735-1.294-1.72-2.345.007-.532.326-.986.947-1.351l.063-.037h.072c.026 0 .46.004.883.211-.023-.622.042-1.567.549-2.208.328-.415.787-.643 1.365-.68 1.993-.124 2.872-1.348 2.88-1.36l.229-.328.213.337c.149.236 3.645 5.806 2.973 8.309-.128.477-.396.827-.797 1.038-1.154.607-1.972.895-2.486.866l.652 5.729zm-6.936-.8 6.337.245-.635-5.574.526-.082c-.01-.054-.033-.07-.034-.072.003.003.383.242 2.33-.78.267-.14.441-.372.53-.705.527-1.97-2.002-6.38-2.722-7.58-.427.43-1.398 1.188-3.027 1.29-.427.028-.747.184-.98.48-.651.824-.385 2.407-.383 2.422l.19 1.092-.665-.886c-.255-.34-.745-.41-.925-.425-.412.257-.613.54-.617.859-.011.794 1.171 1.707 1.628 1.991l.159.1-1.712 7.627v-.001z" fill="#FFB8B8"/>
        <path d="m65.312 76.976-8.294 23.901a8.16 8.16 0 0 1-1.1 2.113L39.04 125.113h-8.467l14.66-27.776 4.38-17.505 15.698-2.856z" fill="#222847"/>
        <path d="M65.32 48.746s-2.266 4.678-6.948 0l-4.72.744a4.839 4.839 0 0 0-3.201 1.992l-6.549 11.106 6.37 4.945-3.302 15.995 23.665-6.287s-.673-4.56.045-8.427c.452-2.434 2.873-9.733 2.873-9.733l7.402-1.359-1.662-8.45-4.985.602-8.987-1.132-.002.004z" fill="#ECEDF0"/>
        <path d="m46.621 83.897 3.356-16.254-6.422-4.987 6.68-11.327a5.129 5.129 0 0 1 3.376-2.101l4.856-.767.095.096c1.51 1.509 2.905 2.17 4.139 1.964 1.568-.263 2.373-1.877 2.381-1.894l.083-.171.19.023 8.954 1.128 5.197-.629 1.762 8.958-7.51 1.379c-.347 1.052-2.408 7.353-2.815 9.548-.703 3.78-.05 8.293-.044 8.34l.034.235-24.31 6.459h-.002zM44.25 62.523l6.315 4.904-3.248 15.734 23.022-6.116c-.124-.99-.548-4.913.078-8.279.45-2.422 2.783-9.469 2.882-9.767l.05-.15 7.29-1.338-1.56-7.943-4.772.578-8.838-1.113c-.273.47-1.146 1.756-2.676 2.013-1.388.234-2.906-.444-4.51-2.017l-4.589.724a4.591 4.591 0 0 0-3.017 1.873L44.25 62.522h-.002z" fill="#ECEDF0"/>
        <path d="M75.825 76.178s-1.007-4.82-1.007-6.428V61.77l-7.457.422S65.31 72.854 65.71 75.647l10.115.532v-.001z" fill="#2B335A"/>
        <path d="M65.075 61.733h9.708s.351 7.311-2.11 11.528l-11.75 1.897s2.674-.984 4.152-13.425z" fill="#2EC5CE"/>
        <path d="M44.853 61.346c-.273 0-2.424 4.622-4.095 8.305-.801 1.765.832 3.66 2.698 3.13l19.521-5.55 4.682-1.207 1.662.603s.906-.151.604-1.057c0 0 .755-.754.151-1.51 0 0 .604-.904-.151-1.509 0 0 .302-1.056-.151-1.358l-1.963-.603-3.777 1.207-2.265 1.81s-12.536 2.415-12.536 2.264c0-.15 1.607-2.903 1.607-2.903l-5.987-1.624v.002z" fill="#FFB8B8"/>
        <path d="M42.821 73.137a2.52 2.52 0 0 1-1.915-.885 2.515 2.515 0 0 1-.39-2.709c3.84-8.462 4.082-8.462 4.338-8.462h.035l6.357 1.725-.176.3a91.212 91.212 0 0 0-1.398 2.462c1.661-.247 7.773-1.395 11.982-2.205l2.252-1.801 3.902-1.248 2.08.64.033.021c.486.324.377 1.131.3 1.49.505.512.37 1.182.17 1.585.378.617.103 1.247-.17 1.591.065.287.033.542-.097.758-.239.396-.707.485-.76.493l-.069.011-1.65-.599-4.601 1.187-19.516 5.548c-.235.067-.474.1-.708.1l.001-.002zm2.105-11.495c-.24.331-1.067 1.821-3.925 8.12a1.99 1.99 0 0 0 .308 2.143 1.99 1.99 0 0 0 2.075.62l19.52-5.549 4.769-1.229 1.663.605c.098-.03.256-.102.333-.23.068-.115.068-.271.004-.466l-.052-.156.116-.116c.058-.06.57-.609.13-1.154l-.12-.153.107-.162c.046-.072.447-.72-.096-1.154l-.138-.11.049-.17c.099-.35.143-.89-.02-1.046l-1.837-.565-3.65 1.167-2.28 1.821-.063.012c-.032.006-3.134.603-6.215 1.18-6.352 1.185-6.404 1.142-6.54 1.03l-.097-.08v-.127c0-.08 0-.213 1.467-2.738l-5.51-1.494.002.001z" fill="#FFB8B8"/>
        <path d="m167.209 123.587.399 4.972h5.188l-.399-4.972h-5.188z" fill="#D18C76"/>
        <path d="M173.085 128.824h-5.722l-.441-5.503h5.722l.441 5.503zm-5.23-.532h4.654l-.357-4.439h-4.654l.357 4.439z" fill="#D18C76"/>
        <path d="M172.797 126.932s-2.818 2.137-5.187 0l-7.026 3.657c-.309.161-.195.629.154.629h12.412c.391 0 .677-.37.578-.748l-.931-3.538z" fill="#2B335A"/>
        <path d="m153.503 123.587-.532 4.972h5.188l.532-4.972h-5.188z" fill="#D18C76"/>
        <path d="M158.397 128.824h-5.723l.59-5.503h5.723l-.59 5.503zm-5.131-.532h4.653l.475-4.439h-4.652l-.476 4.439z" fill="#D18C76"/>
        <path d="M158.289 126.932s-2.818 2.137-5.187 0l-7.026 3.657c-.309.161-.194.629.154.629h12.412c.391 0 .677-.37.578-.748l-.931-3.538zM157.013 62.215l-4.677 22.016a9.86 9.86 0 0 0-.211 1.729l-1.301 38.353h8.784l3.195-33.91 8.235-26.293-14.023-1.898-.002.003z" fill="#2B335A"/>
        <path d="M159.849 124.581h-9.302l1.31-38.628c.021-.595.093-1.193.217-1.775l4.729-22.258 14.58 1.972-8.321 26.568-3.215 34.121h.002zm-8.752-.532h8.267l3.174-33.696.008-.027 8.141-25.993-13.466-1.821-4.627 21.775a9.73 9.73 0 0 0-.205 1.682l-1.292 38.079v.001z" fill="#2B335A"/>
        <path d="m174.243 124.249-2.129-36.435 3.129-20.678-13.111-6.981-1.425 24.594c-.026.446-.009.895.051 1.339l5.101 38.161h8.386-.002z" fill="#2B335A"/>
        <path d="M174.527 124.515h-8.9l-.031-.232-5.102-38.161a7.338 7.338 0 0 1-.052-1.39l1.45-25.008 13.643 7.266-.028.187-3.124 20.65 2.144 36.689v-.001zm-8.434-.532h7.87l-2.114-36.181 3.105-20.52-12.577-6.696-1.401 24.179c-.024.429-.008.861.048 1.289l5.07 37.931-.001-.002zM169.354 30.813s7.279-.893 4.087-5.997c0 0 1.532-4.21-3.065-4.083 0 0-.639-3.19-3.066-1.15 0 0-3.448-1.658-3.83 1.276 0 0-.383 1.66 1.66 2.679l4.214 7.272v.003z" fill="#2B335A"/>
        <path d="m171.141 36.172-1.661-6.252s3.065-1.914.894-3.189c0 0-.766 0-1.15.51 0 0 .511-2.934-1.533-3.062-2.043-.128-2.937-1.403-2.937-1.403s-4.596 7.272-2.17 8.547c2.426 1.276 2.554.639 2.554.639l-.639 4.466 6.64-.255.002-.001z" fill="#D18C76"/>
        <path d="m164.192 36.705.617-4.319h-.038c-.495 0-1.257-.273-2.31-.827-.386-.203-.644-.538-.766-.998-.64-2.39 2.693-7.702 2.835-7.928l.214-.338.229.328c.034.048.855 1.174 2.735 1.29.555.035.995.255 1.309.654.48.607.547 1.496.526 2.09a2.15 2.15 0 0 1 .828-.193h.073l.062.037c.597.35.902.787.909 1.299.014 1.007-1.169 1.919-1.631 2.236l1.696 6.388-7.291.28.003.001zm.725-4.872s-.026.017-.038.076l.524.09-.592 4.15 5.988-.23-1.625-6.12.166-.105c.433-.27 1.557-1.14 1.546-1.888-.004-.3-.193-.565-.579-.805-.173.015-.629.081-.867.4l-.662.883.188-1.087c.002-.015.253-1.522-.363-2.3-.219-.278-.522-.427-.923-.451-1.543-.097-2.469-.807-2.882-1.223-.697 1.163-3.084 5.337-2.584 7.202.084.315.248.532.499.664 1.833.965 2.202.748 2.206.745l-.002-.002z" fill="#D18C76"/>
        <path d="m170.821 34.449 6.813 4.136a4.707 4.707 0 0 1 1.997 5.598l-1.325 4.266-1.867 1.867-.985 21.198-20.595-3.892 1.15-8.038.128-4.02-2.594-9.97 2.681-7.127a4.883 4.883 0 0 1 3.531-3.052l4.426-.965s2.555 3.7 6.64 0v-.001z" fill="#2B335A"/>
        <path d="M172.801 45.995c.128.128 5.444 2.513 5.444 2.513l-5.043 9.959c-1.224 2.538-4.913 2.316-5.824-.349l-8.114-23.732s.382-4.21 1.787-4.848c0 0 2.044 1.659 3.065 1.785 0 0 1.788-.254 2.681.383l-2.554 1.149s-1.027.358-1.471 1.901l8.111 15.833 1.915-4.593.003-.001z" fill="#D18C76"/>
        <path d="M170.374 60.515a3.84 3.84 0 0 1-.218-.007 3.36 3.36 0 0 1-3.03-2.305l-8.132-23.786.006-.056c.04-.446.44-4.384 1.942-5.066l.15-.068.128.104c.545.442 2.112 1.6 2.898 1.724.28-.035 1.932-.21 2.835.434l.377.27-2.997 1.346c-.034.012-.864.33-1.274 1.625l7.801 15.227 1.847-4.43.265.264c.307.182 3.445 1.606 5.382 2.474l.255.114-5.17 10.208a3.355 3.355 0 0 1-3.064 1.928h-.001zm-10.84-26.162 8.095 23.678a2.836 2.836 0 0 0 2.558 1.947 2.835 2.835 0 0 0 2.772-1.627l4.921-9.714c-3.231-1.451-4.464-2.03-4.947-2.27l-2.024 4.855-8.42-16.437.028-.1c.455-1.58 1.489-2.022 1.625-2.075l2.029-.912c-.847-.27-2.004-.112-2.018-.11l-.035.005-.036-.004c-.941-.117-2.544-1.327-3.057-1.73-.927.648-1.384 3.38-1.491 4.496v-.002z" fill="#D18C76"/>
        <path d="m159.009 45.358-4.937-.464-2.738 8.247a3.143 3.143 0 0 0 2.034 3.889l13.05 4.276s1.915 1.085 3.831.957c0 0 1.276.128 1.532-.957 0 0 1.15-.318.894-1.211 0 0 .383-.575.128-1.468l-2.554.383-2.299-.51-10.981-6.124 2.043-7.017-.003-.001z" fill="#D18C76"/>
        <path d="M169.925 62.54c-1.755 0-3.39-.865-3.617-.989l-13.026-4.268a3.39 3.39 0 0 1-2.205-4.218l2.808-8.456 5.469.515-2.073 7.122 10.764 6.003 2.212.491 2.735-.41.064.225c.223.777.013 1.35-.1 1.58.049.254.012.493-.111.712-.212.38-.625.583-.848.667-.3.895-1.251 1.06-1.754 1.017-.106.007-.212.01-.317.01l-.001-.002zm-15.669-17.362-2.671 8.046a2.859 2.859 0 0 0 1.864 3.552l13.074 4.285.023.014c.019.01 1.872 1.044 3.682.922h.044c.042.005 1.049.089 1.246-.752l.037-.154.151-.042c.137-.038.525-.199.673-.466a.518.518 0 0 0 .036-.416l-.034-.119.068-.102c.011-.016.249-.398.144-1.02l-2.359.355-2.386-.53-.034-.019-11.167-6.227 2.013-6.912-4.406-.413.002-.002z" fill="#D18C76"/>
        <path d="M203.885 130.951H10.981v.545h192.904v-.545z" fill="#D9DBE1"/>
    </g>
    <defs>
        <clipPath id="4g7odl87na">
            <path fill="#fff" transform="translate(11.5 -5.5)" d="M0 0h192v147H0z"/>
        </clipPath>
    </defs>
</svg>
