<svg width="183" height="136" viewBox="0 0 183 136" fill="none" xmlns="http://www.w3.org/2000/svg">
    <g clip-path="url(#km57dsz2ca)">
        <path d="M129.895 99.515H31.347a3.32 3.32 0 0 1-2.341-.97c-.62-.62-.97-1.46-.971-2.335V16.132c0-.876.35-1.716.971-2.336a3.32 3.32 0 0 1 2.34-.97h98.549a3.32 3.32 0 0 1 2.341.97c.621.62.97 1.46.971 2.336V96.21a3.305 3.305 0 0 1-.971 2.336 3.32 3.32 0 0 1-2.341.969z" fill="#D9DBE1"/>
        <path d="M33.581 15.18c-.846 0-1.656.336-2.255.933a3.184 3.184 0 0 0-.935 2.25V93.98c.001.844.338 1.653.936 2.25a3.197 3.197 0 0 0 2.254.934h67.453a29.882 29.882 0 0 0 21.074-8.725 29.758 29.758 0 0 0 8.743-21.031V18.363a3.184 3.184 0 0 0-.935-2.25 3.197 3.197 0 0 0-2.255-.934h-94.08z" fill="#fff"/>
        <path d="M111.924 49.188H94.055a1.408 1.408 0 0 1-1.405-1.403V38.91a1.403 1.403 0 0 1 1.405-1.403h17.869c.373 0 .73.148.994.411a1.4 1.4 0 0 1 .412.992c1.106 3.14 1.263 6.125 0 8.875 0 .372-.148.729-.412.991a1.41 1.41 0 0 1-.994.412z" fill="#D9DBE1"/>
        <path d="M109.808 48.33H94.626a1.197 1.197 0 0 1-1.194-1.192v-7.54a1.192 1.192 0 0 1 1.194-1.192h15.182a1.198 1.198 0 0 1 1.194 1.192c1.024 2.685 1.189 5.226 0 7.54a1.198 1.198 0 0 1-1.194 1.192z" fill="#fff"/>
        <path d="M108.989 53.837H96.951a1.336 1.336 0 0 1-1.337-1.33 1.33 1.33 0 0 1 1.333-1.336h12.042a1.337 1.337 0 0 1 1.333 1.333 1.33 1.33 0 0 1-1.333 1.333zM100.895 40.442a.526.526 0 0 0-.522.522v5.649a.517.517 0 0 0 .26.45.523.523 0 0 0 .521.003l4.996-2.844a.515.515 0 0 0 .264-.454.515.515 0 0 0-.266-.452l-4.996-2.806a.525.525 0 0 0-.257-.068z" fill="#D9DBE1"/>
        <path d="M173.792 124.692a2.236 2.236 0 0 0-2.383-.76l-.093.027-.839 3.269a30.098 30.098 0 0 1-.564-2.663l-.015-.089-.083.036a11.39 11.39 0 0 0-2.454 1.476 11.745 11.745 0 0 0-4.401 8.845l-.001.063-.002.039.111-.039 2.384-.851a7.12 7.12 0 0 0 5.738-2.135c.963-1.014 1.624-2.318 2.263-3.579.187-.368.378-.747.574-1.112a2.254 2.254 0 0 0-.235-2.527z" fill="#ECEDF0"/>
        <path d="M112.915 41.337a1.728 1.728 0 0 0 2.316 1.282l7.125 8.27.902-3.053-7.064-7.566a1.739 1.739 0 0 0-3.075-.147 1.73 1.73 0 0 0-.204 1.213z" fill="#FFB8B8"/>
        <path d="M141.629 132.919h-2.358l-1.122-9.076h3.48v9.076z" fill="#FFB6B6"/>
        <path d="m141.566 132.15-2.518-1.022-.072-.029-1.39 1.051c-.784 0-1.537.311-2.092.865a2.95 2.95 0 0 0-.867 2.088v.096h7.602v-3.049h-.663z" fill="#2B335A"/>
        <path d="M158.448 132.919h-2.357l-1.122-9.076h3.48l-.001 9.076z" fill="#FFB6B6"/>
        <path d="m158.385 132.15-2.517-1.022-.072-.029-1.39 1.051a2.96 2.96 0 0 0-2.959 2.953v.096h7.602v-3.049h-.664zM152.884 78.724s2.957 3.07 2.957 5.593c0 2.522-.739 5.986 0 6.744s1.663 1.68.554 2.787-1.663 1.66-.924 2.398c.74.738.37 13.649.37 13.649l3.881 17.339h-4.89l-6.199-17.339-1.664-14.386-5.38 13.833.594 18.04-5.112-.148-2.116-19.183s3.142-18.247 2.588-18.715c-.555-.468 0-1.412 0-1.412l1.478-6.987 13.863-2.213z" fill="#2B335A"/>
        <path d="M147.094 56.955s1.005-3.954-3.628-5.088c-4.632-1.133-17.875-2.59-17.875-2.59l-6.692-7.087-2.268 3.287 7.503 9.303 17.776 3.644 5.184-1.469z" fill="#6C63FF"/>
        <path d="M117.733 45.234c.208-.268.371-.569.482-.89l.96-2.353-.249-.01a2.499 2.499 0 0 0-1.98.473 2.477 2.477 0 0 0-.964 1.79 1.61 1.61 0 0 0 .157.878.95.95 0 0 0 .703.515 1.064 1.064 0 0 0 .891-.403zM138.078 81.88l-.555 4.01s1.109 1.19 1.664 1.04c.554-.148 2.587-1.013 2.587-1.013s2.403 1.31 3.697 1.46c1.294.148 8.132-.744 8.317-1.19.185-.445 2.333-2.19 2.333-2.19l-.854-5.089-17.189 2.971z" fill="#D9DBE1"/>
        <path d="M156.086 67.847s-.47 3.868-.1 4.224c.369.354-.37 2.595-1.109 4.07-.74 1.476.554 1.66.554 2.767s.555 5.165.555 5.165-5.73.369-6.654-.554c-.924-.922-2.403-.184-4.436 1.845s-6.449.369-7.373-.553c-.924-.923.719-4.243 1.274-4.887.554-.643-.535.102-1.089-1.938-.555-2.04.534-1.845 1.458-2.767.924-.922 0-2.582-.739-4.242-.739-1.66-.185-14.018-.185-16.97 0-2.95 4.066-3.32 4.066-3.32l1.61-2.02 1.183-1.484 2.318-.092.061-.002 2.242-.09 1.088 1.265 2.403 2.792 2.773.554c2.218.738 1.663 5.349 1.663 5.349l-1.563 10.888z" fill="#6C63FF"/>
        <path d="M147.305 46.29a4.747 4.747 0 0 0 4.751-4.74 4.747 4.747 0 0 0-4.751-4.742 4.747 4.747 0 0 0-4.752 4.741 4.747 4.747 0 0 0 4.752 4.742z" fill="#FFB6B6"/>
        <path d="M152.813 39.955c-1.306-.8-1.139-2.891-2.398-3.622a4.493 4.493 0 0 0-4.145-.173c-.887-.379-1.95-.077-2.659.607-.71.684-1.094 1.692-1.207 2.707a10.099 10.099 0 0 0 .218 3.042l.211-1.202 3.746-.817-.995.892a6.814 6.814 0 0 0 4.973-.777c1.631.73 1.335 2.368-.096 4.542.555.922 3.841-4.288 2.352-5.2z" fill="#2B335A"/>
        <path d="M150.811 48.264a.371.371 0 0 1-.034.024 2.488 2.488 0 0 1-1.295.35 2.296 2.296 0 0 1-1.651-.516c-.242-.229-1.205.254-1.837.522a2.795 2.795 0 0 1-2.076.024l1.183-1.485 1.95-.431h.486l2.185.247 1.089 1.265z" fill="#D9DBE1"/>
        <path d="m182.712 135.425-66.135.075a.3.3 0 0 1-.111-.021.284.284 0 0 1-.181-.267.296.296 0 0 1 .178-.268.3.3 0 0 1 .111-.022h.003l66.135-.075a.29.29 0 0 1 .288.289.287.287 0 0 1-.288.289z" fill="#CACACA"/>
        <path d="M103.524 38.312h-.487V3.572h19.143v.486h-18.656v34.254z" fill="#131627"/>
        <path d="M137.067.5h-12.898c-.839 0-1.644.333-2.237.925a3.156 3.156 0 0 0 2.237 5.39h12.898a3.17 3.17 0 0 0 2.238-.925A3.155 3.155 0 0 0 137.067.5zM102.998 41.49a2.905 2.905 0 0 0 2.908-2.9 2.905 2.905 0 0 0-2.908-2.902 2.904 2.904 0 0 0-2.907 2.901 2.904 2.904 0 0 0 2.907 2.902z" fill="#6C63FF"/>
        <path d="m67.966 49.49 12.754-2.944 3.66-.846c.458-.106.268-.809-.19-.703l-12.754 2.945-3.66.846c-.459.105-.269.809.19.703z" fill="#ECEDF0"/>
        <path d="m81.136 41.82 6.827 3.135c.233.08.452.198.646.349.189.184.052.361-.102.522-.46.428-.945.828-1.453 1.197l-2.91 2.36c-.364.296.15.813.513.52l2.533-2.056 1.267-1.028c.359-.29.796-.588.94-1.052.303-.974-.893-1.362-1.558-1.667l-2.973-1.365-3.359-1.541c-.423-.195-.798.43-.371.627z" fill="#ECEDF0"/>
        <path d="M175.356 65.68c-1.216-.822-2.694-1.128-4.138-1.232a44.506 44.506 0 0 0-4.929.006 78.189 78.189 0 0 0-10.171 1.073c-1.506.234-2.996.56-4.461.975a11.975 11.975 0 0 0-3.858 1.859 6.812 6.812 0 0 0-2.267 2.993 5.546 5.546 0 0 0-.219 3.51c.165.566.447 1.09.829 1.538.441.492.964.905 1.545 1.221 1.207.688 2.574 1.101 3.665 1.981.288.23.55.49.783.777.158.22.376.392.628.493a1.288 1.288 0 0 0 1.38-.354c.218-.299.401-.622.543-.964l.575-1.108c.039-.097.087-.19.144-.277.044-.052-.034 0-.019-.013.008-.007.025-.007.034-.013a.854.854 0 0 1 .149-.057 69.643 69.643 0 0 1 1.605-.588c1.983-.706 3.99-1.356 6.029-1.882a29.22 29.22 0 0 1 3.187-.666c1.391-.198 2.803-.175 4.2-.31 1.505-.145 3.057-.45 4.347-1.276a5.634 5.634 0 0 0 2.337-2.791 3.888 3.888 0 0 0 .195-1.728c-.167-1.32-1.032-2.435-2.113-3.166z" fill="#D9DBE1"/>
        <path d="M172.867 66.422c-1.1-.744-2.435-1.02-3.74-1.114a40.205 40.205 0 0 0-4.454.006 70.657 70.657 0 0 0-9.191.97 33.885 33.885 0 0 0-4.032.88 10.823 10.823 0 0 0-3.486 1.68 6.163 6.163 0 0 0-2.049 2.705 5.022 5.022 0 0 0-.198 3.173c.15.51.405.984.75 1.39.398.444.871.817 1.396 1.102 1.09.622 2.326.995 3.312 1.79.26.209.497.444.707.702.143.2.34.355.568.446a1.162 1.162 0 0 0 1.247-.32 4.22 4.22 0 0 0 .49-.87l.521-1.002c.034-.088.078-.172.13-.25.039-.047-.031 0-.018-.012.008-.007.023-.006.031-.012a.756.756 0 0 1 .134-.051c.482-.183.965-.36 1.451-.532 1.792-.638 3.606-1.225 5.448-1.701.948-.254 1.91-.455 2.88-.602 1.257-.178 2.533-.157 3.796-.28 1.36-.131 2.762-.406 3.928-1.153a5.093 5.093 0 0 0 2.112-2.522c.176-.5.236-1.034.176-1.562-.151-1.192-.932-2.2-1.909-2.86z" fill="#fff"/>
        <path d="m170.564 67.765-17.912 3.297a.396.396 0 1 1-.146-.778h.002l17.913-3.297a.395.395 0 0 1 .143.778zM171.006 70.152l-17.913 3.297a.391.391 0 0 1-.297-.062.392.392 0 0 1-.165-.408.408.408 0 0 1 .172-.25.401.401 0 0 1 .144-.057h.003l17.912-3.297a.395.395 0 0 1 .144.777zM155.622 75.452l-2.087.384a.396.396 0 0 1-.144-.778l2.087-.384a.396.396 0 0 1 .144.778z" fill="#D9DBE1"/>
        <path d="M154.11 85.377a1.682 1.682 0 1 0-.611-3.306 1.68 1.68 0 1 0 .611 3.306z" fill="#D1D3D4"/>
        <path d="M61.411 48.738h-15.3c-.71 0-1.39-.283-1.892-.784a2.674 2.674 0 0 1-.786-1.89V36.003c0-.709.283-1.388.785-1.89a2.685 2.685 0 0 1 1.894-.783h15.3c.71 0 1.39.283 1.893.784.502.501.785 1.18.785 1.89v10.062c0 .709-.283 1.388-.785 1.89a2.685 2.685 0 0 1-1.894.783z" fill="#D9DBE1"/>
        <path d="M59.73 48.196H46.415a2.327 2.327 0 0 1-2.331-2.327v-8.757c0-.617.246-1.208.683-1.645a2.337 2.337 0 0 1 1.648-.682H59.73a2.327 2.327 0 0 1 2.332 2.327v8.757a2.337 2.337 0 0 1-2.332 2.327z" fill="#fff"/>
        <path d="M63.566 57.804h-19.63a.459.459 0 0 1-.324-.78.458.458 0 0 1 .323-.134h19.631a.458.458 0 0 1 0 .914zM63.566 55.192h-19.63a.459.459 0 0 1-.324-.78.459.459 0 0 1 .323-.135h19.631a.459.459 0 0 1 .324.78.459.459 0 0 1-.324.135zM63.566 60.416h-19.63a.459.459 0 0 1-.325-.78.459.459 0 0 1 .324-.134h19.631a.459.459 0 0 1 .324.78.459.459 0 0 1-.324.134zM63.566 63.028h-19.63a.459.459 0 0 1-.325-.78.459.459 0 0 1 .324-.134h19.631a.459.459 0 0 1 .324.78.459.459 0 0 1-.324.134zM63.566 65.64h-19.63a.459.459 0 0 1-.325-.78.459.459 0 0 1 .324-.134h19.631a.459.459 0 0 1 .324.78.459.459 0 0 1-.324.134zM63.566 68.252h-19.63a.459.459 0 0 1-.324-.78.458.458 0 0 1 .323-.134h19.631a.458.458 0 0 1 0 .914z" fill="#D9DBE1"/>
        <path d="M52.77 62.262h.486v18.71H18.051v-.485H52.77V62.262z" fill="#131627"/>
        <path d="M3.164 84.045h12.898c.84 0 1.644-.333 2.237-.925a3.154 3.154 0 0 0 0-4.465 3.167 3.167 0 0 0-2.237-.924H3.164c-.84 0-1.644.332-2.237.924a3.154 3.154 0 0 0 0 4.465 3.167 3.167 0 0 0 2.237.925zM53.352 63.672a2.904 2.904 0 0 0 2.907-2.902 2.904 2.904 0 0 0-2.907-2.9 2.904 2.904 0 0 0-2.908 2.9 2.904 2.904 0 0 0 2.908 2.901z" fill="#6C63FF"/>
        <path d="M68.378 61.577c4.269.905 3.183 1.081 7.451 1.987l3.676.78c.46.097.585-.621.125-.718-4.268-.906-3.182-1.082-7.45-1.988l-3.676-.78c-.46-.097-.586.621-.126.719z" fill="#ECEDF0"/>
        <path d="m78.21 59.458 4.857 5.723c.177.17.325.37.438.589.092.246-.107.349-.314.43a15.41 15.41 0 0 1-1.825.47l-3.636.91c-.456.115-.209.8.243.688l3.168-.793 1.583-.397c.449-.112.97-.197 1.298-.556.687-.755-.232-1.611-.705-2.168l-2.115-2.492-2.39-2.815c-.301-.355-.906.054-.603.411z" fill="#ECEDF0"/>
        <path d="M93.612 84.403c3.734 0 6.76-3.02 6.76-6.747 0-3.726-3.026-6.746-6.76-6.746s-6.761 3.02-6.761 6.746c0 3.726 3.027 6.747 6.76 6.747z" fill="#D9DBE1"/>
        <path d="M92.953 83.543a5.134 5.134 0 0 0 5.14-5.13 5.134 5.134 0 0 0-5.14-5.128 5.134 5.134 0 0 0-5.14 5.129 5.134 5.134 0 0 0 5.14 5.129z" fill="#fff"/>
        <path d="M92.03 81.925a.753.753 0 0 1-.601-.3l-1.844-2.454a.748.748 0 0 1 .414-1.178.754.754 0 0 1 .788.277l1.207 1.606 3.1-4.64a.75.75 0 0 1 1.043-.208.75.75 0 0 1 .208 1.041l-3.689 5.522a.753.753 0 0 1-.605.334h-.02z" fill="#D9DBE1"/>
        <path d="M156.741 84.607a1.731 1.731 0 0 0 .828-1.202 1.71 1.71 0 0 0-.04-.746 1.703 1.703 0 0 0-.352-.66l5.429-9.466-3.185.173-4.784 9.173a1.732 1.732 0 0 0 .889 2.941c.417.08.85.004 1.215-.213z" fill="#FFB8B8"/>
        <path d="M150.626 51.425s5.75-1.844 7.228 2.583c1.479 4.426 6.45 16.416 6.45 16.416l-5.341 10.882-2.402-2.582 2.568-7.563-7.394-11.067-1.109-8.669z" fill="#6C63FF"/>
        <path d="M159.147 80.195a3.162 3.162 0 0 0-.65-.777l-1.835-1.762-.102.227a2.49 2.49 0 0 0-.293 2.01 2.489 2.489 0 0 0 1.307 1.557c.27.141.574.204.877.181a.966.966 0 0 0 .74-.461 1.06 1.06 0 0 0-.044-.975z" fill="#D9DBE1"/>
        <path d="M93.553 86.733h-.486v18.711h16.465v-.486H93.553V86.733z" fill="#131627"/>
        <path d="M127.583 105.359a3.155 3.155 0 0 0-.927-2.231 3.172 3.172 0 0 0-2.237-.926h-12.898c-.839 0-1.644.333-2.237.925a3.155 3.155 0 0 0 2.237 5.389h12.898a3.16 3.16 0 0 0 3.164-3.157zM92.97 88.143a2.904 2.904 0 0 0 2.908-2.901 2.904 2.904 0 0 0-2.907-2.901 2.904 2.904 0 0 0-2.907 2.9 2.904 2.904 0 0 0 2.907 2.902z" fill="#6C63FF"/>
    </g>
    <defs>
        <clipPath id="km57dsz2ca">
            <path fill="#fff" transform="translate(0 .5)" d="M0 0h183v135H0z"/>
        </clipPath>
    </defs>
</svg>
