<svg width="214" height="136" viewBox="0 0 214 136" fill="none" xmlns="http://www.w3.org/2000/svg">
    <g clip-path="url(#uok7shonxa)">
        <path d="M167.741 85.095H44.243a3.184 3.184 0 0 1-3.18-3.18V5.764a2.332 2.332 0 0 1 2.33-2.33H168.55a2.373 2.373 0 0 1 2.37 2.37v76.111a3.18 3.18 0 0 1-3.18 3.18z" fill="#ECEDF0"/>
        <path d="M163.236 80.592H48.139c-1.687 0-3.06-1.285-3.06-2.865V11.413c0-1.172 1.017-2.125 2.267-2.125h116.645c1.271 0 2.305.969 2.305 2.16v66.279c0 1.58-1.373 2.865-3.06 2.865z" fill="#fff"/>
        <path d="M170.877 5.582H41.018V3.963A3.194 3.194 0 0 1 44.21.773h123.475a3.193 3.193 0 0 1 3.192 3.19v1.619z" fill="#C9CCD4"/>
        <path d="M46.818 4.008a.825.825 0 1 0 0-1.65.825.825 0 0 0 0 1.65zM49.952 4.008a.825.825 0 1 0 0-1.65.825.825 0 0 0 0 1.65zM53.085 4.008a.825.825 0 1 0 0-1.65.825.825 0 0 0 0 1.65z" fill="#fff"/>
        <path d="M150.567 69.47H61.372a3.376 3.376 0 0 1-3.373-3.372V23.093a2.526 2.526 0 0 1 2.523-2.522h90.855a2.563 2.563 0 0 1 2.563 2.562v42.965a3.377 3.377 0 0 1-3.373 3.372zM60.522 20.956a2.14 2.14 0 0 0-2.137 2.137v43.005a2.99 2.99 0 0 0 2.987 2.987h89.195a2.99 2.99 0 0 0 2.987-2.987V23.133a2.177 2.177 0 0 0-2.177-2.177H60.522z" fill="#C9CCD4"/>
        <path d="M64.456 66.098h83.028a3.082 3.082 0 0 0 3.083-3.084v-35.95a3.084 3.084 0 0 0-3.083-3.084H64.455a3.083 3.083 0 0 0-3.083 3.084v35.95a3.083 3.083 0 0 0 3.084 3.084z" fill="#ECEDF0"/>
        <path d="M73.883 34.44a1.734 1.734 0 1 0 0-3.469 1.734 1.734 0 0 0 0 3.469zM73.883 40.992a1.734 1.734 0 1 0 0-3.469 1.734 1.734 0 0 0 0 3.47zM73.883 47.544a1.734 1.734 0 1 0 0-3.468 1.734 1.734 0 0 0 0 3.468zM73.883 54.097a1.734 1.734 0 1 0 0-3.47 1.734 1.734 0 0 0 0 3.47zM139.598 32.898H82.555a.193.193 0 1 1 0-.385h57.043a.192.192 0 0 1 .193.192.192.192 0 0 1-.193.193zM139.598 39.45H82.555a.192.192 0 1 1 0-.385h57.043c.051 0 .1.02.136.056a.19.19 0 0 1 .057.137c0 .05-.02.1-.057.136a.192.192 0 0 1-.136.056zM139.598 46.003H82.555a.193.193 0 1 1 0-.386h57.043a.192.192 0 0 1 .193.193.192.192 0 0 1-.193.193zM139.598 52.555H82.555a.193.193 0 1 1 0-.386h57.043a.192.192 0 0 1 .193.193.192.192 0 0 1-.193.193z" fill="#C9CCD4"/>
        <path d="M93.347 59.107h-5.589a.965.965 0 0 1-.963-.963V52.94a.965.965 0 0 1 .963-.963h5.589a.965.965 0 0 1 .964.963v5.204a.965.965 0 0 1-.964.963zM105.873 59.107h-5.588a.964.964 0 0 1-.964-.963V46.388a.965.965 0 0 1 .964-.963h5.588a.963.963 0 0 1 .964.963v11.756a.962.962 0 0 1-.964.963zM118.592 59.107h-5.588a.962.962 0 0 1-.964-.963V39.836a.962.962 0 0 1 .964-.964h5.588a.962.962 0 0 1 .964.964v18.308a.962.962 0 0 1-.964.963zM131.697 59.107h-5.589a.966.966 0 0 1-.963-.963V33.476a.966.966 0 0 1 .963-.963h5.589a.966.966 0 0 1 .963.963v24.668a.961.961 0 0 1-.963.963z" fill="#FE9A22"/>
        <path d="M139.598 59.107H82.555a.192.192 0 1 1 0-.385h57.043c.051 0 .1.02.136.056a.19.19 0 0 1 .057.136c0 .052-.02.1-.057.137a.192.192 0 0 1-.136.056z" fill="#323B68"/>
        <path d="M164.66 95.057a1.931 1.931 0 0 1 1.398-.857 1.938 1.938 0 0 1 1.555.521l6.119-3.158-.38 3.558-5.753 2.454a1.949 1.949 0 0 1-2.939-2.518z" fill="#FFB8B8"/>
        <path d="M169.926 96.385a.867.867 0 0 1-.294-.427l-.487-1.572a.87.87 0 0 1 .306-.948l4.96-3.747 5.372-9.966a2.792 2.792 0 0 1 3.92-.493 2.796 2.796 0 0 1 .493 3.92l-3.056 6.45a8.934 8.934 0 0 1-4.522 4.374l-5.812 2.522a.87.87 0 0 1-.88-.114z" fill="#323B68"/>
        <path d="M184.331 75.566a4.733 4.733 0 1 0 0-9.466 4.733 4.733 0 0 0 0 9.466zM182.411 132.925l-2.362-.001-1.124-9.113h3.487l-.001 9.114z" fill="#FFB8B8"/>
        <path d="M178.361 132.249h4.556v2.869h-7.425a2.871 2.871 0 0 1 1.771-2.65 2.854 2.854 0 0 1 1.098-.219z" fill="#222847"/>
        <path d="M190.12 132.925h-2.363l-1.124-9.114 3.488.001-.001 9.113z" fill="#FFB8B8"/>
        <path d="M186.069 132.25h4.557v2.868h-7.425a2.87 2.87 0 0 1 2.868-2.868zM190.292 130.612h-2.768a.866.866 0 0 1-.838-.641l-3.985-14.782a.097.097 0 0 0-.041-.056.105.105 0 0 0-.067-.014.1.1 0 0 0-.06.035.099.099 0 0 0-.021.066l.805 14.019a.863.863 0 0 1-.573.866.87.87 0 0 1-.365.047l-3.112-.259a.863.863 0 0 1-.53-.242.863.863 0 0 1-.259-.522l-2.835-29.436 1.097.658 10.277-1.745 4.135 31.025a.87.87 0 0 1-.86.981z" fill="#222847"/>
        <path d="M179.08 102.8a6.354 6.354 0 0 1-3.217-.905.866.866 0 0 1-.411-.885c.361-2.213 2.251-13.568 3.971-19.759.701-2.52 2.249-3.879 4.603-4.036 3.444-.225 6.504 2.469 6.823 6.013.562 6.253-1.721 15.138-2.729 18.667a.864.864 0 0 1-1.366.445l-2.055-1.598a.683.683 0 0 0-.87.036c-1.732 1.544-3.377 2.022-4.749 2.022z" fill="#323B68"/>
        <path opacity=".2" d="m185.875 86.288 1.734 7.323-2.505 6.167 1.735-5.974-.964-7.516z" fill="#000"/>
        <path d="M187.032 74.725a3.19 3.19 0 0 0 1.231-.222c.172-.067.351-.121.523-.188 1.519-.587 2.52-2.204 2.556-3.832.036-1.628-.807-3.208-2.059-4.25-1.252-1.04-2.873-1.575-4.497-1.7-1.749-.132-3.718.311-4.696 1.767-.26.388-.442.859-.288 1.327a.86.86 0 0 0 .239.367c.437.388.872.096 1.317.07.611-.035 1.161.46 1.358 1.04.197.58.111 1.218-.049 1.81a4.546 4.546 0 0 0-.228 1.1 1.107 1.107 0 0 0 .458.974c.383.231.884.098 1.267-.133.382-.23.713-.551 1.126-.72.413-.17.967-.133 1.208.243.076.137.128.287.153.442.215.981.166.924.381 1.905z" fill="#0B0D17"/>
        <path d="m179.696 126.313-29.639-10.321a2.033 2.033 0 0 1-1.251-2.588l7.702-22.115a1.492 1.492 0 0 1 1.896-.917l30.64 10.671a1.519 1.519 0 0 1 .932 1.929l-7.693 22.091a2.035 2.035 0 0 1-2.587 1.25z" fill="#D9DBE1"/>
        <path d="m152.586 114.721 25.917 9.025a1.973 1.973 0 0 0 2.509-1.212l6.219-17.859a1.966 1.966 0 0 0-1.213-2.508l-25.916-9.026a1.972 1.972 0 0 0-2.509 1.212l-6.22 17.859a1.968 1.968 0 0 0 .55 2.119c.194.172.419.304.663.39z" fill="#fff"/>
        <path d="m159.094 102.174-1.283-.447a.279.279 0 0 1-.171-.354l.447-1.284a.279.279 0 0 1 .354-.171l1.283.447a.278.278 0 0 1 .171.354l-.447 1.284a.278.278 0 0 1-.354.171z" fill="#FE9A22"/>
        <path d="m157.936 105.499-1.283-.447a.276.276 0 0 1-.171-.354l.447-1.283a.276.276 0 0 1 .354-.171l1.283.447a.276.276 0 0 1 .171.354l-.447 1.283a.276.276 0 0 1-.354.171z" fill="#323B68"/>
        <path d="m156.778 108.825-1.283-.447a.282.282 0 0 1-.172-.354l.447-1.284a.279.279 0 0 1 .354-.171l1.284.447a.278.278 0 0 1 .171.354l-.447 1.284a.278.278 0 0 1-.354.171zM167.719 104.458l-6.184-2.154a.277.277 0 1 1 .183-.525l6.184 2.154c.034.012.066.03.094.054a.292.292 0 0 1 .093.192.283.283 0 0 1-.07.201.279.279 0 0 1-.3.078zM166.561 107.783l-6.184-2.154a.276.276 0 0 1-.03-.512.281.281 0 0 1 .213-.013l6.184 2.154a.28.28 0 0 1 .03.513.277.277 0 0 1-.213.012zM165.403 111.109l-6.184-2.154a.278.278 0 0 1-.03-.513.279.279 0 0 1 .212-.012l6.185 2.154a.283.283 0 0 1 .159.141.276.276 0 0 1-.13.371.274.274 0 0 1-.212.013z" fill="#C9CCD4"/>
        <path d="M181.86 112.91a5.828 5.828 0 0 0-3.46-7.749l-2.033 5.837 5.493 1.912z" fill="#FE9A22"/>
        <path d="m175.776 111.353 2.033-5.837a5.824 5.824 0 0 0-6.208 1.561 5.826 5.826 0 0 0 7.551 8.773 5.836 5.836 0 0 0 2.117-2.584l-5.493-1.913z" fill="#323B68"/>
        <path d="M183.053 102.98a1.947 1.947 0 0 1 .571-1.537 1.95 1.95 0 0 1 1.545-.55l2.867-6.261 1.896 3.034-3.013 5.482a1.946 1.946 0 0 1-3.279 1.085 1.948 1.948 0 0 1-.587-1.253z" fill="#FFB8B8"/>
        <path d="M188.016 100.775a.87.87 0 0 1-.494-.154l-1.354-.937a.867.867 0 0 1-.344-.935l1.59-6.01-1.923-11.156a2.79 2.79 0 0 1 .808-1.981 2.788 2.788 0 0 1 3.043-.622 2.796 2.796 0 0 1 1.737 2.576l1.576 6.961a8.94 8.94 0 0 1-.859 6.233l-3.018 5.571a.86.86 0 0 1-.235.274.856.856 0 0 1-.527.18z" fill="#323B68"/>
        <path d="M202.682 135.226h-36.615a.192.192 0 0 1-.193-.192.193.193 0 0 1 .193-.193h36.615a.193.193 0 1 1 0 .385z" fill="#C9CCD4"/>
        <path d="m105.659 132.829 2.363-.001 1.123-9.112h-3.486v9.113z" fill="#A0616A"/>
        <path d="M105.056 132.057h4.653a2.966 2.966 0 0 1 2.965 2.965v.096l-7.618.001v-3.062z" fill="#222847"/>
        <path d="m96.216 132.829 2.363-.001 1.124-9.112h-3.487v9.113z" fill="#A0616A"/>
        <path d="M95.613 132.057h4.653a2.966 2.966 0 0 1 2.966 2.965v.096l-7.618.001v-3.062z" fill="#222847"/>
        <path d="M106.131 69.738a4.733 4.733 0 1 0 0-9.466 4.733 4.733 0 0 0 0 9.466z" fill="#A0616A"/>
        <path d="M109.313 130.862h-4.384a.87.87 0 0 1-.867-.878l.255-20.819a.29.29 0 0 0-.576-.039l-2.552 20.973a.866.866 0 0 1-.861.763h-4.426a.866.866 0 0 1-.865-.935l2.923-37.401.08-.009 13.996-1.511-1.856 39.03a.865.865 0 0 1-.867.826z" fill="#222847"/>
        <path d="M98.13 94.822a.867.867 0 0 1-.864-.84c-.076-2.365-.207-10.548 1.315-16.555a7.888 7.888 0 0 1 7.283-5.943 7.937 7.937 0 0 1 7.816 5.015c2.559 6.495 4.976 14.5 1.962 15.757-3.949 1.645-14.361 2.379-17.458 2.564a.867.867 0 0 1-.053.002z" fill="#323B68"/>
        <path d="M116.221 60.22c.074.077.154.148.24.211l-.497 9.545-2.067 1.058 1.189 3.328 3.841-1.518a1.54 1.54 0 0 0 .969-1.577l-1.006-10.826a2.029 2.029 0 0 0 .734-2.18 2.024 2.024 0 0 0-3.771-.31 2.024 2.024 0 0 0 .368 2.27z" fill="#A0616A"/>
        <path d="m116.003 70.33 1.454 4.133a.878.878 0 0 1 .046.366.879.879 0 0 1-.36.627.866.866 0 0 1-.339.146l-4.287.83a2.408 2.408 0 0 1-1.586-4.549l3.85-2.031a.863.863 0 0 1 1.028.164c.087.09.153.197.194.315z" fill="#323B68"/>
        <path d="M95.719 60.22a2.037 2.037 0 0 1-.24.211l.496 9.545 2.067 1.058-1.19 3.328-3.84-1.518a1.542 1.542 0 0 1-.968-1.577l1.006-10.826a2.023 2.023 0 1 1 2.669-.22z" fill="#A0616A"/>
        <path d="M96.438 69.811a.868.868 0 0 1 .72.04l3.85 2.032a2.408 2.408 0 0 1-1.586 4.549l-4.287-.83a.867.867 0 0 1-.653-1.14l1.454-4.131a.866.866 0 0 1 .502-.52z" fill="#323B68"/>
        <path d="M107.969 65.811a3.113 3.113 0 0 1 1.742-2.923c1.439-.742 2.343-2.327 1.947-3.773-.507-1.852-3.028-3.053-5.07-2.416a9.405 9.405 0 0 0-1.592.74l-1.334.715c-.57.285-1.119.61-1.644.97a5.455 5.455 0 0 0-2.172 5.114c.262 1.882 1.495 3.609 3.183 4.79a5.384 5.384 0 0 0 2.181.97c.809.134 1.709-.018 2.301-.521.924-.786.829-2.103.53-3.202a2.272 2.272 0 0 1-.072-.464z" fill="#0B0D17"/>
        <path d="M124.055 135.226H87.44a.193.193 0 1 1 0-.385h36.615a.192.192 0 1 1 0 .385z" fill="#C9CCD4"/>
        <path d="m64.296 100.07-30.213 12.395a2.114 2.114 0 0 1-2.758-1.154l-9.249-22.544a1.55 1.55 0 0 1 .845-2.021l31.235-12.814a1.578 1.578 0 0 1 2.056.86l9.238 22.52a2.117 2.117 0 0 1-1.154 2.758z" fill="#D9DBE1"/>
        <path d="m35.178 109.73 26.42-10.838a2.05 2.05 0 0 0 1.118-2.675l-7.468-18.204a2.05 2.05 0 0 0-2.676-1.12l-26.419 10.84a2.05 2.05 0 0 0-1.118 2.674l7.468 18.205a2.049 2.049 0 0 0 2.675 1.118z" fill="#fff"/>
        <path d="m55.102 82.977-.389.16.027.064.388-.16-.026-.064zM53.955 83.523l-.785.322-.026-.065.785-.322.026.065zm-1.57.644-.784.322-.027-.065.785-.322.027.065zm-1.569.644-.784.322-.027-.065.785-.322.026.065zm-1.57.644-.784.322-.026-.065.784-.322.027.065zm-1.568.644-.785.321-.027-.064.785-.322.027.064zm-1.57.643-.784.322-.027-.064.785-.322.026.064zm-1.57.644-.784.322-.026-.065.784-.322.027.065zm-1.569.644-.784.322-.027-.065.785-.322.026.065zm-1.569.644-.785.322-.026-.065.785-.322.026.065zm-1.57.644-.784.322-.026-.065.784-.322.027.065zm-1.569.644-.784.321-.027-.064.785-.322.026.064zm-1.569.643-.785.322-.026-.065.785-.322.026.065zm-1.57.644-.784.322-.027-.065.785-.322.027.065zm-1.569.644-.784.322-.027-.065.785-.322.026.065zm-1.57.644-.784.322-.026-.065.784-.322.027.065zm-1.568.644-.785.322-.027-.065.785-.322.027.065zM28.819 93.76l-.389.16.027.064.388-.16-.026-.064zM44.818 94.23l-.388.159.027.065.388-.16-.027-.064zM43.684 94.77l-.773.318-.027-.065.773-.317.027.065zm-1.547.635-.773.317-.026-.065.773-.317.026.065zm-1.546.634-.773.317-.026-.064.773-.317.026.064zm-1.546.635-.773.317-.026-.065.773-.317.026.065zm-1.546.634-.773.317-.026-.065.773-.317.026.065zm-1.546.634-.773.317-.026-.064.773-.318.026.065zm-1.546.634-.773.318-.026-.065.773-.317.026.064zm-1.546.635-.773.317-.026-.065.773-.317.026.065zM31.288 99.78l-.388.16.027.064.388-.16-.027-.064zM38.413 100.185l-.389.16.027.064.388-.159-.026-.065zM37.256 100.736l-.796.326-.026-.065.795-.326.027.065zm-1.591.652-.795.326-.027-.064.795-.327.027.065zm-1.59.653-.796.326-.027-.065.796-.326.026.065zM32.457 102.629l-.388.159.026.065.389-.16-.027-.064zM40.407 105.046l-.388.159.026.065.389-.159-.027-.065zM39.25 105.596l-.795.327-.027-.065.795-.326.027.064zm-1.59.653-.796.326-.027-.064.796-.327.026.065zm-1.591.653-.796.326-.026-.065.795-.326.026.065zM34.451 107.489l-.388.16.026.065.389-.16-.027-.065z" fill="#D9DBE1"/>
        <path d="m36.3 106.865 22.388-9.185a2.212 2.212 0 0 0 1.206-2.884L55.371 83.77l-.044.02-5.494 13.136-4.075-1.703a.528.528 0 0 0-.703.305l-2.88 6.884-2.979-1.245a.524.524 0 0 0-.406-.002.544.544 0 0 0-.288.287c-.02.046-1.856 4.554-2.202 5.413z" fill="#FE9A22"/>
        <path d="m36.23 106.969-.064-.027 2.304-5.509a.595.595 0 0 1 .778-.32l2.92 1.222 2.864-6.846a.595.595 0 0 1 .778-.32l4.016 1.68 5.522-13.206.065.027-5.55 13.27-4.08-1.706a.524.524 0 0 0-.687.282l-2.89 6.91-2.985-1.248a.522.522 0 0 0-.686.282l-2.304 5.509zM38.426 100.707a.49.49 0 1 0 0-.979.49.49 0 0 0 0 .979z" fill="#323B68"/>
        <path d="M44.832 94.752a.49.49 0 1 0 0-.98.49.49 0 0 0 0 .98zM54.806 83.482a.49.49 0 1 0 0-.98.49.49 0 0 0 0 .98z" fill="#323B68"/>
        <path d="M27.39 99.662a1.946 1.946 0 0 0 .696-2.901l1.455-14.223h-3.144L25.24 96.426a1.956 1.956 0 0 0 2.15 3.236zM30.277 74.689a4.448 4.448 0 1 0 0-8.896 4.448 4.448 0 0 0 0 8.895z" fill="#FFB8B8"/>
        <path d="M31.114 90.821a.813.813 0 0 1-.784-.597c-.356-1.295-1.283-3.484-2.755-6.507a5.388 5.388 0 0 1 3.06-7.441 5.388 5.388 0 0 1 6.923 3.432c1.14 3.577 1.086 7.409 1.01 8.89a.817.817 0 0 1-.64.755l-6.64 1.45a.809.809 0 0 1-.174.018z" fill="#FF6584"/>
        <path d="M37.543 133.057h2.22l1.056-8.564-3.277.001v8.563z" fill="#FFB8B8"/>
        <path d="m44.044 135.118-6.977.001v-2.696h4.282a2.686 2.686 0 0 1 1.906.789 2.705 2.705 0 0 1 .79 1.906z" fill="#222847"/>
        <path d="m15.342 130.18 1.946 1.069 5.051-6.995-2.871-1.578-4.126 7.504z" fill="#FFB8B8"/>
        <path d="m20.047 135.119-6.115-3.362 1.299-2.362 3.752 2.063a2.693 2.693 0 0 1 1.064 3.661zM37.439 128.304a.812.812 0 0 1-.807-.71l-2.777-21.396a.45.45 0 0 0-.365-.387.456.456 0 0 0-.48.227l-11.572 20.994a.818.818 0 0 1-1.004.368l-2.522-.961a.804.804 0 0 1-.457-.436.818.818 0 0 1-.008-.632l8.016-19.692a.623.623 0 0 0 .041-.156c1.086-8.403 3.848-12.677 4.669-13.786a.631.631 0 0 0 .09-.575l-.113-.338a.814.814 0 0 1 .157-.793c2.957-3.369 8.112-1.53 8.164-1.512l.026.01.016.022c5.78 7.927 3.643 33.673 3.156 38.754a.816.816 0 0 1-.749.734l-3.418.263-.063.002z" fill="#222847"/>
        <path d="M47.568 75.407a1.907 1.907 0 0 0-.043.297l-7.78 4.488-1.89-1.088-2.016 2.639 3.16 2.252a1.449 1.449 0 0 0 1.738-.042l8.022-6.329a1.901 1.901 0 1 0-1.19-2.217z" fill="#FFB8B8"/>
        <path d="m39.486 80.405-2.515 3.258a.816.816 0 0 1-1.232.068l-2.846-2.956a2.263 2.263 0 0 1 2.776-3.575l3.57 1.996a.815.815 0 0 1 .247 1.209zM29.74 86.066l-4.05-.731a.816.816 0 0 1-.627-1.063l1.313-3.888a2.263 2.263 0 0 1 4.452.818L30.7 85.29a.814.814 0 0 1-.96.776z" fill="#FF6584"/>
        <path d="M30.98 69.218c1.144.782 2.645 1.586 3.813.753a2.126 2.126 0 0 0 .697-2.45c-.56-1.598-2.095-2.302-3.564-2.841-1.91-.702-3.989-1.26-5.96-.757-1.971.502-3.713 2.41-3.358 4.413.287 1.611 1.806 2.951 1.59 4.573-.217 1.632-2.052 2.491-3.673 2.783-1.62.291-3.433.385-4.598 1.549-1.485 1.485-1.114 4.138.284 5.706 1.397 1.568 3.507 2.278 5.55 2.761 2.709.64 5.638.977 8.21-.085 2.572-1.063 4.574-3.922 3.829-6.603-.315-1.133-1.057-2.09-1.773-3.021-.717-.932-1.442-1.907-1.716-3.05-.227-.953-.059-2.059.573-2.773a.804.804 0 0 0 .108-.94l-.011-.018z" fill="#0B0D17"/>
        <path d="M47.933 135.226H11.318a.193.193 0 0 1-.137-.329.193.193 0 0 1 .137-.056h36.615a.193.193 0 0 1 .137.329.193.193 0 0 1-.137.056z" fill="#C9CCD4"/>
    </g>
    <defs>
        <clipPath id="uok7shonxa">
            <path fill="#fff" transform="translate(11.125 .774)" d="M0 0h191.75v134.453H0z"/>
        </clipPath>
    </defs>
</svg>
