<svg width="110" height="106" viewBox="0 0 110 106" fill="none" xmlns="http://www.w3.org/2000/svg">
<path d="M74.0076 53.1431C74.0076 39.2547 62.2245 31.6145 48.7648 27.9959C31.5082 23.3565 18.8698 32.7445 23.522 53.1431C24.5763 57.7663 27.0982 63.1658 30.2197 67.7846H54.9907C63.265 62.4181 74.0076 63.9231 74.0076 53.1431Z" fill="#4ED0D8"/>
<path d="M61.2402 16.1072V55.2344C61.2402 58.6946 58.4145 61.5095 54.9412 61.5095H15.6652C12.1919 61.5095 9.36621 58.6946 9.36621 55.2344V16.1072C9.36621 12.647 12.1919 9.83203 15.6652 9.83203H54.9412C58.4145 9.83203 61.2402 12.647 61.2402 16.1072ZM54.9412 60.7713C58.0107 60.7713 60.4991 58.2923 60.4991 55.2344V35.508C60.4991 21.7353 49.2917 10.5703 35.4666 10.5703H15.6652C12.5956 10.5703 10.1073 13.0492 10.1073 16.1072V55.2344C10.1073 58.2923 12.5956 60.7713 15.6652 60.7713H54.9412Z" fill="#3F3D56"/>
<path d="M30.6511 91.7742H17.9714C17.6517 91.7742 17.3916 91.515 17.3916 91.1966C17.3916 90.8781 17.6517 90.6191 17.9714 90.6191H30.6511C30.9707 90.6191 31.2307 90.8781 31.2307 91.1966C31.2307 91.515 30.9707 91.7742 30.6511 91.7742V91.7742Z" fill="#3F3D56"/>
<path d="M89.1941 5.63355H76.5143C76.1947 5.63355 75.9346 5.37443 75.9346 5.05597C75.9346 4.73752 76.1947 4.47852 76.5143 4.47852H89.1941C89.5137 4.47852 89.7737 4.73752 89.7737 5.05597C89.7737 5.37443 89.5137 5.63354 89.1941 5.63354V5.63355Z" fill="#3F3D56"/>
<path d="M89.1941 17.949H76.5143C76.1947 17.949 75.9346 17.6899 75.9346 17.3714C75.9346 17.0529 76.1947 16.7939 76.5143 16.7939H89.1941C89.5137 16.7939 89.7737 17.0529 89.7737 17.3714C89.7737 17.6899 89.5137 17.949 89.1941 17.949V17.949Z" fill="#3F3D56"/>
<path d="M95.9985 11.7957H69.7106C69.391 11.7957 69.1309 11.5365 69.1309 11.2181C69.1309 10.8996 69.391 10.6406 69.7106 10.6406H95.9985C96.3181 10.6406 96.5781 10.8996 96.5781 11.2181C96.5781 11.5365 96.3181 11.7957 95.9985 11.7957V11.7957Z" fill="#3F3D56"/>
<path d="M69.757 102.113H14.9303C11.6582 102.113 8.99609 99.4609 8.99609 96.2011V76.2799C8.99609 73.0202 11.6582 70.3682 14.9303 70.3682H69.757C73.0291 70.3682 75.6912 73.0202 75.6912 76.2799V96.2011C75.6912 99.4609 73.0291 102.113 69.757 102.113ZM14.9303 71.1064C12.0669 71.1064 9.73715 73.4271 9.73715 76.2799V96.2011C9.73715 99.0539 12.0669 101.375 14.9303 101.375H69.757C72.6204 101.375 74.9501 99.0539 74.9501 96.2011V76.2799C74.9501 73.4271 72.6204 71.1064 69.757 71.1064H14.9303Z" fill="#3F3D56"/>
<path d="M90.8067 67.7848H84.1897C72.9655 67.7848 63.834 58.6879 63.834 47.5064V40.9144C63.834 38.6337 65.6964 36.7783 67.9856 36.7783H90.8067C93.0959 36.7783 94.9584 38.6337 94.9584 40.9144V63.6487C94.9584 65.9294 93.0959 67.7848 90.8067 67.7848ZM67.9856 37.5166C66.102 37.5166 64.575 39.0377 64.575 40.9142V47.5064C64.575 58.2981 73.3567 67.0466 84.1895 67.0466H90.8067C92.6903 67.0466 94.2173 65.5254 94.2173 63.6489V49.1687C94.2173 42.7334 88.9806 37.5166 82.5209 37.5166H67.9856Z" fill="#3F3D56"/>
<path d="M48.3945 79.3975C49.8036 76.7215 51.59 74.7909 53.5584 73.3213H30.3574C36.3288 81.8188 44.2479 87.2724 48.3945 79.3975Z" fill="#2EC5CE"/>
</svg>
