<svg width="24" height="21" viewBox="0 0 24 21" fill="none" xmlns="http://www.w3.org/2000/svg">
    <path fill-rule="evenodd" clip-rule="evenodd" d="M23.895 3.28c-3.58 1.822-5.369 3.963-5.369 6.423 1.526.182 2.787.827 3.785 1.936.997 1.108 1.496 2.391 1.496 3.85 0 1.548-.484 2.854-1.452 3.917C21.387 20.469 20.169 21 18.702 21c-1.642 0-3.065-.69-4.268-2.073-1.203-1.381-1.804-3.06-1.804-5.033C12.63 7.972 15.828 3.34 22.223 0l1.672 3.28zm-12.63 0C7.656 5.102 5.852 7.243 5.852 9.703c1.555.182 2.831.827 3.829 1.936.997 1.108 1.496 2.391 1.496 3.85 0 1.548-.492 2.854-1.474 3.917C8.72 20.469 7.495 21 6.028 21c-1.642 0-3.058-.69-4.246-2.073C.594 17.546 0 15.867 0 13.894 0 7.972 3.183 3.34 9.549 0l1.716 3.28z" fill="#3A4479"/>
</svg>
