<svg width="110" height="106" viewBox="0 0 110 106" fill="none" xmlns="http://www.w3.org/2000/svg">
<g clip-path="url(#clip0_11060_9712)">
<path d="M75.7445 82.709L82.1907 93.5925L88.6366 104.476H62.8525L69.2985 93.5925L75.7445 82.709Z" fill="#3A4479"/>
<path d="M39.1147 61.333H12.0811V87.6852H39.1147V61.333Z" fill="#E6E6E6"/>
<path d="M58.493 44.5424C68.0722 44.5424 75.8376 36.9726 75.8376 27.6349C75.8376 18.2972 68.0722 10.7275 58.493 10.7275C48.9139 10.7275 41.1484 18.2972 41.1484 27.6349C41.1484 36.9726 48.9139 44.5424 58.493 44.5424Z" fill="#CB3036"/>
<path d="M74.1035 55.8658C74.1035 55.3124 74.2719 54.7713 74.5873 54.3111C74.9028 53.8509 75.3511 53.4922 75.8757 53.2804C76.4003 53.0686 76.9775 53.0132 77.5344 53.1212C78.0913 53.2291 78.6028 53.4957 79.0043 53.887C79.4058 54.2784 79.6792 54.777 79.79 55.3199C79.9008 55.8627 79.8439 56.4254 79.6266 56.9368C79.4094 57.4481 79.0414 57.8852 78.5693 58.1927C78.0972 58.5002 77.5421 58.6643 76.9743 58.6643C76.213 58.6643 75.4827 58.3695 74.9444 57.8447C74.406 57.3199 74.1035 56.608 74.1035 55.8658ZM74.582 55.8658C74.582 56.3271 74.7223 56.778 74.9852 57.1615C75.248 57.545 75.6217 57.8439 76.0588 58.0204C76.496 58.1969 76.977 58.2431 77.4411 58.1531C77.9051 58.0631 78.3314 57.841 78.666 57.5149C79.0006 57.1887 79.2284 56.7732 79.3207 56.3208C79.413 55.8684 79.3657 55.3995 79.1846 54.9734C79.0035 54.5473 78.6969 54.1831 78.3035 53.9268C77.91 53.6706 77.4475 53.5338 76.9743 53.5338C76.3399 53.5338 75.7314 53.7795 75.2827 54.2168C74.834 54.6542 74.582 55.2473 74.582 55.8658Z" fill="#CCCCCC"/>
<path d="M49.387 104.545L45.1611 100.128L49.6918 96.0088L53.9176 100.425L49.387 104.545ZM45.8348 100.151L49.4104 103.888L53.2439 100.402L49.6683 96.6655L45.8348 100.151Z" fill="#CCCCCC"/>
<path d="M14.4861 41.717L11.0469 38.1226L14.7352 34.7705L18.1744 38.3649L14.4861 41.717ZM11.595 38.1413L14.5062 41.1837L17.6263 38.3467L14.716 35.3052L11.595 38.1413Z" fill="#CCCCCC"/>
<path d="M62.7995 46.6411C58.0679 46.6411 53.4425 45.2734 49.5083 42.7109C45.5741 40.1484 42.5078 36.5062 40.6971 32.245C38.8863 27.9837 38.4126 23.2947 39.3357 18.771C40.2588 14.2472 42.5373 10.0919 45.883 6.83044C49.2288 3.56901 53.4916 1.34794 58.1323 0.448109C62.773 -0.45172 67.5832 0.0101044 71.9547 1.77518C76.3262 3.54026 80.0625 6.52932 82.6913 10.3644C85.32 14.1994 86.7231 18.7082 86.7231 23.3206C86.7231 29.5056 84.2026 35.4372 79.7161 39.8107C75.2295 44.1842 69.1445 46.6411 62.7995 46.6411ZM62.7995 0.466422C58.1625 0.466422 53.6297 1.80679 49.7741 4.31804C45.9186 6.82929 42.9136 10.3986 41.1391 14.5747C39.3646 18.7507 38.9003 23.3459 39.805 27.7792C40.7096 32.2125 42.9425 36.2847 46.2214 39.4809C49.5002 42.6771 53.6777 44.8538 58.2256 45.7356C62.7735 46.6174 67.4876 46.1648 71.7716 44.4351C76.0556 42.7053 79.7172 39.776 82.2934 36.0177C84.8696 32.2593 86.2446 27.8407 86.2446 23.3206C86.2446 17.2593 83.7745 11.4462 79.3777 7.16025C74.9809 2.87426 69.0176 0.466422 62.7995 0.466422Z" fill="#3F3D56"/>
<path d="M48.0717 41.4651L41.8916 54.0029L42.3229 54.2049L48.503 41.6671L48.0717 41.4651Z" fill="#3F3D56"/>
<path d="M46.6457 70.6884L46.418 71.0986L73.6401 85.4598L73.8678 85.0496L46.6457 70.6884Z" fill="#3F3D56"/>
<path d="M46.7702 87.9181H11.8418V53.8701H46.7702V87.9181ZM12.3203 87.4517H46.2917V54.3365H12.3203V87.4517Z" fill="#3F3D56"/>
<path d="M98.5676 104.709H62.4385L80.5029 74.209L98.5676 104.709ZM63.2672 104.243H97.7386L80.5029 75.1418L63.2672 104.243Z" fill="#3F3D56"/>
<path d="M35.717 103.876C37.6916 103.876 39.2924 102.315 39.2924 100.391C39.2924 98.4657 37.6916 96.9053 35.717 96.9053C33.7424 96.9053 32.1416 98.4657 32.1416 100.391C32.1416 102.315 33.7424 103.876 35.717 103.876Z" fill="#CB3036"/>
</g>
<defs>
<clipPath id="clip0_11060_9712">
<rect width="110" height="106" fill="white"/>
</clipPath>
</defs>
</svg>
